<svg width="144" height="144" viewBox="0 0 144 144" fill="none" xmlns="http://www.w3.org/2000/svg">
<path d="M137.202 76.0962C137.094 77.5 136.695 78.5711 136.007 79.3096C135.329 80.0595 134.383 80.3877 133.171 80.2939C131.958 80.2002 131.069 79.7303 130.504 78.8842C129.948 78.0495 129.724 76.9303 129.832 75.5265L129.937 74.1705L126.14 73.877L126.269 72.218L137.435 73.0812L137.307 74.7402L137.202 76.0962ZM131.271 75.6055C131.201 76.5095 131.317 77.2139 131.621 77.7188C131.935 78.2245 132.496 78.5086 133.304 78.5711C134.112 78.6336 134.705 78.4387 135.082 77.9864C135.47 77.535 135.699 76.8572 135.769 75.9533L135.871 74.6292L131.373 74.2815L131.271 75.6055Z" fill="white"/>
<path d="M128.479 88.7475C128.178 88.6757 127.836 88.572 127.451 88.4364L128.714 83.145C127.058 82.9144 126.041 83.5928 125.662 85.1802C125.481 85.9376 125.461 86.7334 125.602 87.5675L124.263 87.5276C124.086 86.6628 124.117 85.7272 124.357 84.7208C124.657 83.4654 125.259 82.5508 126.163 81.9771C127.076 81.4162 128.18 81.2905 129.477 81.6C130.702 81.8921 131.612 82.4658 132.208 83.3209C132.815 84.1785 132.984 85.1728 132.714 86.3037C132.474 87.3101 131.963 88.027 131.181 88.4546C130.396 88.8925 129.496 88.9901 128.479 88.7475ZM128.816 87.1993C128.875 87.2245 128.957 87.2495 129.061 87.2743C129.621 87.408 130.119 87.3677 130.554 87.1535C130.997 86.9521 131.286 86.5661 131.422 85.9954C131.566 85.3937 131.484 84.8642 131.176 84.4069C130.876 83.9626 130.393 83.6224 129.725 83.3864L128.816 87.1993Z" fill="white"/>
<path d="M129.023 96.8551L127.798 96.385L129.094 93.0091L122.746 90.5725L123.325 89.0638L130.898 91.9705L130.319 93.4792L129.023 96.8551Z" fill="white"/>
<path d="M123.859 98.0949C123.225 97.7422 122.695 97.4227 122.269 97.1365C123.035 98.4787 123.632 99.5674 124.058 100.403C124.479 101.247 124.96 102.302 125.501 103.568L124.762 104.896L117.674 100.952L118.421 99.6094L122.587 101.928C123.1 102.213 123.513 102.468 123.828 102.692C122.877 100.649 121.723 98.4565 120.366 96.1142L121.097 94.7999L128.185 98.7443L127.438 100.087L123.859 98.0949Z" fill="white"/>
<path d="M119.218 111.943L118.384 110.9C119.007 110.545 119.507 110.121 119.883 109.63C120.351 109.021 120.507 108.388 120.352 107.731C120.199 107.09 119.767 106.496 119.056 105.951C118.311 105.379 117.611 105.118 116.956 105.166C116.3 105.214 115.716 105.573 115.203 106.241C114.833 106.724 114.578 107.301 114.438 107.974L113.222 107.404C113.349 106.695 113.673 106.002 114.192 105.325C114.984 104.292 115.893 103.712 116.919 103.585C117.946 103.472 118.984 103.819 120.034 104.624C121.066 105.416 121.68 106.324 121.876 107.348C122.065 108.381 121.783 109.388 121.03 110.369C120.498 111.063 119.894 111.588 119.218 111.943Z" fill="white"/>
<path d="M113.941 117.81L113.013 116.882L114.721 115.174L109.913 110.366L111.067 109.212L115.875 114.02L117.584 112.311L118.512 113.239L115.649 116.102L113.941 117.81Z" fill="white"/>
<path d="M109.484 121.684C108.474 122.436 107.472 122.723 106.476 122.547C105.481 122.37 104.61 121.782 103.865 120.781C103.069 119.711 102.706 118.651 102.776 117.602C102.837 116.559 103.369 115.665 104.37 114.92C104.832 114.576 105.328 114.34 105.857 114.212L103.994 111.709L105.291 110.744L111.596 119.215C111.095 120.186 110.391 121.009 109.484 121.684ZM109.717 119.397L106.679 115.316C106.145 115.42 105.703 115.603 105.352 115.864C104.043 116.839 103.987 118.13 105.184 119.739C105.687 120.415 106.247 120.836 106.863 121.003C107.47 121.176 108.095 121.023 108.736 120.546C109.13 120.253 109.457 119.87 109.717 119.397Z" fill="white"/>
<path d="M97.3557 119.405C98.2537 118.936 99.0475 118.773 99.7371 118.918C100.427 119.063 100.94 119.457 101.276 120.099C101.647 120.808 101.676 121.485 101.363 122.13C101.051 122.775 100.474 123.318 99.6324 123.758C99.0936 124.04 98.5655 124.25 98.048 124.388L98.3594 124.983C98.8933 126.004 99.7132 126.225 100.819 125.647C101.509 125.286 102.081 124.837 102.534 124.299L103.418 125.299C102.899 125.919 102.196 126.461 101.308 126.926C100.344 127.43 99.4897 127.57 98.7461 127.345C98.0025 127.12 97.3933 126.554 96.9187 125.647L94.7904 121.578C95.3286 120.742 96.1837 120.018 97.3557 119.405ZM96.5722 121.566L97.5437 123.424C98.0567 123.3 98.5306 123.124 98.9654 122.897C99.9862 122.363 100.289 121.699 99.8737 120.905C99.4781 120.149 98.7842 120.03 97.7917 120.549C97.2152 120.851 96.8087 121.19 96.5722 121.566Z" fill="white"/>
<path d="M85.5203 125.79L84.4266 122.546L85.7457 122.101L86.4203 124.102L91.0447 122.543L92.576 122.027L95.1672 129.714L93.6359 130.23L91.4637 123.787L88.1888 124.891L90.3609 131.334L88.8296 131.851L86.6575 125.407L85.5203 125.79Z" fill="white"/>
<path d="M83.1851 128.965C83.0683 128.25 82.9898 127.636 82.9494 127.123C82.3728 128.558 81.8892 129.701 81.4987 130.554C81.0977 131.408 80.5689 132.44 79.9124 133.649L78.4122 133.894L77.1063 125.888L78.6223 125.641L79.3899 130.346C79.4843 130.925 79.5414 131.408 79.5611 131.794C80.5729 129.781 81.5759 127.515 82.5701 124.997L84.0545 124.755L85.3604 132.761L83.8444 133.008L83.1851 128.965Z" fill="white"/>
<path d="M74.4032 126.028L76.0672 126.015L74.5966 128.282C74.3335 128.743 74.0481 129.076 73.7403 129.281C74.8207 129.667 75.365 130.405 75.3734 131.493C75.3807 132.431 75.0712 133.106 74.445 133.516C73.8083 133.937 72.8819 134.152 71.6659 134.161L69.202 134.18L69.1394 126.069L70.7553 126.056L70.7774 128.92L71.7854 128.912C72.1161 128.91 72.3716 128.849 72.552 128.73C72.7218 128.612 72.9015 128.397 73.0911 128.086L74.4032 126.028ZM70.8081 132.888L71.688 132.881C72.3814 132.876 72.8979 132.765 73.2375 132.549C73.5665 132.333 73.7292 131.985 73.7255 131.505C73.7215 130.993 73.5534 130.632 73.2211 130.421C72.8889 130.221 72.3654 130.124 71.6508 130.129L70.7868 130.136L70.8081 132.888Z" fill="white"/>
<path d="M57.1697 132.495L55.5884 132.162L57.2601 124.224L58.8414 124.557L58.2875 127.187C58.8231 127.18 59.3727 127.236 59.9364 127.355C61.1262 127.605 61.9233 128.013 62.3276 128.578C62.7215 129.14 62.814 129.918 62.6052 130.909L62.0545 133.524L60.4576 133.187L61.0016 130.604C61.1225 130.03 61.083 129.597 60.883 129.304C60.6705 129.019 60.251 128.811 59.6248 128.679C58.9985 128.547 58.4582 128.499 58.0039 128.534L57.1697 132.495Z" fill="white"/>
<path d="M47.594 125.821C47.7027 125.532 47.8482 125.204 48.0305 124.84L53.1238 126.751C53.5585 125.137 53.0119 124.043 51.484 123.47C50.7549 123.196 49.9678 123.078 49.1226 123.114L49.3289 121.79C50.209 121.721 51.1335 121.869 52.1022 122.232C53.3106 122.686 54.1432 123.397 54.5999 124.366C55.0429 125.341 55.0302 126.452 54.5618 127.701C54.1196 128.879 53.4372 129.711 52.5145 130.197C51.588 130.692 50.5805 130.736 49.492 130.327C48.5233 129.964 47.8754 129.367 47.5485 128.538C47.2116 127.706 47.2268 126.8 47.594 125.821ZM49.0883 126.348C49.0558 126.404 49.0208 126.482 48.9834 126.582C48.781 127.121 48.7591 127.62 48.9175 128.078C49.0622 128.542 49.4092 128.878 49.9585 129.084C50.5378 129.301 51.0733 129.286 51.5653 129.037C52.0435 128.795 52.4412 128.358 52.7584 127.725L49.0883 126.348Z" fill="white"/>
<path d="M43.4787 118.258L43.7471 122.243C44.3033 122.185 44.8611 122.145 45.4205 122.125L46.6029 119.981L48.0179 120.762L44.0997 127.865L42.6847 127.084L44.6631 123.498C43.5205 123.538 42.5777 123.712 41.8347 124.021C41.0918 124.33 40.4364 124.833 39.8687 125.531L38.4677 124.758C39.2402 123.601 40.5123 122.841 42.2839 122.478L41.9096 117.393L43.4787 118.258Z" fill="white"/>
<path d="M39.1371 115.054C39.9411 115.671 40.4226 116.322 40.5815 117.009C40.7404 117.696 40.599 118.327 40.1575 118.902C39.6705 119.537 39.0687 119.848 38.352 119.836C37.6353 119.824 36.9003 119.529 36.1471 118.951C35.6648 118.581 35.2519 118.19 34.9087 117.779L34.4996 118.312C33.7984 119.226 33.9429 120.063 34.933 120.823C35.5508 121.297 36.199 121.626 36.8775 121.81L36.3425 123.033C35.5618 122.824 34.7737 122.415 33.9782 121.804C33.115 121.142 32.6289 120.426 32.52 119.657C32.4111 118.888 32.6683 118.097 33.2916 117.284L36.0868 113.641C37.071 113.778 38.0878 114.249 39.1371 115.054ZM36.8468 115.253L35.571 116.916C35.8993 117.329 36.2581 117.685 36.6474 117.984C37.5613 118.685 38.291 118.68 38.8364 117.969C39.3559 117.292 39.1713 116.613 38.2827 115.931C37.7665 115.535 37.2878 115.309 36.8468 115.253Z" fill="white"/>
<path d="M6.18181 66.0103C6.31194 64.6083 6.72679 63.5435 7.42638 62.8157C8.11634 62.0763 9.06671 61.7628 10.2775 61.8751C11.4883 61.9875 12.3701 62.4711 12.9228 63.3258C13.4658 64.1689 13.6723 65.2915 13.5422 66.6935L13.4165 68.0477L17.2082 68.3996L17.0544 70.0565L5.90234 69.0214L6.05613 67.3645L6.18181 66.0103ZM12.1054 66.5923C12.1892 65.6895 12.0833 64.9833 11.7878 64.4738C11.4817 63.9634 10.925 63.6707 10.1178 63.5957C9.31061 63.5208 8.7149 63.7066 8.33066 64.153C7.93581 64.5984 7.69649 65.2725 7.6127 66.1753L7.48996 67.4976L11.9827 67.9146L12.1054 66.5923Z" fill="white"/>
<path d="M15.082 53.5405C15.3818 53.6169 15.7228 53.7257 16.1051 53.8672L14.7621 59.1388C16.4141 59.3945 17.4415 58.7317 17.8444 57.1502C18.0366 56.3956 18.0686 55.6002 17.9404 54.764L19.279 54.8243C19.4433 55.6917 19.3977 56.6268 19.1423 57.6294C18.8236 58.8801 18.2077 59.7854 17.2946 60.3453C16.3737 60.8923 15.2673 61.0011 13.9752 60.672C12.7555 60.3612 11.8539 59.7738 11.2705 58.9097C10.6768 58.043 10.5234 57.0463 10.8105 55.9196C11.0659 54.917 11.5878 54.2078 12.3761 53.7923C13.1671 53.3664 14.0691 53.2824 15.082 53.5405ZM14.722 55.0834C14.6626 55.0572 14.5812 55.031 14.4779 55.0047C13.9197 54.8625 13.4215 54.8952 12.9834 55.1027C12.5375 55.2974 12.2422 55.6789 12.0974 56.2474C11.9446 56.847 12.0186 57.3776 12.3192 57.8395C12.6121 58.2884 13.0905 58.6359 13.7543 58.882L14.722 55.0834Z" fill="white"/>
<path d="M14.6383 45.4609L15.856 45.9493L14.5099 49.3054L20.8212 51.8368L20.2196 53.3367L12.6906 50.3168L13.2922 48.817L14.6383 45.4609Z" fill="white"/>
<path d="M19.6737 44.5496C20.3035 44.9092 20.8302 45.2346 21.2536 45.5255C20.5018 44.1749 19.9173 43.0796 19.5003 42.2396C19.0886 41.3903 18.6193 40.3301 18.0923 39.0588L18.8461 37.7388L25.8904 41.7614L25.1288 43.0953L20.9883 40.7309C20.4788 40.44 20.0679 40.1808 19.7556 39.9533C20.6837 42.0064 21.8136 44.2116 23.1452 46.5688L22.3994 47.8749L15.3551 43.8523L16.1167 42.5184L19.6737 44.5496Z" fill="white"/>
<path d="M24.6271 30.5343L25.4452 31.5891C24.8175 31.9358 24.3118 32.3519 23.9281 32.8372C23.4518 33.4396 23.2863 34.0703 23.4316 34.7291C23.5753 35.373 23.9985 35.9728 24.7013 36.5285C25.4377 37.1107 26.1339 37.3824 26.79 37.3437C27.4462 37.3049 28.0355 36.9551 28.5582 36.294C28.9353 35.8171 29.1985 35.2434 29.348 34.5728L30.5558 35.1606C30.4182 35.8678 30.0848 36.556 29.5555 37.2254C28.7484 38.2462 27.8313 38.8128 26.8041 38.9253C25.7751 39.0228 24.7419 38.6614 23.7043 37.8411C22.6835 37.034 22.0827 36.117 21.9019 35.0902C21.7278 34.055 22.0244 33.0521 22.7918 32.0815C23.3343 31.3954 23.946 30.8797 24.6271 30.5343Z" fill="white"/>
<path d="M30.0009 24.7178L30.915 25.6589L29.182 27.3423L33.9199 32.22L32.7493 33.3571L28.0114 28.4794L26.2783 30.1628L25.3642 29.2216L28.2679 26.4012L30.0009 24.7178Z" fill="white"/>
<path d="M34.4086 20.9702C35.4291 20.2335 36.4359 19.9606 37.4288 20.1516C38.4218 20.3426 39.2835 20.944 40.0139 21.9559C40.7943 23.037 41.1418 24.1017 41.0566 25.1499C40.9799 26.1918 40.4356 27.0781 39.4237 27.8085C38.9567 28.1456 38.4575 28.3744 37.9262 28.4949L39.7523 31.0246L38.442 31.9705L32.2613 23.4082C32.776 22.4446 33.4918 21.6319 34.4086 20.9702ZM34.1428 23.2537L37.1208 27.3792C37.656 27.2823 38.1009 27.1058 38.4555 26.8499C39.7787 25.8947 39.8535 24.6041 38.6798 22.9781C38.1866 22.2949 37.6333 21.8655 37.0199 21.69C36.4151 21.5082 35.7884 21.6515 35.1397 22.1197C34.7419 22.4069 34.4096 22.7849 34.1428 23.2537Z" fill="white"/>
<path d="M46.3418 23.4781C45.4387 23.9377 44.6431 24.0913 43.9551 23.9388C43.2671 23.7863 42.7586 23.3869 42.4295 22.7405C42.0666 22.0275 42.0451 21.3503 42.3649 20.7087C42.6847 20.0672 43.2676 19.5311 44.1136 19.1005C44.6555 18.8247 45.1859 18.6206 45.705 18.488L45.4001 17.8891C44.8776 16.8625 44.0602 16.6322 42.948 17.1983C42.254 17.5515 41.6776 17.9945 41.2187 18.5273L40.3456 17.5175C40.8707 16.9031 41.5801 16.3685 42.4736 15.9137C43.4433 15.4202 44.2986 15.29 45.0397 15.5232C45.7808 15.7564 46.3836 16.3293 46.8481 17.2419L48.9311 21.3343C48.3836 22.1635 47.5205 22.8781 46.3418 23.4781ZM47.1492 21.3256L46.1985 19.4577C45.6841 19.5758 45.2083 19.7462 44.771 19.9688C43.7444 20.4913 43.4342 21.1519 43.8407 21.9504C44.2278 22.7109 44.9204 22.8371 45.9185 22.3291C46.4984 22.0339 46.9086 21.6994 47.1492 21.3256Z" fill="white"/>
<path d="M58.2579 17.2001L59.3149 20.4569L57.9908 20.8866L57.3389 18.8777L52.6972 20.3841L51.1601 20.883L48.656 13.1672L50.1931 12.6683L52.2922 19.1362L55.5794 18.0694L53.4803 11.6015L55.0174 11.1026L57.1165 17.5705L58.2579 17.2001Z" fill="white"/>
<path d="M60.4616 14.0508C60.5701 14.768 60.6416 15.3829 60.676 15.8955C61.2691 14.468 61.7658 13.3302 62.166 12.4821C62.5769 11.6324 63.1175 10.6067 63.7879 9.40484L65.2908 9.17742L66.5045 17.1981L64.9858 17.4279L64.2724 12.7136C64.1846 12.1335 64.1331 11.6505 64.1178 11.2644C63.0829 13.2658 62.0539 15.5198 61.0308 18.0264L59.5437 18.2514L58.33 10.2308L59.8487 10.0009L60.4616 14.0508Z" fill="white"/>
<path d="M69.8272 17.0224L68.1633 17.0031L69.6773 14.7645C69.9493 14.309 70.2411 13.9816 70.5528 13.7826C69.4801 13.3755 68.95 12.6279 68.9626 11.54C68.9735 10.6014 69.2959 9.9331 69.9299 9.53508C70.5747 9.12652 71.505 8.92928 72.7209 8.94336L75.1848 8.97189L75.0908 17.0833L73.4749 17.0646L73.5081 14.2008L72.5002 14.1892C72.1695 14.1853 71.9129 14.241 71.7302 14.3562C71.5582 14.4716 71.3744 14.6828 71.1788 14.9899L69.8272 17.0224ZM73.5541 10.2331L72.6741 10.2229C71.9808 10.2149 71.4623 10.3155 71.1185 10.5249C70.7854 10.7344 70.6161 11.0791 70.6105 11.5591C70.6046 12.0711 70.7657 12.4356 71.0939 12.6528C71.4222 12.8592 71.9436 12.9666 72.6583 12.9749L73.5222 12.9849L73.5541 10.2331Z" fill="white"/>
<path d="M86.8135 10.7706L88.3896 11.1277L86.597 19.0391L85.021 18.682L85.615 16.0605C85.0793 16.0594 84.5306 15.9952 83.9688 15.8679C82.7829 15.5992 81.9921 15.1794 81.5964 14.6086C81.2112 14.04 81.1306 13.2616 81.3545 12.2734L81.945 9.66742L83.5366 10.0281L82.9532 12.6028C82.8236 13.175 82.8565 13.609 83.0519 13.9048C83.2602 14.1926 83.6764 14.4072 84.3005 14.5486C84.9247 14.6901 85.4642 14.7467 85.919 14.7185L86.8135 10.7706Z" fill="white"/>
<path d="M96.1692 17.4868C96.0573 17.7751 95.9081 18.1005 95.7217 18.463L90.6502 16.4947C90.1973 18.1038 90.7316 19.2037 92.253 19.7942C92.9789 20.0759 93.7647 20.2035 94.6102 20.177L94.3891 21.4985C93.5082 21.5571 92.5855 21.3992 91.6209 21.0248C90.4177 20.5578 89.5932 19.8374 89.1474 18.8634C88.7154 17.8834 88.7406 16.7719 89.223 15.5289C89.6784 14.3555 90.3702 13.5312 91.2982 13.0562C92.2302 12.5712 93.2381 12.539 94.322 12.9597C95.2866 13.3341 95.9277 13.9376 96.2452 14.7702C96.5728 15.6067 96.5474 16.5123 96.1692 17.4868ZM94.6809 16.9435C94.714 16.8877 94.7499 16.8101 94.7885 16.7106C94.9969 16.1736 95.0244 15.6752 94.8711 15.2152C94.7317 14.7492 94.3884 14.41 93.8415 14.1977C93.2648 13.9739 92.7291 13.9834 92.2344 14.2262C91.7535 14.4629 91.3509 14.8959 91.0265 15.5252L94.6809 16.9435Z" fill="white"/>
<path d="M100.26 25.1088L100.05 21.1199C99.4931 21.1703 98.9348 21.2016 98.3752 21.2136L97.1613 23.3394L95.7579 22.5381L99.7805 15.4937L101.184 16.2951L99.1527 19.852C100.296 19.8292 101.241 19.6688 101.989 19.3709C102.736 19.073 103.399 18.5793 103.977 17.8898L105.366 18.6832C104.577 19.8292 103.293 20.5705 101.517 20.9071L101.816 25.9974L100.26 25.1088Z" fill="white"/>
<path d="M104.524 28.3055C103.727 27.6799 103.253 27.023 103.102 26.3347C102.95 25.6464 103.098 25.017 103.546 24.4464C104.04 23.817 104.645 23.5123 105.362 23.5323C106.078 23.5522 106.81 23.8552 107.557 24.4413C108.035 24.8166 108.444 25.2118 108.783 25.6268L109.197 25.0981C109.909 24.1919 109.773 23.3535 108.791 22.583C108.179 22.1023 107.534 21.766 106.858 21.5741L107.406 20.357C108.185 20.5746 108.968 20.9929 109.757 21.6119C110.613 22.2836 111.091 23.0046 111.192 23.775C111.292 24.5454 111.026 25.3334 110.394 26.139L107.559 29.7514C106.577 29.604 105.565 29.122 104.524 28.3055ZM106.817 28.1316L108.111 26.4827C107.787 26.0659 107.432 25.7061 107.046 25.4031C106.14 24.692 105.41 24.6888 104.857 25.3937C104.33 26.065 104.507 26.7463 105.388 27.4378C105.9 27.8395 106.376 28.0707 106.817 28.1316Z" fill="white"/>
<circle cx="125" cy="45" r="2" fill="white"/>
<circle cx="17" cy="95" r="2" fill="white"/>
</svg>
