<svg width="64" height="64" viewBox="0 0 64 64" fill="none" xmlns="http://www.w3.org/2000/svg">
<rect x="1" y="1" width="62" height="62" rx="7" stroke="black" stroke-width="2"/>
<rect x="1" y="1" width="62" height="62" rx="7" stroke="url(#paint0_linear_1235_1155)" stroke-width="2"/>
<path d="M26.082 15.2698C23.0905 15.2698 20.3802 15.7229 18.3718 16.4786C17.3676 16.8565 16.5352 17.3053 15.9244 17.8479C15.3136 18.3905 14.9102 19.0624 14.9102 19.8067C14.9102 19.8252 14.9116 19.8422 14.9116 19.8607C14.9116 19.8649 14.9102 19.8692 14.9102 19.872V24.9288C14.9102 24.9472 14.9116 24.9643 14.9116 24.9828C14.9116 24.9884 14.9102 24.9927 14.9102 24.997V30.0537C14.9102 30.0736 14.9102 30.092 14.9116 30.1119V30.1133C14.9102 30.1162 14.9102 30.119 14.9102 30.1204V35.1801C14.9102 35.1986 14.9102 35.2184 14.9116 35.2369V35.2383C14.9102 35.2397 14.9102 35.2426 14.9102 35.2454V40.3051C14.9102 41.0068 15.2724 41.6446 15.8263 42.1687C16.3789 42.6928 17.1317 43.1318 18.0479 43.5068C19.8803 44.2568 22.3676 44.7369 25.1745 44.8264C25.3165 44.8321 25.4543 44.7795 25.558 44.6829C25.6617 44.5863 25.7214 44.4514 25.727 44.3093C25.7313 44.1673 25.6802 44.0295 25.5822 43.9258C25.4856 43.8221 25.352 43.761 25.21 43.7568C22.5069 43.6716 20.1191 43.1971 18.4558 42.5167C17.6234 42.1758 16.9743 41.7838 16.561 41.3917C16.1476 40.9996 15.98 40.6445 15.98 40.305V37.1829C16.5169 37.6459 17.2186 38.0423 18.0524 38.3832C19.8848 39.1332 22.3677 39.6133 25.1746 39.7014V39.7028C25.3166 39.707 25.4544 39.6559 25.5581 39.5579C25.6618 39.4613 25.7215 39.3278 25.7272 39.1858C25.7314 39.0437 25.6803 38.9059 25.5823 38.8022C25.4857 38.6985 25.3522 38.6374 25.2101 38.6332C22.507 38.548 20.1192 38.0735 18.4559 37.3931C17.6235 37.0522 16.9744 36.6602 16.5611 36.2681C16.1477 35.8761 15.9801 35.5209 15.9801 35.1814V32.0607C16.5156 32.5238 17.2144 32.9201 18.0483 33.261C19.8807 34.011 22.3679 34.4911 25.1748 34.5792V34.5778C25.3169 34.5835 25.4546 34.5309 25.5583 34.4343C25.662 34.3377 25.7217 34.2028 25.7274 34.0607C25.7316 33.9201 25.6805 33.7823 25.5825 33.6786C25.4859 33.5749 25.3524 33.5139 25.2103 33.5082C22.5072 33.423 20.1194 32.9485 18.4562 32.2681C17.6238 31.9272 16.9746 31.5352 16.5613 31.1431C16.1479 30.7511 15.9803 30.3917 15.9803 30.0536V26.9343C16.5854 27.4556 17.3979 27.8945 18.3723 28.261C20.3808 29.0167 23.0912 29.4655 26.0825 29.4655C29.074 29.4655 31.7829 29.0167 33.7912 28.261C34.7685 27.8931 35.5782 27.4541 36.1847 26.9315V27.5777L36.1833 27.5792C36.1833 27.8746 36.4205 28.1147 36.7159 28.1161C36.8594 28.1175 36.9958 28.0607 37.0966 27.9599C37.1975 27.859 37.2543 27.7226 37.2529 27.5792V19.8064C37.2529 19.0621 36.8452 18.3917 36.2344 17.8476C35.6236 17.305 34.7941 16.8561 33.7898 16.4783C31.7813 15.7227 29.0723 15.2695 26.0811 15.2695L26.082 15.2698ZM26.082 16.3408C28.9641 16.3408 31.5707 16.7854 33.4115 17.4772C34.3319 17.8238 35.0578 18.2357 35.5237 18.6505C35.9896 19.0653 36.1842 19.4459 36.1842 19.8067C36.1842 20.1675 35.9896 20.5497 35.5237 20.9644C35.0578 21.3792 34.3319 21.7897 33.4115 22.1363C31.5706 22.8281 28.9642 23.2741 26.082 23.2741C23.1999 23.2741 20.5918 22.8295 18.7511 22.1363C17.8307 21.7897 17.1048 21.3792 16.6389 20.9644C16.173 20.5496 15.9798 20.1675 15.9798 19.8067C15.9798 19.4459 16.173 19.0653 16.6389 18.6505C17.1048 18.2357 17.8306 17.8238 18.7511 17.4772C20.592 16.7854 23.1998 16.3408 26.082 16.3408ZM36.1842 21.8081V24.9302C36.1842 25.291 35.9896 25.676 35.5237 26.0907C35.0578 26.5055 34.3319 26.9132 33.4115 27.2598C31.5706 27.9515 28.9642 28.3961 26.082 28.3961C23.1999 28.3961 20.5918 27.9515 18.7511 27.2598C17.8307 26.9132 17.1048 26.5055 16.6389 26.0907C16.173 25.676 15.9798 25.291 15.9798 24.9302V21.8109C16.5849 22.3322 17.3974 22.7669 18.3718 23.1334C20.3803 23.889 23.0907 24.3422 26.082 24.3422C29.0735 24.3422 31.7824 23.889 33.7907 23.1334C34.768 22.7655 35.5777 22.3308 36.1842 21.8081ZM37.9683 29.1575C34.9768 29.1575 32.2679 29.6064 30.2595 30.3621C29.2553 30.7399 28.4215 31.1931 27.8107 31.7357C27.1999 32.2783 26.7964 32.9501 26.7964 33.6945C26.7964 33.7129 26.7979 33.73 26.7979 33.7484C26.7964 33.7527 26.7964 33.757 26.7964 33.7612V38.8179C26.7964 38.8364 26.7979 38.8549 26.7979 38.8733V38.8719C26.7964 38.8762 26.7964 38.8804 26.7964 38.8847V43.9414C26.7964 44.6858 27.1999 45.3562 27.8107 45.9002C28.4215 46.4428 29.2553 46.896 30.2595 47.2738C32.268 48.0295 34.977 48.4783 37.9683 48.4783C40.9598 48.4783 43.6657 48.0295 45.6741 47.2738C46.6783 46.8959 47.5107 46.4428 48.1215 45.9002C48.7323 45.3576 49.1358 44.6858 49.1358 43.9414V33.6942L49.1343 33.6927C49.1343 33.6757 49.1343 33.6572 49.1329 33.6402C49.1144 32.9172 48.7167 32.2652 48.1201 31.7353C47.5093 31.1927 46.6769 30.7396 45.6727 30.3618C43.6642 29.6061 40.9581 29.1572 37.9668 29.1572L37.9683 29.1575ZM37.9683 30.2271C40.8504 30.2271 43.4584 30.6718 45.2992 31.3649C46.2196 31.7115 46.9455 32.1178 47.4114 32.5325C47.8773 32.9473 48.0662 33.3337 48.0662 33.6945C48.0662 34.0552 47.8773 34.4359 47.4114 34.8507C46.9455 35.2655 46.2196 35.6731 45.2992 36.0197C43.4583 36.7115 40.8504 37.1603 37.9683 37.1603C35.0862 37.1603 32.4755 36.7129 30.6344 36.0197C29.714 35.6731 28.9882 35.2655 28.5222 34.8507C28.0563 34.4359 27.866 34.0553 27.866 33.6945C27.866 33.3337 28.0563 32.9473 28.5222 32.5325C28.9881 32.1178 29.714 31.7115 30.6344 31.3649C32.4754 30.6732 35.0861 30.2271 37.9683 30.2271ZM27.8661 35.6959C28.4712 36.2172 29.2837 36.6561 30.2595 37.0226C32.268 37.7782 34.977 38.2299 37.9683 38.2299C40.9598 38.2299 43.6657 37.7782 45.6741 37.0226C46.6485 36.6561 47.461 36.2172 48.0661 35.6959V38.818C48.0661 39.1788 47.8772 39.5609 47.4113 39.9757C46.9454 40.3905 46.2195 40.801 45.2991 41.1476C43.4582 41.8393 40.8503 42.2854 37.9682 42.2854C35.086 42.2854 32.4754 41.8407 30.6343 41.1476C29.7139 40.801 28.988 40.3905 28.5221 39.9757C28.0562 39.5609 27.8659 39.1788 27.8659 38.818L27.8661 35.6959ZM27.8661 40.8239C28.4712 41.3452 29.2837 41.7798 30.2595 42.1463C32.268 42.902 34.977 43.3551 37.9683 43.3551C40.9598 43.3551 43.6657 42.902 45.6741 42.1463C46.6485 41.7798 47.461 41.3452 48.0661 40.8239V43.9432C48.0661 44.304 47.8772 44.6861 47.4113 45.1009C46.9454 45.5156 46.2195 45.9261 45.2991 46.2727C43.4582 46.9645 40.8503 47.4105 37.9682 47.4105C35.086 47.4105 32.4754 46.9659 30.6343 46.2727C29.7139 45.9262 28.988 45.5156 28.5221 45.1009C28.0562 44.6861 27.8659 44.304 27.8659 43.9432L27.8661 40.8239Z" fill="black"/>
<path d="M26.082 15.2698C23.0905 15.2698 20.3802 15.7229 18.3718 16.4786C17.3676 16.8565 16.5352 17.3053 15.9244 17.8479C15.3136 18.3905 14.9102 19.0624 14.9102 19.8067C14.9102 19.8252 14.9116 19.8422 14.9116 19.8607C14.9116 19.8649 14.9102 19.8692 14.9102 19.872V24.9288C14.9102 24.9472 14.9116 24.9643 14.9116 24.9828C14.9116 24.9884 14.9102 24.9927 14.9102 24.997V30.0537C14.9102 30.0736 14.9102 30.092 14.9116 30.1119V30.1133C14.9102 30.1162 14.9102 30.119 14.9102 30.1204V35.1801C14.9102 35.1986 14.9102 35.2184 14.9116 35.2369V35.2383C14.9102 35.2397 14.9102 35.2426 14.9102 35.2454V40.3051C14.9102 41.0068 15.2724 41.6446 15.8263 42.1687C16.3789 42.6928 17.1317 43.1318 18.0479 43.5068C19.8803 44.2568 22.3676 44.7369 25.1745 44.8264C25.3165 44.8321 25.4543 44.7795 25.558 44.6829C25.6617 44.5863 25.7214 44.4514 25.727 44.3093C25.7313 44.1673 25.6802 44.0295 25.5822 43.9258C25.4856 43.8221 25.352 43.761 25.21 43.7568C22.5069 43.6716 20.1191 43.1971 18.4558 42.5167C17.6234 42.1758 16.9743 41.7838 16.561 41.3917C16.1476 40.9996 15.98 40.6445 15.98 40.305V37.1829C16.5169 37.6459 17.2186 38.0423 18.0524 38.3832C19.8848 39.1332 22.3677 39.6133 25.1746 39.7014V39.7028C25.3166 39.707 25.4544 39.6559 25.5581 39.5579C25.6618 39.4613 25.7215 39.3278 25.7272 39.1858C25.7314 39.0437 25.6803 38.9059 25.5823 38.8022C25.4857 38.6985 25.3522 38.6374 25.2101 38.6332C22.507 38.548 20.1192 38.0735 18.4559 37.3931C17.6235 37.0522 16.9744 36.6602 16.5611 36.2681C16.1477 35.8761 15.9801 35.5209 15.9801 35.1814V32.0607C16.5156 32.5238 17.2144 32.9201 18.0483 33.261C19.8807 34.011 22.3679 34.4911 25.1748 34.5792V34.5778C25.3169 34.5835 25.4546 34.5309 25.5583 34.4343C25.662 34.3377 25.7217 34.2028 25.7274 34.0607C25.7316 33.9201 25.6805 33.7823 25.5825 33.6786C25.4859 33.5749 25.3524 33.5139 25.2103 33.5082C22.5072 33.423 20.1194 32.9485 18.4562 32.2681C17.6238 31.9272 16.9746 31.5352 16.5613 31.1431C16.1479 30.7511 15.9803 30.3917 15.9803 30.0536V26.9343C16.5854 27.4556 17.3979 27.8945 18.3723 28.261C20.3808 29.0167 23.0912 29.4655 26.0825 29.4655C29.074 29.4655 31.7829 29.0167 33.7912 28.261C34.7685 27.8931 35.5782 27.4541 36.1847 26.9315V27.5777L36.1833 27.5792C36.1833 27.8746 36.4205 28.1147 36.7159 28.1161C36.8594 28.1175 36.9958 28.0607 37.0966 27.9599C37.1975 27.859 37.2543 27.7226 37.2529 27.5792V19.8064C37.2529 19.0621 36.8452 18.3917 36.2344 17.8476C35.6236 17.305 34.7941 16.8561 33.7898 16.4783C31.7813 15.7227 29.0723 15.2695 26.0811 15.2695L26.082 15.2698ZM26.082 16.3408C28.9641 16.3408 31.5707 16.7854 33.4115 17.4772C34.3319 17.8238 35.0578 18.2357 35.5237 18.6505C35.9896 19.0653 36.1842 19.4459 36.1842 19.8067C36.1842 20.1675 35.9896 20.5497 35.5237 20.9644C35.0578 21.3792 34.3319 21.7897 33.4115 22.1363C31.5706 22.8281 28.9642 23.2741 26.082 23.2741C23.1999 23.2741 20.5918 22.8295 18.7511 22.1363C17.8307 21.7897 17.1048 21.3792 16.6389 20.9644C16.173 20.5496 15.9798 20.1675 15.9798 19.8067C15.9798 19.4459 16.173 19.0653 16.6389 18.6505C17.1048 18.2357 17.8306 17.8238 18.7511 17.4772C20.592 16.7854 23.1998 16.3408 26.082 16.3408ZM36.1842 21.8081V24.9302C36.1842 25.291 35.9896 25.676 35.5237 26.0907C35.0578 26.5055 34.3319 26.9132 33.4115 27.2598C31.5706 27.9515 28.9642 28.3961 26.082 28.3961C23.1999 28.3961 20.5918 27.9515 18.7511 27.2598C17.8307 26.9132 17.1048 26.5055 16.6389 26.0907C16.173 25.676 15.9798 25.291 15.9798 24.9302V21.8109C16.5849 22.3322 17.3974 22.7669 18.3718 23.1334C20.3803 23.889 23.0907 24.3422 26.082 24.3422C29.0735 24.3422 31.7824 23.889 33.7907 23.1334C34.768 22.7655 35.5777 22.3308 36.1842 21.8081ZM37.9683 29.1575C34.9768 29.1575 32.2679 29.6064 30.2595 30.3621C29.2553 30.7399 28.4215 31.1931 27.8107 31.7357C27.1999 32.2783 26.7964 32.9501 26.7964 33.6945C26.7964 33.7129 26.7979 33.73 26.7979 33.7484C26.7964 33.7527 26.7964 33.757 26.7964 33.7612V38.8179C26.7964 38.8364 26.7979 38.8549 26.7979 38.8733V38.8719C26.7964 38.8762 26.7964 38.8804 26.7964 38.8847V43.9414C26.7964 44.6858 27.1999 45.3562 27.8107 45.9002C28.4215 46.4428 29.2553 46.896 30.2595 47.2738C32.268 48.0295 34.977 48.4783 37.9683 48.4783C40.9598 48.4783 43.6657 48.0295 45.6741 47.2738C46.6783 46.8959 47.5107 46.4428 48.1215 45.9002C48.7323 45.3576 49.1358 44.6858 49.1358 43.9414V33.6942L49.1343 33.6927C49.1343 33.6757 49.1343 33.6572 49.1329 33.6402C49.1144 32.9172 48.7167 32.2652 48.1201 31.7353C47.5093 31.1927 46.6769 30.7396 45.6727 30.3618C43.6642 29.6061 40.9581 29.1572 37.9668 29.1572L37.9683 29.1575ZM37.9683 30.2271C40.8504 30.2271 43.4584 30.6718 45.2992 31.3649C46.2196 31.7115 46.9455 32.1178 47.4114 32.5325C47.8773 32.9473 48.0662 33.3337 48.0662 33.6945C48.0662 34.0552 47.8773 34.4359 47.4114 34.8507C46.9455 35.2655 46.2196 35.6731 45.2992 36.0197C43.4583 36.7115 40.8504 37.1603 37.9683 37.1603C35.0862 37.1603 32.4755 36.7129 30.6344 36.0197C29.714 35.6731 28.9882 35.2655 28.5222 34.8507C28.0563 34.4359 27.866 34.0553 27.866 33.6945C27.866 33.3337 28.0563 32.9473 28.5222 32.5325C28.9881 32.1178 29.714 31.7115 30.6344 31.3649C32.4754 30.6732 35.0861 30.2271 37.9683 30.2271ZM27.8661 35.6959C28.4712 36.2172 29.2837 36.6561 30.2595 37.0226C32.268 37.7782 34.977 38.2299 37.9683 38.2299C40.9598 38.2299 43.6657 37.7782 45.6741 37.0226C46.6485 36.6561 47.461 36.2172 48.0661 35.6959V38.818C48.0661 39.1788 47.8772 39.5609 47.4113 39.9757C46.9454 40.3905 46.2195 40.801 45.2991 41.1476C43.4582 41.8393 40.8503 42.2854 37.9682 42.2854C35.086 42.2854 32.4754 41.8407 30.6343 41.1476C29.7139 40.801 28.988 40.3905 28.5221 39.9757C28.0562 39.5609 27.8659 39.1788 27.8659 38.818L27.8661 35.6959ZM27.8661 40.8239C28.4712 41.3452 29.2837 41.7798 30.2595 42.1463C32.268 42.902 34.977 43.3551 37.9683 43.3551C40.9598 43.3551 43.6657 42.902 45.6741 42.1463C46.6485 41.7798 47.461 41.3452 48.0661 40.8239V43.9432C48.0661 44.304 47.8772 44.6861 47.4113 45.1009C46.9454 45.5156 46.2195 45.9261 45.2991 46.2727C43.4582 46.9645 40.8503 47.4105 37.9682 47.4105C35.086 47.4105 32.4754 46.9659 30.6343 46.2727C29.7139 45.9262 28.988 45.5156 28.5221 45.1009C28.0562 44.6861 27.8659 44.304 27.8659 43.9432L27.8661 40.8239Z" fill="url(#paint1_linear_1235_1155)"/>
<path d="M26.082 15.2698C23.0905 15.2698 20.3802 15.7229 18.3718 16.4786C17.3676 16.8565 16.5352 17.3053 15.9244 17.8479C15.3136 18.3905 14.9102 19.0624 14.9102 19.8067C14.9102 19.8252 14.9116 19.8422 14.9116 19.8607C14.9116 19.8649 14.9102 19.8692 14.9102 19.872V24.9288C14.9102 24.9472 14.9116 24.9643 14.9116 24.9828C14.9116 24.9884 14.9102 24.9927 14.9102 24.997V30.0537C14.9102 30.0736 14.9102 30.092 14.9116 30.1119V30.1133C14.9102 30.1162 14.9102 30.119 14.9102 30.1204V35.1801C14.9102 35.1986 14.9102 35.2184 14.9116 35.2369V35.2383C14.9102 35.2397 14.9102 35.2426 14.9102 35.2454V40.3051C14.9102 41.0068 15.2724 41.6446 15.8263 42.1687C16.3789 42.6928 17.1317 43.1318 18.0479 43.5068C19.8803 44.2568 22.3676 44.7369 25.1745 44.8264C25.3165 44.8321 25.4543 44.7795 25.558 44.6829C25.6617 44.5863 25.7214 44.4514 25.727 44.3093C25.7313 44.1673 25.6802 44.0295 25.5822 43.9258C25.4856 43.8221 25.352 43.761 25.21 43.7568C22.5069 43.6716 20.1191 43.1971 18.4558 42.5167C17.6234 42.1758 16.9743 41.7838 16.561 41.3917C16.1476 40.9996 15.98 40.6445 15.98 40.305V37.1829C16.5169 37.6459 17.2186 38.0423 18.0524 38.3832C19.8848 39.1332 22.3677 39.6133 25.1746 39.7014V39.7028C25.3166 39.707 25.4544 39.6559 25.5581 39.5579C25.6618 39.4613 25.7215 39.3278 25.7272 39.1858C25.7314 39.0437 25.6803 38.9059 25.5823 38.8022C25.4857 38.6985 25.3522 38.6374 25.2101 38.6332C22.507 38.548 20.1192 38.0735 18.4559 37.3931C17.6235 37.0522 16.9744 36.6602 16.5611 36.2681C16.1477 35.8761 15.9801 35.5209 15.9801 35.1814V32.0607C16.5156 32.5238 17.2144 32.9201 18.0483 33.261C19.8807 34.011 22.3679 34.4911 25.1748 34.5792V34.5778C25.3169 34.5835 25.4546 34.5309 25.5583 34.4343C25.662 34.3377 25.7217 34.2028 25.7274 34.0607C25.7316 33.9201 25.6805 33.7823 25.5825 33.6786C25.4859 33.5749 25.3524 33.5139 25.2103 33.5082C22.5072 33.423 20.1194 32.9485 18.4562 32.2681C17.6238 31.9272 16.9746 31.5352 16.5613 31.1431C16.1479 30.7511 15.9803 30.3917 15.9803 30.0536V26.9343C16.5854 27.4556 17.3979 27.8945 18.3723 28.261C20.3808 29.0167 23.0912 29.4655 26.0825 29.4655C29.074 29.4655 31.7829 29.0167 33.7912 28.261C34.7685 27.8931 35.5782 27.4541 36.1847 26.9315V27.5777L36.1833 27.5792C36.1833 27.8746 36.4205 28.1147 36.7159 28.1161C36.8594 28.1175 36.9958 28.0607 37.0966 27.9599C37.1975 27.859 37.2543 27.7226 37.2529 27.5792V19.8064C37.2529 19.0621 36.8452 18.3917 36.2344 17.8476C35.6236 17.305 34.7941 16.8561 33.7898 16.4783C31.7813 15.7227 29.0723 15.2695 26.0811 15.2695L26.082 15.2698ZM26.082 16.3408C28.9641 16.3408 31.5707 16.7854 33.4115 17.4772C34.3319 17.8238 35.0578 18.2357 35.5237 18.6505C35.9896 19.0653 36.1842 19.4459 36.1842 19.8067C36.1842 20.1675 35.9896 20.5497 35.5237 20.9644C35.0578 21.3792 34.3319 21.7897 33.4115 22.1363C31.5706 22.8281 28.9642 23.2741 26.082 23.2741C23.1999 23.2741 20.5918 22.8295 18.7511 22.1363C17.8307 21.7897 17.1048 21.3792 16.6389 20.9644C16.173 20.5496 15.9798 20.1675 15.9798 19.8067C15.9798 19.4459 16.173 19.0653 16.6389 18.6505C17.1048 18.2357 17.8306 17.8238 18.7511 17.4772C20.592 16.7854 23.1998 16.3408 26.082 16.3408ZM36.1842 21.8081V24.9302C36.1842 25.291 35.9896 25.676 35.5237 26.0907C35.0578 26.5055 34.3319 26.9132 33.4115 27.2598C31.5706 27.9515 28.9642 28.3961 26.082 28.3961C23.1999 28.3961 20.5918 27.9515 18.7511 27.2598C17.8307 26.9132 17.1048 26.5055 16.6389 26.0907C16.173 25.676 15.9798 25.291 15.9798 24.9302V21.8109C16.5849 22.3322 17.3974 22.7669 18.3718 23.1334C20.3803 23.889 23.0907 24.3422 26.082 24.3422C29.0735 24.3422 31.7824 23.889 33.7907 23.1334C34.768 22.7655 35.5777 22.3308 36.1842 21.8081ZM37.9683 29.1575C34.9768 29.1575 32.2679 29.6064 30.2595 30.3621C29.2553 30.7399 28.4215 31.1931 27.8107 31.7357C27.1999 32.2783 26.7964 32.9501 26.7964 33.6945C26.7964 33.7129 26.7979 33.73 26.7979 33.7484C26.7964 33.7527 26.7964 33.757 26.7964 33.7612V38.8179C26.7964 38.8364 26.7979 38.8549 26.7979 38.8733V38.8719C26.7964 38.8762 26.7964 38.8804 26.7964 38.8847V43.9414C26.7964 44.6858 27.1999 45.3562 27.8107 45.9002C28.4215 46.4428 29.2553 46.896 30.2595 47.2738C32.268 48.0295 34.977 48.4783 37.9683 48.4783C40.9598 48.4783 43.6657 48.0295 45.6741 47.2738C46.6783 46.8959 47.5107 46.4428 48.1215 45.9002C48.7323 45.3576 49.1358 44.6858 49.1358 43.9414V33.6942L49.1343 33.6927C49.1343 33.6757 49.1343 33.6572 49.1329 33.6402C49.1144 32.9172 48.7167 32.2652 48.1201 31.7353C47.5093 31.1927 46.6769 30.7396 45.6727 30.3618C43.6642 29.6061 40.9581 29.1572 37.9668 29.1572L37.9683 29.1575ZM37.9683 30.2271C40.8504 30.2271 43.4584 30.6718 45.2992 31.3649C46.2196 31.7115 46.9455 32.1178 47.4114 32.5325C47.8773 32.9473 48.0662 33.3337 48.0662 33.6945C48.0662 34.0552 47.8773 34.4359 47.4114 34.8507C46.9455 35.2655 46.2196 35.6731 45.2992 36.0197C43.4583 36.7115 40.8504 37.1603 37.9683 37.1603C35.0862 37.1603 32.4755 36.7129 30.6344 36.0197C29.714 35.6731 28.9882 35.2655 28.5222 34.8507C28.0563 34.4359 27.866 34.0553 27.866 33.6945C27.866 33.3337 28.0563 32.9473 28.5222 32.5325C28.9881 32.1178 29.714 31.7115 30.6344 31.3649C32.4754 30.6732 35.0861 30.2271 37.9683 30.2271ZM27.8661 35.6959C28.4712 36.2172 29.2837 36.6561 30.2595 37.0226C32.268 37.7782 34.977 38.2299 37.9683 38.2299C40.9598 38.2299 43.6657 37.7782 45.6741 37.0226C46.6485 36.6561 47.461 36.2172 48.0661 35.6959V38.818C48.0661 39.1788 47.8772 39.5609 47.4113 39.9757C46.9454 40.3905 46.2195 40.801 45.2991 41.1476C43.4582 41.8393 40.8503 42.2854 37.9682 42.2854C35.086 42.2854 32.4754 41.8407 30.6343 41.1476C29.7139 40.801 28.988 40.3905 28.5221 39.9757C28.0562 39.5609 27.8659 39.1788 27.8659 38.818L27.8661 35.6959ZM27.8661 40.8239C28.4712 41.3452 29.2837 41.7798 30.2595 42.1463C32.268 42.902 34.977 43.3551 37.9683 43.3551C40.9598 43.3551 43.6657 42.902 45.6741 42.1463C46.6485 41.7798 47.461 41.3452 48.0661 40.8239V43.9432C48.0661 44.304 47.8772 44.6861 47.4113 45.1009C46.9454 45.5156 46.2195 45.9261 45.2991 46.2727C43.4582 46.9645 40.8503 47.4105 37.9682 47.4105C35.086 47.4105 32.4754 46.9659 30.6343 46.2727C29.7139 45.9262 28.988 45.5156 28.5221 45.1009C28.0562 44.6861 27.8659 44.304 27.8659 43.9432L27.8661 40.8239Z" stroke="black"/>
<path d="M26.082 15.2698C23.0905 15.2698 20.3802 15.7229 18.3718 16.4786C17.3676 16.8565 16.5352 17.3053 15.9244 17.8479C15.3136 18.3905 14.9102 19.0624 14.9102 19.8067C14.9102 19.8252 14.9116 19.8422 14.9116 19.8607C14.9116 19.8649 14.9102 19.8692 14.9102 19.872V24.9288C14.9102 24.9472 14.9116 24.9643 14.9116 24.9828C14.9116 24.9884 14.9102 24.9927 14.9102 24.997V30.0537C14.9102 30.0736 14.9102 30.092 14.9116 30.1119V30.1133C14.9102 30.1162 14.9102 30.119 14.9102 30.1204V35.1801C14.9102 35.1986 14.9102 35.2184 14.9116 35.2369V35.2383C14.9102 35.2397 14.9102 35.2426 14.9102 35.2454V40.3051C14.9102 41.0068 15.2724 41.6446 15.8263 42.1687C16.3789 42.6928 17.1317 43.1318 18.0479 43.5068C19.8803 44.2568 22.3676 44.7369 25.1745 44.8264C25.3165 44.8321 25.4543 44.7795 25.558 44.6829C25.6617 44.5863 25.7214 44.4514 25.727 44.3093C25.7313 44.1673 25.6802 44.0295 25.5822 43.9258C25.4856 43.8221 25.352 43.761 25.21 43.7568C22.5069 43.6716 20.1191 43.1971 18.4558 42.5167C17.6234 42.1758 16.9743 41.7838 16.561 41.3917C16.1476 40.9996 15.98 40.6445 15.98 40.305V37.1829C16.5169 37.6459 17.2186 38.0423 18.0524 38.3832C19.8848 39.1332 22.3677 39.6133 25.1746 39.7014V39.7028C25.3166 39.707 25.4544 39.6559 25.5581 39.5579C25.6618 39.4613 25.7215 39.3278 25.7272 39.1858C25.7314 39.0437 25.6803 38.9059 25.5823 38.8022C25.4857 38.6985 25.3522 38.6374 25.2101 38.6332C22.507 38.548 20.1192 38.0735 18.4559 37.3931C17.6235 37.0522 16.9744 36.6602 16.5611 36.2681C16.1477 35.8761 15.9801 35.5209 15.9801 35.1814V32.0607C16.5156 32.5238 17.2144 32.9201 18.0483 33.261C19.8807 34.011 22.3679 34.4911 25.1748 34.5792V34.5778C25.3169 34.5835 25.4546 34.5309 25.5583 34.4343C25.662 34.3377 25.7217 34.2028 25.7274 34.0607C25.7316 33.9201 25.6805 33.7823 25.5825 33.6786C25.4859 33.5749 25.3524 33.5139 25.2103 33.5082C22.5072 33.423 20.1194 32.9485 18.4562 32.2681C17.6238 31.9272 16.9746 31.5352 16.5613 31.1431C16.1479 30.7511 15.9803 30.3917 15.9803 30.0536V26.9343C16.5854 27.4556 17.3979 27.8945 18.3723 28.261C20.3808 29.0167 23.0912 29.4655 26.0825 29.4655C29.074 29.4655 31.7829 29.0167 33.7912 28.261C34.7685 27.8931 35.5782 27.4541 36.1847 26.9315V27.5777L36.1833 27.5792C36.1833 27.8746 36.4205 28.1147 36.7159 28.1161C36.8594 28.1175 36.9958 28.0607 37.0966 27.9599C37.1975 27.859 37.2543 27.7226 37.2529 27.5792V19.8064C37.2529 19.0621 36.8452 18.3917 36.2344 17.8476C35.6236 17.305 34.7941 16.8561 33.7898 16.4783C31.7813 15.7227 29.0723 15.2695 26.0811 15.2695L26.082 15.2698ZM26.082 16.3408C28.9641 16.3408 31.5707 16.7854 33.4115 17.4772C34.3319 17.8238 35.0578 18.2357 35.5237 18.6505C35.9896 19.0653 36.1842 19.4459 36.1842 19.8067C36.1842 20.1675 35.9896 20.5497 35.5237 20.9644C35.0578 21.3792 34.3319 21.7897 33.4115 22.1363C31.5706 22.8281 28.9642 23.2741 26.082 23.2741C23.1999 23.2741 20.5918 22.8295 18.7511 22.1363C17.8307 21.7897 17.1048 21.3792 16.6389 20.9644C16.173 20.5496 15.9798 20.1675 15.9798 19.8067C15.9798 19.4459 16.173 19.0653 16.6389 18.6505C17.1048 18.2357 17.8306 17.8238 18.7511 17.4772C20.592 16.7854 23.1998 16.3408 26.082 16.3408ZM36.1842 21.8081V24.9302C36.1842 25.291 35.9896 25.676 35.5237 26.0907C35.0578 26.5055 34.3319 26.9132 33.4115 27.2598C31.5706 27.9515 28.9642 28.3961 26.082 28.3961C23.1999 28.3961 20.5918 27.9515 18.7511 27.2598C17.8307 26.9132 17.1048 26.5055 16.6389 26.0907C16.173 25.676 15.9798 25.291 15.9798 24.9302V21.8109C16.5849 22.3322 17.3974 22.7669 18.3718 23.1334C20.3803 23.889 23.0907 24.3422 26.082 24.3422C29.0735 24.3422 31.7824 23.889 33.7907 23.1334C34.768 22.7655 35.5777 22.3308 36.1842 21.8081ZM37.9683 29.1575C34.9768 29.1575 32.2679 29.6064 30.2595 30.3621C29.2553 30.7399 28.4215 31.1931 27.8107 31.7357C27.1999 32.2783 26.7964 32.9501 26.7964 33.6945C26.7964 33.7129 26.7979 33.73 26.7979 33.7484C26.7964 33.7527 26.7964 33.757 26.7964 33.7612V38.8179C26.7964 38.8364 26.7979 38.8549 26.7979 38.8733V38.8719C26.7964 38.8762 26.7964 38.8804 26.7964 38.8847V43.9414C26.7964 44.6858 27.1999 45.3562 27.8107 45.9002C28.4215 46.4428 29.2553 46.896 30.2595 47.2738C32.268 48.0295 34.977 48.4783 37.9683 48.4783C40.9598 48.4783 43.6657 48.0295 45.6741 47.2738C46.6783 46.8959 47.5107 46.4428 48.1215 45.9002C48.7323 45.3576 49.1358 44.6858 49.1358 43.9414V33.6942L49.1343 33.6927C49.1343 33.6757 49.1343 33.6572 49.1329 33.6402C49.1144 32.9172 48.7167 32.2652 48.1201 31.7353C47.5093 31.1927 46.6769 30.7396 45.6727 30.3618C43.6642 29.6061 40.9581 29.1572 37.9668 29.1572L37.9683 29.1575ZM37.9683 30.2271C40.8504 30.2271 43.4584 30.6718 45.2992 31.3649C46.2196 31.7115 46.9455 32.1178 47.4114 32.5325C47.8773 32.9473 48.0662 33.3337 48.0662 33.6945C48.0662 34.0552 47.8773 34.4359 47.4114 34.8507C46.9455 35.2655 46.2196 35.6731 45.2992 36.0197C43.4583 36.7115 40.8504 37.1603 37.9683 37.1603C35.0862 37.1603 32.4755 36.7129 30.6344 36.0197C29.714 35.6731 28.9882 35.2655 28.5222 34.8507C28.0563 34.4359 27.866 34.0553 27.866 33.6945C27.866 33.3337 28.0563 32.9473 28.5222 32.5325C28.9881 32.1178 29.714 31.7115 30.6344 31.3649C32.4754 30.6732 35.0861 30.2271 37.9683 30.2271ZM27.8661 35.6959C28.4712 36.2172 29.2837 36.6561 30.2595 37.0226C32.268 37.7782 34.977 38.2299 37.9683 38.2299C40.9598 38.2299 43.6657 37.7782 45.6741 37.0226C46.6485 36.6561 47.461 36.2172 48.0661 35.6959V38.818C48.0661 39.1788 47.8772 39.5609 47.4113 39.9757C46.9454 40.3905 46.2195 40.801 45.2991 41.1476C43.4582 41.8393 40.8503 42.2854 37.9682 42.2854C35.086 42.2854 32.4754 41.8407 30.6343 41.1476C29.7139 40.801 28.988 40.3905 28.5221 39.9757C28.0562 39.5609 27.8659 39.1788 27.8659 38.818L27.8661 35.6959ZM27.8661 40.8239C28.4712 41.3452 29.2837 41.7798 30.2595 42.1463C32.268 42.902 34.977 43.3551 37.9683 43.3551C40.9598 43.3551 43.6657 42.902 45.6741 42.1463C46.6485 41.7798 47.461 41.3452 48.0661 40.8239V43.9432C48.0661 44.304 47.8772 44.6861 47.4113 45.1009C46.9454 45.5156 46.2195 45.9261 45.2991 46.2727C43.4582 46.9645 40.8503 47.4105 37.9682 47.4105C35.086 47.4105 32.4754 46.9659 30.6343 46.2727C29.7139 45.9262 28.988 45.5156 28.5221 45.1009C28.0562 44.6861 27.8659 44.304 27.8659 43.9432L27.8661 40.8239Z" stroke="url(#paint2_linear_1235_1155)"/>
<defs>
<linearGradient id="paint0_linear_1235_1155" x1="43.8214" y1="66.7312" x2="-14.1684" y2="39.8382" gradientUnits="userSpaceOnUse">
<stop stop-color="#F9A825"/>
<stop offset="1" stop-color="#FF3D00"/>
</linearGradient>
<linearGradient id="paint1_linear_1235_1155" x1="38.3448" y1="49.8955" x2="7.67083" y2="35.2348" gradientUnits="userSpaceOnUse">
<stop stop-color="#F9A825"/>
<stop offset="1" stop-color="#FF3D00"/>
</linearGradient>
<linearGradient id="paint2_linear_1235_1155" x1="38.3448" y1="49.8955" x2="7.67083" y2="35.2348" gradientUnits="userSpaceOnUse">
<stop stop-color="#F9A825"/>
<stop offset="1" stop-color="#FF3D00"/>
</linearGradient>
</defs>
</svg>
