<svg width="64" height="64" viewBox="0 0 64 64" fill="none" xmlns="http://www.w3.org/2000/svg">
<rect x="1" y="1" width="62" height="62" rx="7" stroke="black" stroke-width="2"/>
<rect x="1" y="1" width="62" height="62" rx="7" stroke="url(#paint0_linear_1235_1160)" stroke-width="2"/>
<path d="M48.0848 46.8709H47.6803V31.9209C47.6803 31.2512 47.1378 30.7088 46.4681 30.7088C45.7984 30.7088 45.256 31.2512 45.256 31.9209V46.8709H41.2151V36.7694C41.2151 35.2103 39.9454 33.9406 38.3863 33.9406H25.4575C23.8984 33.9406 22.6287 35.2103 22.6287 36.7694V46.8709H18.5878V31.9209C18.5878 31.2512 18.0454 30.7088 17.3757 30.7088C16.706 30.7088 16.1636 31.2512 16.1636 31.9209V46.8709H15.759C15.0893 46.8709 14.5469 47.4134 14.5469 48.0831C14.5469 48.7528 15.0893 49.2952 15.759 49.2952H48.0817C48.7514 49.2952 49.2938 48.7528 49.2938 48.0831C49.2938 47.4134 48.7514 46.8709 48.0817 46.8709H48.0848ZM38.7908 36.7694V46.8709H33.1348V36.3664H38.3878C38.6106 36.3664 38.7924 36.5482 38.7924 36.771L38.7908 36.7694ZM25.0545 36.7694C25.0545 36.5467 25.2363 36.3649 25.4591 36.3649H30.7121V46.8694H25.0561V36.7679L25.0545 36.7694ZM16.8757 28.2846H27.265C28.5605 29.283 30.1635 29.9012 31.9211 29.9012C33.6802 29.9012 35.2817 29.283 36.5772 28.2846H46.9666C47.6135 28.2846 48.2241 27.974 48.5999 27.4513C48.9787 26.9255 49.0832 26.2437 48.8771 25.624L46.7408 19.1984C46.1211 17.3832 44.4256 16.1636 42.5226 16.1636H36.5772C35.2818 15.1651 33.6787 14.5469 31.9211 14.5469C30.162 14.5469 28.5605 15.1651 27.265 16.1636H21.3196C19.4166 16.1636 17.7211 17.3832 17.0983 19.2075L14.9665 25.6195C14.7604 26.2392 14.862 26.9226 15.2407 27.4468C15.618 27.971 16.2286 28.2831 16.8756 28.2831L16.8757 28.2846ZM44.4453 19.9708L46.4044 25.8603H38.6422C39.2331 24.7724 39.5998 23.5467 39.5998 22.224C39.5998 20.9012 39.2331 19.6755 38.6422 18.5876H42.5241C43.3908 18.5876 44.1636 19.148 44.4453 19.9708ZM37.1757 22.2238C37.1757 25.1192 34.8197 27.4769 31.9227 27.4769C29.0272 27.4769 26.6696 25.1208 26.6696 22.2238C26.6696 19.3284 29.0257 16.9708 31.9227 16.9708C34.8181 16.9708 37.1757 19.3268 37.1757 22.2238ZM19.3969 19.9814C19.6818 19.1481 20.453 18.5874 21.3196 18.5874H25.2031C24.6122 19.6753 24.2455 20.9011 24.2455 22.2238C24.2455 23.5466 24.6121 24.7723 25.2031 25.8602H17.4424L19.3969 19.9814ZM29.0939 22.2238C29.0939 21.5541 29.6363 21.0117 30.306 21.0117H30.7106V20.6071C30.7106 19.9374 31.253 19.395 31.9227 19.395C32.5924 19.395 33.1348 19.9374 33.1348 20.6071V21.0117H33.5394C34.2091 21.0117 34.7515 21.5541 34.7515 22.2238C34.7515 22.8935 34.2091 23.4359 33.5394 23.4359H33.1348V23.8405C33.1348 24.5102 32.5924 25.0526 31.9227 25.0526C31.253 25.0526 30.7106 24.5102 30.7106 23.8405V23.4359H30.306C29.6363 23.4359 29.0939 22.8935 29.0939 22.2238Z" fill="black"/>
<path d="M48.0848 46.8709H47.6803V31.9209C47.6803 31.2512 47.1378 30.7088 46.4681 30.7088C45.7984 30.7088 45.256 31.2512 45.256 31.9209V46.8709H41.2151V36.7694C41.2151 35.2103 39.9454 33.9406 38.3863 33.9406H25.4575C23.8984 33.9406 22.6287 35.2103 22.6287 36.7694V46.8709H18.5878V31.9209C18.5878 31.2512 18.0454 30.7088 17.3757 30.7088C16.706 30.7088 16.1636 31.2512 16.1636 31.9209V46.8709H15.759C15.0893 46.8709 14.5469 47.4134 14.5469 48.0831C14.5469 48.7528 15.0893 49.2952 15.759 49.2952H48.0817C48.7514 49.2952 49.2938 48.7528 49.2938 48.0831C49.2938 47.4134 48.7514 46.8709 48.0817 46.8709H48.0848ZM38.7908 36.7694V46.8709H33.1348V36.3664H38.3878C38.6106 36.3664 38.7924 36.5482 38.7924 36.771L38.7908 36.7694ZM25.0545 36.7694C25.0545 36.5467 25.2363 36.3649 25.4591 36.3649H30.7121V46.8694H25.0561V36.7679L25.0545 36.7694ZM16.8757 28.2846H27.265C28.5605 29.283 30.1635 29.9012 31.9211 29.9012C33.6802 29.9012 35.2817 29.283 36.5772 28.2846H46.9666C47.6135 28.2846 48.2241 27.974 48.5999 27.4513C48.9787 26.9255 49.0832 26.2437 48.8771 25.624L46.7408 19.1984C46.1211 17.3832 44.4256 16.1636 42.5226 16.1636H36.5772C35.2818 15.1651 33.6787 14.5469 31.9211 14.5469C30.162 14.5469 28.5605 15.1651 27.265 16.1636H21.3196C19.4166 16.1636 17.7211 17.3832 17.0983 19.2075L14.9665 25.6195C14.7604 26.2392 14.862 26.9226 15.2407 27.4468C15.618 27.971 16.2286 28.2831 16.8756 28.2831L16.8757 28.2846ZM44.4453 19.9708L46.4044 25.8603H38.6422C39.2331 24.7724 39.5998 23.5467 39.5998 22.224C39.5998 20.9012 39.2331 19.6755 38.6422 18.5876H42.5241C43.3908 18.5876 44.1636 19.148 44.4453 19.9708ZM37.1757 22.2238C37.1757 25.1192 34.8197 27.4769 31.9227 27.4769C29.0272 27.4769 26.6696 25.1208 26.6696 22.2238C26.6696 19.3284 29.0257 16.9708 31.9227 16.9708C34.8181 16.9708 37.1757 19.3268 37.1757 22.2238ZM19.3969 19.9814C19.6818 19.1481 20.453 18.5874 21.3196 18.5874H25.2031C24.6122 19.6753 24.2455 20.9011 24.2455 22.2238C24.2455 23.5466 24.6121 24.7723 25.2031 25.8602H17.4424L19.3969 19.9814ZM29.0939 22.2238C29.0939 21.5541 29.6363 21.0117 30.306 21.0117H30.7106V20.6071C30.7106 19.9374 31.253 19.395 31.9227 19.395C32.5924 19.395 33.1348 19.9374 33.1348 20.6071V21.0117H33.5394C34.2091 21.0117 34.7515 21.5541 34.7515 22.2238C34.7515 22.8935 34.2091 23.4359 33.5394 23.4359H33.1348V23.8405C33.1348 24.5102 32.5924 25.0526 31.9227 25.0526C31.253 25.0526 30.7106 24.5102 30.7106 23.8405V23.4359H30.306C29.6363 23.4359 29.0939 22.8935 29.0939 22.2238Z" fill="url(#paint1_linear_1235_1160)"/>
<defs>
<linearGradient id="paint0_linear_1235_1160" x1="43.8214" y1="66.7312" x2="-14.1684" y2="39.8382" gradientUnits="userSpaceOnUse">
<stop stop-color="#F9A825"/>
<stop offset="1" stop-color="#FF3D00"/>
</linearGradient>
<linearGradient id="paint1_linear_1235_1160" x1="38.3385" y1="50.7781" x2="6.85413" y2="36.1777" gradientUnits="userSpaceOnUse">
<stop stop-color="#F9A825"/>
<stop offset="1" stop-color="#FF3D00"/>
</linearGradient>
</defs>
</svg>
