<svg width="64" height="64" viewBox="0 0 64 64" fill="none" xmlns="http://www.w3.org/2000/svg">

<rect x="1" y="1" width="62" height="62" rx="7" stroke="black" stroke-width="2"/>
<rect x="1" y="1" width="62" height="62" rx="7" stroke="url(#paint0_linear_1235_1143)" stroke-width="2"/>
<path d="M20.8 19.2C19.9164 19.2 19.2 19.9164 19.2 20.8V24.8C19.2 25.6836 18.4836 26.4 17.6 26.4C16.7164 26.4 16 25.6836 16 24.8V20.8C16 18.149 18.149 16 20.8 16H24.8C25.6836 16 26.4 16.7164 26.4 17.6C26.4 18.4836 25.6836 19.2 24.8 19.2H20.8Z" fill="black"/>
<path d="M20.8 19.2C19.9164 19.2 19.2 19.9164 19.2 20.8V24.8C19.2 25.6836 18.4836 26.4 17.6 26.4C16.7164 26.4 16 25.6836 16 24.8V20.8C16 18.149 18.149 16 20.8 16H24.8C25.6836 16 26.4 16.7164 26.4 17.6C26.4 18.4836 25.6836 19.2 24.8 19.2H20.8Z" fill="url(#paint1_linear_1235_1143)"/>
<path d="M37.6016 17.6C37.6016 16.7164 38.3179 16 39.2016 16H43.2016C45.8526 16 48.0016 18.149 48.0016 20.8V24.8C48.0016 25.6836 47.2852 26.4 46.4016 26.4C45.5179 26.4 44.8016 25.6836 44.8016 24.8V20.8C44.8016 19.9164 44.0852 19.2 43.2016 19.2H39.2016C38.3179 19.2 37.6016 18.4836 37.6016 17.6Z" fill="black"/>
<path d="M37.6016 17.6C37.6016 16.7164 38.3179 16 39.2016 16H43.2016C45.8526 16 48.0016 18.149 48.0016 20.8V24.8C48.0016 25.6836 47.2852 26.4 46.4016 26.4C45.5179 26.4 44.8016 25.6836 44.8016 24.8V20.8C44.8016 19.9164 44.0852 19.2 43.2016 19.2H39.2016C38.3179 19.2 37.6016 18.4836 37.6016 17.6Z" fill="url(#paint2_linear_1235_1143)"/>
<path d="M17.6 37.5977C18.4836 37.5977 19.2 38.314 19.2 39.1977V43.1977C19.2 44.0813 19.9164 44.7977 20.8 44.7977H24.8C25.6836 44.7977 26.4 45.514 26.4 46.3977C26.4 47.2813 25.6836 47.9977 24.8 47.9977H20.8C18.149 47.9977 16 45.8487 16 43.1977V39.1977C16 38.314 16.7164 37.5977 17.6 37.5977Z" fill="black"/>
<path d="M17.6 37.5977C18.4836 37.5977 19.2 38.314 19.2 39.1977V43.1977C19.2 44.0813 19.9164 44.7977 20.8 44.7977H24.8C25.6836 44.7977 26.4 45.514 26.4 46.3977C26.4 47.2813 25.6836 47.9977 24.8 47.9977H20.8C18.149 47.9977 16 45.8487 16 43.1977V39.1977C16 38.314 16.7164 37.5977 17.6 37.5977Z" fill="url(#paint3_linear_1235_1143)"/>
<path d="M46.4023 37.5977C47.286 37.5977 48.0023 38.314 48.0023 39.1977V43.1977C48.0023 45.8487 45.8534 47.9977 43.2023 47.9977H40.0023C39.1187 47.9977 38.4023 47.2813 38.4023 46.3977C38.4023 45.514 39.1187 44.7977 40.0023 44.7977H43.2023C44.086 44.7977 44.8023 44.0813 44.8023 43.1977V39.1977C44.8023 38.314 45.5187 37.5977 46.4023 37.5977Z" fill="black"/>
<path d="M46.4023 37.5977C47.286 37.5977 48.0023 38.314 48.0023 39.1977V43.1977C48.0023 45.8487 45.8534 47.9977 43.2023 47.9977H40.0023C39.1187 47.9977 38.4023 47.2813 38.4023 46.3977C38.4023 45.514 39.1187 44.7977 40.0023 44.7977H43.2023C44.086 44.7977 44.8023 44.0813 44.8023 43.1977V39.1977C44.8023 38.314 45.5187 37.5977 46.4023 37.5977Z" fill="url(#paint4_linear_1235_1143)"/>
<path d="M24 25.6C24 24.7164 24.7164 24 25.6 24H28.8C29.6837 24 30.4 24.7164 30.4 25.6V28.8C30.4 29.6837 29.6837 30.4 28.8 30.4H25.6C24.7164 30.4 24 29.6837 24 28.8V25.6Z" fill="black"/>
<path d="M24 25.6C24 24.7164 24.7164 24 25.6 24H28.8C29.6837 24 30.4 24.7164 30.4 25.6V28.8C30.4 29.6837 29.6837 30.4 28.8 30.4H25.6C24.7164 30.4 24 29.6837 24 28.8V25.6Z" fill="url(#paint5_linear_1235_1143)"/>
<path d="M25.6 33.5977C24.7164 33.5977 24 34.314 24 35.1977V38.3977C24 39.2813 24.7164 39.9977 25.6 39.9977H28.8C29.6837 39.9977 30.4 39.2813 30.4 38.3977V35.1977C30.4 34.314 29.6837 33.5977 28.8 33.5977H25.6Z" fill="black"/>
<path d="M25.6 33.5977C24.7164 33.5977 24 34.314 24 35.1977V38.3977C24 39.2813 24.7164 39.9977 25.6 39.9977H28.8C29.6837 39.9977 30.4 39.2813 30.4 38.3977V35.1977C30.4 34.314 29.6837 33.5977 28.8 33.5977H25.6Z" fill="url(#paint6_linear_1235_1143)"/>
<path d="M33.6016 25.6C33.6016 24.7164 34.3179 24 35.2016 24H38.4016C39.2852 24 40.0016 24.7164 40.0016 25.6V28.8C40.0016 29.6837 39.2852 30.4 38.4016 30.4H35.2016C34.3179 30.4 33.6016 29.6837 33.6016 28.8V25.6Z" fill="black"/>
<path d="M33.6016 25.6C33.6016 24.7164 34.3179 24 35.2016 24H38.4016C39.2852 24 40.0016 24.7164 40.0016 25.6V28.8C40.0016 29.6837 39.2852 30.4 38.4016 30.4H35.2016C34.3179 30.4 33.6016 29.6837 33.6016 28.8V25.6Z" fill="url(#paint7_linear_1235_1143)"/>
<path d="M35.2016 33.5977C34.3179 33.5977 33.6016 34.314 33.6016 35.1977V38.3977C33.6016 39.2813 34.3179 39.9977 35.2016 39.9977H38.4016C39.2852 39.9977 40.0016 39.2813 40.0016 38.3977V35.1977C40.0016 34.314 39.2852 33.5977 38.4016 33.5977H35.2016Z" fill="black"/>
<path d="M35.2016 33.5977C34.3179 33.5977 33.6016 34.314 33.6016 35.1977V38.3977C33.6016 39.2813 34.3179 39.9977 35.2016 39.9977H38.4016C39.2852 39.9977 40.0016 39.2813 40.0016 38.3977V35.1977C40.0016 34.314 39.2852 33.5977 38.4016 33.5977H35.2016Z" fill="url(#paint8_linear_1235_1143)"/>
<defs>
<linearGradient id="paint0_linear_1235_1143" x1="43.8214" y1="66.7312" x2="-14.1684" y2="39.8382" gradientUnits="userSpaceOnUse">
<stop stop-color="#F9A825"/>
<stop offset="1" stop-color="#FF3D00"/>
</linearGradient>
<linearGradient id="paint1_linear_1235_1143" x1="23.121" y1="26.8438" x2="13.6976" y2="22.4737" gradientUnits="userSpaceOnUse">
<stop stop-color="#F9A825"/>
<stop offset="1" stop-color="#FF3D00"/>
</linearGradient>
<linearGradient id="paint2_linear_1235_1143" x1="44.7225" y1="26.8438" x2="35.2992" y2="22.4737" gradientUnits="userSpaceOnUse">
<stop stop-color="#F9A825"/>
<stop offset="1" stop-color="#FF3D00"/>
</linearGradient>
<linearGradient id="paint3_linear_1235_1143" x1="23.121" y1="48.4415" x2="13.6976" y2="44.0714" gradientUnits="userSpaceOnUse">
<stop stop-color="#F9A825"/>
<stop offset="1" stop-color="#FF3D00"/>
</linearGradient>
<linearGradient id="paint4_linear_1235_1143" x1="44.9756" y1="48.4415" x2="36.0432" y2="44.6177" gradientUnits="userSpaceOnUse">
<stop stop-color="#F9A825"/>
<stop offset="1" stop-color="#FF3D00"/>
</linearGradient>
<linearGradient id="paint5_linear_1235_1143" x1="28.3821" y1="30.6731" x2="22.5832" y2="27.9838" gradientUnits="userSpaceOnUse">
<stop stop-color="#F9A825"/>
<stop offset="1" stop-color="#FF3D00"/>
</linearGradient>
<linearGradient id="paint6_linear_1235_1143" x1="28.3821" y1="40.2708" x2="22.5832" y2="37.5815" gradientUnits="userSpaceOnUse">
<stop stop-color="#F9A825"/>
<stop offset="1" stop-color="#FF3D00"/>
</linearGradient>
<linearGradient id="paint7_linear_1235_1143" x1="37.9837" y1="30.6731" x2="32.1847" y2="27.9838" gradientUnits="userSpaceOnUse">
<stop stop-color="#F9A825"/>
<stop offset="1" stop-color="#FF3D00"/>
</linearGradient>
<linearGradient id="paint8_linear_1235_1143" x1="37.9837" y1="40.2708" x2="32.1847" y2="37.5815" gradientUnits="userSpaceOnUse">
<stop stop-color="#F9A825"/>
<stop offset="1" stop-color="#FF3D00"/>
</linearGradient>
</defs>
</svg>
