<svg width="1685" height="141" viewBox="0 0 1685 141" fill="none" xmlns="http://www.w3.org/2000/svg">
<path opacity="0.1" d="M149.1 6.92525H122.7V24.9253H133.58C146.38 24.9253 153.42 29.6453 153.42 41.4053C153.42 53.1653 146.46 57.8853 133.42 57.8853H116.94V1.88525H149.1V6.92525ZM122.7 52.8453H133.1C142.78 52.8453 147.66 50.0453 147.66 41.4853C147.66 32.7653 142.86 29.9653 133.26 29.9653H122.7V52.8453ZM171.372 39.8053C171.372 42.9253 171.212 46.0453 171.132 48.7653C179.932 32.6853 189.772 18.4453 202.092 1.88525H207.532V57.8853H201.772V17.0053C201.772 14.1252 201.852 11.5652 202.092 9.48525C190.252 25.7253 180.732 40.4453 171.052 57.8853H165.612V1.88525H171.372V39.8053ZM243.673 58.8453C227.753 58.8453 220.153 46.1253 220.153 29.8853C220.153 13.6453 227.593 0.925253 243.673 0.925253C259.673 0.925253 267.273 13.6453 267.273 29.8853C267.273 46.1253 259.673 58.8453 243.673 58.8453ZM243.673 53.6453C256.073 53.6453 261.273 43.0853 261.273 29.8853C261.273 16.6853 256.073 6.12525 243.673 6.12525C231.193 6.12525 226.153 16.6853 226.153 29.8853C226.153 43.0853 231.353 53.6453 243.673 53.6453ZM317.788 1.88525V57.8853H312.108V6.92525H289.708V12.2852C289.708 44.9253 286.268 58.8453 275.788 58.8453C274.108 58.8453 272.668 58.6853 270.988 58.1253L271.788 53.4853C272.748 53.7253 273.788 53.8853 274.908 53.8853C281.628 53.8853 284.188 40.8453 284.188 11.8853V1.88525H289.708H317.788ZM353.986 58.8453C338.066 58.8453 330.466 46.1253 330.466 29.8853C330.466 13.6453 337.906 0.925253 353.986 0.925253C369.986 0.925253 377.586 13.6453 377.586 29.8853C377.586 46.1253 369.986 58.8453 353.986 58.8453ZM353.986 53.6453C366.386 53.6453 371.586 43.0853 371.586 29.8853C371.586 16.6853 366.386 6.12525 353.986 6.12525C341.506 6.12525 336.466 16.6853 336.466 29.8853C336.466 43.0853 341.666 53.6453 353.986 53.6453ZM419.823 1.88525V6.92525H395.903V57.8853H390.143V1.88525H395.903H419.823ZM435.512 39.8053C435.512 42.9253 435.352 46.0453 435.272 48.7653C444.072 32.6853 453.912 18.4453 466.232 1.88525H471.672V57.8853H465.912V17.0053C465.912 14.1252 465.992 11.5652 466.232 9.48525C454.392 25.7253 444.872 40.4453 435.192 57.8853H429.752V1.88525H435.512V39.8053ZM517.414 1.88525H523.174V57.8853H517.414V36.6053C513.094 37.6453 508.374 38.1253 503.574 38.1253C490.534 38.1253 485.174 33.9653 485.174 22.8453V1.88525H490.934V22.6053C490.934 29.9653 494.294 33.0853 504.374 33.0853C508.694 33.0853 513.414 32.6053 517.414 31.6453V1.88525ZM571.298 57.8853H538.658V1.88525H571.298V6.92525H544.418V26.6053H567.458V31.6453H544.418V52.8453H571.298V57.8853ZM578.982 30.5253C578.982 13.6453 586.982 0.925253 603.942 0.925253C608.662 0.925253 613.382 1.96525 617.622 3.72525L616.182 8.68525C612.422 7.32525 608.742 6.12525 604.022 6.12525C590.422 6.12525 584.982 17.0053 584.982 30.5253C584.982 44.2853 591.142 53.6453 604.422 53.6453C609.702 53.6453 613.542 52.2053 616.822 50.7653L618.022 55.7253C614.742 57.4053 609.702 58.8453 604.262 58.8453C587.702 58.8453 578.982 47.5653 578.982 30.5253ZM663.118 57.8853L645.198 31.8853C642.238 33.8853 638.958 35.8053 635.278 37.6453V57.8853H629.518V1.88525H635.278V31.8053C650.238 23.7253 657.998 15.0053 660.638 1.88525H666.398C664.238 12.6053 659.038 21.1653 649.598 28.6853L669.998 57.8853H663.118ZM684.653 39.8053C684.653 42.9253 684.493 46.0453 684.413 48.7653C693.213 32.6853 703.053 18.4453 715.373 1.88525H720.813V57.8853H715.053V17.0053C715.053 14.1252 715.133 11.5652 715.373 9.48525C703.533 25.7253 694.013 40.4453 684.333 57.8853H678.893V1.88525H684.653V39.8053ZM792.311 57.8853C790.711 52.3653 788.951 46.8453 787.111 41.4053H761.751C759.991 46.8453 758.231 52.3653 756.631 57.8853H750.711C756.951 37.7253 763.591 18.7653 771.431 1.88525H777.431C785.271 18.7653 792.071 37.4853 798.231 57.8853H792.311ZM763.431 36.3653H785.431C781.511 24.9253 777.511 14.6053 774.471 7.80525C771.431 14.6053 767.431 24.9253 763.431 36.3653ZM841.555 57.8853L823.635 31.8853C820.675 33.8853 817.395 35.8053 813.715 37.6453V57.8853H807.955V1.88525H813.715V31.8053C828.675 23.7253 836.435 15.0053 839.075 1.88525H844.835C842.675 12.6053 837.475 21.1653 828.035 28.6853L848.435 57.8853H841.555ZM891.57 1.88525V6.92525H874.53V57.8853H868.77V6.92525H851.73V1.88525H874.53H891.57ZM907.309 39.8053C907.309 42.9253 907.149 46.0453 907.069 48.7653C915.869 32.6853 925.709 18.4453 938.029 1.88525H943.469V57.8853H937.709V17.0053C937.709 14.1252 937.789 11.5652 938.029 9.48525C926.189 25.7253 916.669 40.4453 906.989 57.8853H901.549V1.88525H907.309V39.8053ZM958.971 57.8853V1.88525H971.531C984.491 1.88525 993.211 5.48525 993.211 16.1253C993.211 23.1653 989.771 27.0053 985.771 28.7653C991.051 30.4453 995.371 34.5253 995.371 42.4453C995.371 54.2053 986.731 57.8853 973.691 57.8853H958.971ZM964.651 27.0853H976.331C984.091 27.0853 987.451 23.4853 987.451 16.6853C987.451 8.68525 980.891 6.92525 971.611 6.92525H964.651V27.0853ZM964.651 52.8453H973.371C983.131 52.8453 989.611 51.0853 989.611 42.3653C989.611 35.0053 984.891 31.7253 976.171 31.7253H964.651V52.8453ZM1043.8 1.88525H1049.56V57.8853H1043.8V31.5653H1013.56V57.8853H1007.8V1.88525H1013.56V26.6053H1043.8V1.88525ZM1100.9 57.8853C1099.3 52.3653 1097.54 46.8453 1095.7 41.4053H1070.34C1068.58 46.8453 1066.82 52.3653 1065.22 57.8853H1059.3C1065.54 37.7253 1072.18 18.7653 1080.02 1.88525H1086.02C1093.86 18.7653 1100.66 37.4853 1106.82 57.8853H1100.9ZM1072.02 36.3653H1094.02C1090.1 24.9253 1086.1 14.6053 1083.06 7.80525C1080.02 14.6053 1076.02 24.9253 1072.02 36.3653ZM1150.71 1.88525V57.8853H1144.95V35.7253H1137.27C1132.47 35.7253 1130.39 37.7253 1126.95 42.6853L1116.71 57.8853H1110.23L1121.59 41.4053C1124.79 36.7653 1126.39 35.0853 1128.71 34.2053C1122.55 33.0853 1115.51 28.5253 1115.51 18.4453C1115.51 7.24525 1123.43 1.88525 1136.79 1.88525H1150.71ZM1136.95 30.6853H1144.95V6.92525H1136.95C1127.19 6.92525 1121.35 10.2853 1121.35 18.6853C1121.35 26.9253 1127.03 30.6853 1136.95 30.6853ZM1230.87 52.8453V69.4853H1225.43V57.8853H1218.47H1184.55V69.4853H1179.11V53.4853V52.8453H1183.91C1188.15 47.4853 1192.87 33.7253 1192.87 13.4052V1.88525H1198.47H1221.83H1224.15V52.8453H1230.87ZM1189.99 52.8453H1218.47V6.92525H1198.47V13.4853C1198.47 33.8053 1193.99 47.4053 1189.99 52.8453ZM1261.1 58.8453C1245.18 58.8453 1237.58 46.1253 1237.58 29.8853C1237.58 13.6453 1245.02 0.925253 1261.1 0.925253C1277.1 0.925253 1284.7 13.6453 1284.7 29.8853C1284.7 46.1253 1277.1 58.8453 1261.1 58.8453ZM1261.1 53.6453C1273.5 53.6453 1278.7 43.0853 1278.7 29.8853C1278.7 16.6853 1273.5 6.12525 1261.1 6.12525C1248.62 6.12525 1243.58 16.6853 1243.58 29.8853C1243.58 43.0853 1248.78 53.6453 1261.1 53.6453ZM1329.41 6.92525H1303.01V24.9253H1313.89C1326.69 24.9253 1333.73 29.6453 1333.73 41.4053C1333.73 53.1653 1326.77 57.8853 1313.73 57.8853H1297.25V1.88525H1329.41V6.92525ZM1303.01 52.8453H1313.41C1323.09 52.8453 1327.97 50.0453 1327.97 41.4853C1327.97 32.7653 1323.17 29.9653 1313.57 29.9653H1303.01V52.8453ZM1381.53 57.8853C1379.93 52.3653 1378.17 46.8453 1376.33 41.4053H1350.97C1349.21 46.8453 1347.45 52.3653 1345.85 57.8853H1339.93C1346.17 37.7253 1352.81 18.7653 1360.65 1.88525H1366.65C1374.49 18.7653 1381.29 37.4853 1387.45 57.8853H1381.53ZM1352.65 36.3653H1374.65C1370.73 24.9253 1366.73 14.6053 1363.69 7.80525C1360.65 14.6053 1356.65 24.9253 1352.65 36.3653ZM1397.17 57.8853V1.88525H1409.73C1422.69 1.88525 1431.41 5.48525 1431.41 16.1253C1431.41 23.1653 1427.97 27.0053 1423.97 28.7653C1429.25 30.4453 1433.57 34.5253 1433.57 42.4453C1433.57 54.2053 1424.93 57.8853 1411.89 57.8853H1397.17ZM1402.85 27.0853H1414.53C1422.29 27.0853 1425.65 23.4853 1425.65 16.6853C1425.65 8.68525 1419.09 6.92525 1409.81 6.92525H1402.85V27.0853ZM1402.85 52.8453H1411.57C1421.33 52.8453 1427.81 51.0853 1427.81 42.3653C1427.81 35.0053 1423.09 31.7253 1414.37 31.7253H1402.85V52.8453ZM1479.6 57.8853L1461.68 31.8853C1458.72 33.8853 1455.44 35.8053 1451.76 37.6453V57.8853H1446V1.88525H1451.76V31.8053C1466.72 23.7253 1474.48 15.0053 1477.12 1.88525H1482.88C1480.72 12.6053 1475.52 21.1653 1466.08 28.6853L1486.48 57.8853H1479.6ZM1531.22 57.8853C1529.62 52.3653 1527.86 46.8453 1526.02 41.4053H1500.66C1498.9 46.8453 1497.14 52.3653 1495.54 57.8853H1489.62C1495.86 37.7253 1502.5 18.7653 1510.34 1.88525H1516.34C1524.18 18.7653 1530.98 37.4853 1537.14 57.8853H1531.22ZM1502.34 36.3653H1524.34C1520.42 24.9253 1516.42 14.6053 1513.38 7.80525C1510.34 14.6053 1506.34 24.9253 1502.34 36.3653ZM1543.58 54.7653C1543.58 52.6053 1544.94 51.0053 1547.42 51.0053C1549.82 51.0053 1551.18 52.6053 1551.18 54.7653C1551.18 56.9253 1549.82 58.5253 1547.42 58.5253C1544.94 58.5253 1543.58 56.9253 1543.58 54.7653ZM36.8069 72.8853H42.5669V128.885H36.8069V102.565H6.56688V128.885H0.806875V72.8853H6.56688V97.6053H36.8069V72.8853ZM90.7125 128.885H58.0725V72.8853H90.7125V77.9253H63.8325V97.6053H86.8725V102.645H63.8325V123.845H90.7125V128.885ZM157.154 72.8853V128.885H151.394V106.725H143.714C138.914 106.725 136.834 108.725 133.394 113.685L123.154 128.885H116.674L128.034 112.405C131.234 107.765 132.834 106.085 135.154 105.205C128.994 104.085 121.954 99.5253 121.954 89.4453C121.954 78.2453 129.874 72.8853 143.234 72.8853H157.154ZM143.394 101.685H151.394V77.9253H143.394C133.634 77.9253 127.794 81.2853 127.794 89.6853C127.794 97.9253 133.474 101.685 143.394 101.685ZM172.682 128.885V72.8853H185.242C198.202 72.8853 206.922 76.4853 206.922 87.1253C206.922 94.1653 203.482 98.0053 199.482 99.7653C204.762 101.445 209.082 105.525 209.082 113.445C209.082 125.205 200.442 128.885 187.402 128.885H172.682ZM178.362 98.0853H190.042C197.802 98.0853 201.162 94.4853 201.162 87.6853C201.162 79.6853 194.602 77.9253 185.322 77.9253H178.362V98.0853ZM178.362 123.845H187.082C196.842 123.845 203.322 122.085 203.322 113.365C203.322 106.005 198.602 102.725 189.882 102.725H178.362V123.845ZM261.03 72.8853V128.885H255.35V77.9253H232.95V83.2852C232.95 115.925 229.51 129.845 219.03 129.845C217.35 129.845 215.91 129.685 214.23 129.125L215.03 124.485C215.99 124.725 217.03 124.885 218.15 124.885C224.87 124.885 227.43 111.845 227.43 82.8853V72.8853H232.95H261.03ZM310.748 72.8853V128.885H304.988V106.725H297.308C292.508 106.725 290.428 108.725 286.988 113.685L276.748 128.885H270.268L281.628 112.405C284.828 107.765 286.428 106.085 288.748 105.205C282.588 104.085 275.548 99.5253 275.548 89.4453C275.548 78.2453 283.468 72.8853 296.828 72.8853H310.748ZM296.988 101.685H304.988V77.9253H296.988C287.228 77.9253 281.388 81.2853 281.388 89.6853C281.388 97.9253 287.068 101.685 296.988 101.685ZM358.916 128.885H326.276V72.8853H358.916V77.9253H332.036V97.6053H355.076V102.645H332.036V123.845H358.916V128.885ZM405.281 72.8853V77.9253H388.241V128.885H382.481V77.9253H365.441V72.8853H388.241H405.281ZM410.193 101.525C410.193 84.6453 418.193 71.9253 435.153 71.9253C439.873 71.9253 444.593 72.9652 448.833 74.7253L447.393 79.6853C443.633 78.3253 439.953 77.1253 435.233 77.1253C421.633 77.1253 416.193 88.0053 416.193 101.525C416.193 115.285 422.353 124.645 435.633 124.645C440.913 124.645 444.753 123.205 448.033 121.765L449.233 126.725C445.953 128.405 440.913 129.845 435.473 129.845C418.913 129.845 410.193 118.565 410.193 101.525ZM494.889 72.8853V128.885H489.129V106.725H481.449C476.649 106.725 474.569 108.725 471.129 113.685L460.889 128.885H454.409L465.769 112.405C468.969 107.765 470.569 106.085 472.889 105.205C466.729 104.085 459.689 99.5253 459.689 89.4453C459.689 78.2453 467.609 72.8853 480.969 72.8853H494.889ZM481.129 101.685H489.129V77.9253H481.129C471.369 77.9253 465.529 81.2853 465.529 89.6853C465.529 97.9253 471.209 101.685 481.129 101.685ZM570.093 72.8853V128.885H564.413V77.9253H542.013V83.2852C542.013 115.925 538.573 129.845 528.092 129.845C526.413 129.845 524.973 129.685 523.293 129.125L524.093 124.485C525.053 124.725 526.093 124.885 527.213 124.885C533.933 124.885 536.493 111.845 536.493 82.8853V72.8853H542.013H570.093ZM618.291 128.885H585.651V72.8853H618.291V77.9253H591.411V97.6053H614.451V102.645H591.411V123.845H618.291V128.885ZM664.016 128.885L646.096 102.885C643.136 104.885 639.856 106.805 636.176 108.645V128.885H630.416V72.8853H636.176V102.805C651.136 94.7253 658.896 86.0053 661.536 72.8853H667.296C665.136 83.6053 659.936 92.1653 650.496 99.6853L670.896 128.885H664.016ZM715.631 128.885C714.031 123.365 712.271 117.845 710.431 112.405H685.071C683.311 117.845 681.551 123.365 679.951 128.885H674.031C680.271 108.725 686.911 89.7653 694.751 72.8853H700.751C708.591 89.7653 715.391 108.485 721.551 128.885H715.631ZM686.751 107.365H708.751C704.831 95.9253 700.831 85.6053 697.791 78.8053C694.751 85.6053 690.751 95.9253 686.751 107.365ZM744.876 72.8853C758.396 72.8853 767.116 78.3253 767.116 90.8053C767.116 103.285 758.396 108.645 744.876 108.645H737.036V128.885H731.276V72.8853H737.036H744.876ZM744.796 103.605C754.636 103.605 761.196 100.645 761.196 90.8053C761.196 80.9653 754.636 77.9253 744.796 77.9253H737.036V103.605H744.796ZM775.896 101.525C775.896 84.6453 783.896 71.9253 800.856 71.9253C805.576 71.9253 810.296 72.9652 814.536 74.7253L813.096 79.6853C809.336 78.3253 805.656 77.1253 800.936 77.1253C787.336 77.1253 781.896 88.0053 781.896 101.525C781.896 115.285 788.056 124.645 801.336 124.645C806.616 124.645 810.456 123.205 813.736 121.765L814.936 126.725C811.656 128.405 806.616 129.845 801.176 129.845C784.616 129.845 775.896 118.565 775.896 101.525ZM860.672 72.8853V77.9253H843.632V128.885H837.872V77.9253H820.832V72.8853H843.632H860.672ZM870.651 128.885V72.8853H883.211C896.171 72.8853 904.891 76.4853 904.891 87.1253C904.891 94.1653 901.451 98.0053 897.451 99.7653C902.731 101.445 907.051 105.525 907.051 113.445C907.051 125.205 898.411 128.885 885.371 128.885H870.651ZM876.331 98.0853H888.011C895.771 98.0853 899.131 94.4853 899.131 87.6853C899.131 79.6853 892.571 77.9253 883.291 77.9253H876.331V98.0853ZM876.331 123.845H885.051C894.811 123.845 901.291 122.085 901.291 113.365C901.291 106.005 896.571 102.725 887.851 102.725H876.331V123.845ZM952.119 128.885H919.479V72.8853H952.119V77.9253H925.239V97.6053H948.279V102.645H925.239V123.845H952.119V128.885ZM1000.24 72.8853H1006V128.885H1000.24V102.565H970.004V128.885H964.244V72.8853H970.004V97.6053H1000.24V72.8853ZM1057.51 72.8853H1063.27V128.885H1057.51V102.565H1027.27V128.885H1021.51V72.8853H1027.27V97.6053H1057.51V72.8853ZM1078.78 72.8853H1084.54V94.8053H1095.66C1108.54 94.8053 1115.58 100.005 1115.58 111.845C1115.58 123.685 1108.54 128.885 1095.58 128.885H1078.78V72.8853ZM1124.62 72.8853H1130.38V128.885H1124.62V72.8853ZM1084.54 123.845H1095.26C1104.86 123.845 1109.82 120.645 1109.82 111.925C1109.82 103.045 1104.94 99.8453 1095.34 99.8453H1084.54V123.845ZM1201.49 72.8853V128.885H1196.05V91.6053C1196.05 88.4053 1196.21 85.5252 1196.29 83.0453C1191.17 94.8853 1184.77 106.885 1176.21 120.325H1171.25C1162.69 106.885 1156.21 94.7253 1151.01 82.9653C1151.25 85.4453 1151.33 88.4053 1151.33 91.6053V128.885H1145.89V72.8853H1151.89C1157.65 86.9653 1164.93 100.405 1173.81 114.645C1182.61 100.405 1189.81 86.9653 1195.49 72.8853H1201.49ZM1234.26 101.525C1234.26 84.6453 1242.26 71.9253 1259.22 71.9253C1263.94 71.9253 1268.66 72.9652 1272.9 74.7253L1271.46 79.6853C1267.7 78.3253 1264.02 77.1253 1259.3 77.1253C1245.7 77.1253 1240.26 88.0053 1240.26 101.525C1240.26 115.285 1246.42 124.645 1259.7 124.645C1264.98 124.645 1268.82 123.205 1272.1 121.765L1273.3 126.725C1270.02 128.405 1264.98 129.845 1259.54 129.845C1242.98 129.845 1234.26 118.565 1234.26 101.525ZM1298.39 72.8853C1311.91 72.8853 1320.63 78.3253 1320.63 90.8053C1320.63 103.285 1311.91 108.645 1298.39 108.645H1290.55V128.885H1284.79V72.8853H1290.55H1298.39ZM1298.31 103.605C1308.15 103.605 1314.71 100.645 1314.71 90.8053C1314.71 80.9653 1308.15 77.9253 1298.31 77.9253H1290.55V103.605H1298.31ZM1364.93 128.885H1332.29V72.8853H1364.93V77.9253H1338.05V97.6053H1361.09V102.645H1338.05V123.845H1364.93V128.885ZM1421.54 123.845V140.485H1416.1V128.885H1409.14H1375.22V140.485H1369.78V124.485V123.845H1374.58C1378.82 118.485 1383.54 104.725 1383.54 84.4052V72.8853H1389.14H1412.5H1414.82V123.845H1421.54ZM1380.66 123.845H1409.14V77.9253H1389.14V84.4853C1389.14 104.805 1384.66 118.405 1380.66 123.845ZM1428.24 101.525C1428.24 84.6453 1436.24 71.9253 1453.2 71.9253C1457.92 71.9253 1462.64 72.9652 1466.88 74.7253L1465.44 79.6853C1461.68 78.3253 1458 77.1253 1453.28 77.1253C1439.68 77.1253 1434.24 88.0053 1434.24 101.525C1434.24 115.285 1440.4 124.645 1453.68 124.645C1458.96 124.645 1462.8 123.205 1466.08 121.765L1467.28 126.725C1464 128.405 1458.96 129.845 1453.52 129.845C1436.96 129.845 1428.24 118.565 1428.24 101.525ZM1513.02 72.8853V77.9253H1495.98V128.885H1490.22V77.9253H1473.18V72.8853H1495.98H1513.02ZM1522.99 128.885V72.8853H1535.55C1548.51 72.8853 1557.23 76.4853 1557.23 87.1253C1557.23 94.1653 1553.79 98.0053 1549.79 99.7653C1555.07 101.445 1559.39 105.525 1559.39 113.445C1559.39 125.205 1550.75 128.885 1537.71 128.885H1522.99ZM1528.67 98.0853H1540.35C1548.11 98.0853 1551.47 94.4853 1551.47 87.6853C1551.47 79.6853 1544.91 77.9253 1535.63 77.9253H1528.67V98.0853ZM1528.67 123.845H1537.39C1547.15 123.845 1553.63 122.085 1553.63 113.365C1553.63 106.005 1548.91 102.725 1540.19 102.725H1528.67V123.845ZM1592.46 129.845C1576.54 129.845 1568.94 117.125 1568.94 100.885C1568.94 84.6453 1576.38 71.9253 1592.46 71.9253C1608.46 71.9253 1616.06 84.6453 1616.06 100.885C1616.06 117.125 1608.46 129.845 1592.46 129.845ZM1592.46 124.645C1604.86 124.645 1610.06 114.085 1610.06 100.885C1610.06 87.6853 1604.86 77.1253 1592.46 77.1253C1579.98 77.1253 1574.94 87.6853 1574.94 100.885C1574.94 114.085 1580.14 124.645 1592.46 124.645ZM1684.22 72.8853V128.885H1678.78V91.6053C1678.78 88.4053 1678.94 85.5252 1679.02 83.0453C1673.9 94.8853 1667.5 106.885 1658.94 120.325H1653.98C1645.42 106.885 1638.94 94.7253 1633.74 82.9653C1633.98 85.4453 1634.06 88.4053 1634.06 91.6053V128.885H1628.62V72.8853H1634.62C1640.38 86.9653 1647.66 100.405 1656.54 114.645C1665.34 100.405 1672.54 86.9653 1678.22 72.8853H1684.22Z" fill="#001F68"/>
</svg>
