<svg width="364" height="49" viewBox="0 0 364 49" fill="none" xmlns="http://www.w3.org/2000/svg">
<path d="M32.1683 2.55711H26.4756V8.72696H28.8217C31.5818 8.72696 33.0998 10.3448 33.0998 14.3758C33.0998 18.4068 31.599 20.0246 28.7872 20.0246H25.2335V0.829546H32.1683V2.55711ZM26.4756 18.2971H28.7182C30.8055 18.2971 31.8578 17.3373 31.8578 14.4032C31.8578 11.4143 30.8227 10.4545 28.7527 10.4545H26.4756V18.2971Z" fill="#CCD7E2"/>
<path d="M36.9709 13.8274C36.9709 14.8968 36.9364 15.9662 36.9191 16.8986C38.8167 11.3868 40.9385 6.50581 43.5951 0.829546H44.7682V20.0246H43.5261V6.01222C43.5261 5.02504 43.5434 4.14755 43.5951 3.4346C41.042 9.00117 38.9892 14.0467 36.9019 20.0246H35.7288V0.829546H36.9709V13.8274Z" fill="#CCD7E2"/>
<path d="M52.5616 20.3537C49.1287 20.3537 47.4899 15.9937 47.4899 10.4271C47.4899 4.86052 49.0942 0.500488 52.5616 0.500488C56.0117 0.500488 57.6505 4.86052 57.6505 10.4271C57.6505 15.9937 56.0117 20.3537 52.5616 20.3537ZM52.5616 18.5713C55.2354 18.5713 56.3567 14.9517 56.3567 10.4271C56.3567 5.90253 55.2354 2.28289 52.5616 2.28289C49.8704 2.28289 48.7837 5.90253 48.7837 10.4271C48.7837 14.9517 49.9049 18.5713 52.5616 18.5713Z" fill="#CCD7E2"/>
<path d="M68.5431 0.829546V20.0246H67.3183V2.55711H62.4881V4.39435C62.4881 15.5823 61.7463 20.3537 59.4865 20.3537C59.1242 20.3537 58.8137 20.2989 58.4515 20.1069L58.624 18.5165C58.831 18.5987 59.0552 18.6536 59.2967 18.6536C60.7458 18.6536 61.2978 14.1838 61.2978 4.25724V0.829546H68.5431Z" fill="#CCD7E2"/>
<path d="M76.3486 20.3537C72.9157 20.3537 71.2769 15.9937 71.2769 10.4271C71.2769 4.86052 72.8812 0.500488 76.3486 0.500488C79.7988 0.500488 81.4376 4.86052 81.4376 10.4271C81.4376 15.9937 79.7988 20.3537 76.3486 20.3537ZM76.3486 18.5713C79.0225 18.5713 80.1438 14.9517 80.1438 10.4271C80.1438 5.90253 79.0225 2.28289 76.3486 2.28289C73.6575 2.28289 72.5707 5.90253 72.5707 10.4271C72.5707 14.9517 73.692 18.5713 76.3486 18.5713Z" fill="#CCD7E2"/>
<path d="M90.5453 0.829546V2.55711H85.3873V20.0246H84.1453V0.829546H90.5453Z" fill="#CCD7E2"/>
<path d="M93.9284 13.8274C93.9284 14.8968 93.8939 15.9662 93.8767 16.8986C95.7742 11.3868 97.8961 6.50581 100.553 0.829546H101.726V20.0246H100.484V6.01222C100.484 5.02504 100.501 4.14755 100.553 3.4346C97.9996 9.00117 95.9467 14.0467 93.8594 20.0246H92.6864V0.829546H93.9284V13.8274Z" fill="#CCD7E2"/>
<path d="M111.589 0.829546H112.831V20.0246H111.589V12.7305C110.658 13.087 109.64 13.2515 108.605 13.2515C105.793 13.2515 104.637 11.8256 104.637 8.014V0.829546H105.879V7.93173C105.879 10.4545 106.604 11.524 108.777 11.524C109.709 11.524 110.727 11.3594 111.589 11.0304V0.829546Z" fill="#CCD7E2"/>
<path d="M123.208 20.0246H116.17V0.829546H123.208V2.55711H117.412V9.30281H122.38V11.0304H117.412V18.2971H123.208V20.0246Z" fill="#CCD7E2"/>
<path d="M124.865 10.6465C124.865 4.86052 126.59 0.500488 130.247 0.500488C131.265 0.500488 132.283 0.856967 133.197 1.46024L132.887 3.16038C132.076 2.69421 131.282 2.28289 130.265 2.28289C127.332 2.28289 126.159 6.01222 126.159 10.6465C126.159 15.363 127.487 18.5713 130.351 18.5713C131.489 18.5713 132.317 18.0777 133.025 17.5841L133.284 19.2843C132.576 19.8601 131.489 20.3537 130.316 20.3537C126.746 20.3537 124.865 16.4873 124.865 10.6465Z" fill="#CCD7E2"/>
<path d="M143.008 20.0246L139.144 11.1126C138.505 11.7982 137.798 12.4563 137.005 13.087V20.0246H135.763V0.829546H137.005V11.0852C140.23 8.31563 141.904 5.32668 142.473 0.829546H143.715C143.249 4.50404 142.128 7.43814 140.092 10.0158L144.491 20.0246H143.008Z" fill="#CCD7E2"/>
<path d="M147.651 13.8274C147.651 14.8968 147.617 15.9662 147.6 16.8986C149.497 11.3868 151.619 6.50581 154.276 0.829546H155.449V20.0246H154.207V6.01222C154.207 5.02504 154.224 4.14755 154.276 3.4346C151.723 9.00117 149.67 14.0467 147.582 20.0246H146.409V0.829546H147.651V13.8274Z" fill="#CCD7E2"/>
<path d="M170.866 20.0246C170.521 18.1326 170.142 16.2405 169.745 14.3758H164.276C163.897 16.2405 163.517 18.1326 163.172 20.0246H161.896C163.241 13.1144 164.673 6.6155 166.364 0.829546H167.658C169.348 6.6155 170.814 13.0321 172.143 20.0246H170.866ZM164.639 12.6482H169.383C168.537 8.72696 167.675 5.18958 167.019 2.85874C166.364 5.18958 165.501 8.72696 164.639 12.6482Z" fill="#CCD7E2"/>
<path d="M181.485 20.0246L177.621 11.1126C176.982 11.7982 176.275 12.4563 175.482 13.087V20.0246H174.24V0.829546H175.482V11.0852C178.708 8.31563 180.381 5.32668 180.95 0.829546H182.192C181.726 4.50404 180.605 7.43814 178.57 10.0158L182.968 20.0246H181.485Z" fill="#CCD7E2"/>
<path d="M192.27 0.829546V2.55711H188.595V20.0246H187.353V2.55711H183.679V0.829546H192.27Z" fill="#CCD7E2"/>
<path d="M195.664 13.8274C195.664 14.8968 195.629 15.9662 195.612 16.8986C197.509 11.3868 199.631 6.50581 202.288 0.829546H203.461V20.0246H202.219V6.01222C202.219 5.02504 202.236 4.14755 202.288 3.4346C199.735 9.00117 197.682 14.0467 195.595 20.0246H194.422V0.829546H195.664V13.8274Z" fill="#CCD7E2"/>
<path d="M206.804 20.0246V0.829546H209.512C212.307 0.829546 214.187 2.06352 214.187 5.71058C214.187 8.12368 213.445 9.43992 212.583 10.0432C213.721 10.619 214.653 12.0175 214.653 14.7323C214.653 18.7632 212.79 20.0246 209.978 20.0246H206.804ZM208.028 9.46734H210.547C212.22 9.46734 212.945 8.23337 212.945 5.90253C212.945 3.16038 211.53 2.55711 209.529 2.55711H208.028V9.46734ZM208.028 18.2971H209.909C212.013 18.2971 213.411 17.6938 213.411 14.7049C213.411 12.1821 212.393 11.0578 210.513 11.0578H208.028V18.2971Z" fill="#CCD7E2"/>
<path d="M225.095 0.829546H226.337V20.0246H225.095V11.0029H218.575V20.0246H217.333V0.829546H218.575V9.30281H225.095V0.829546Z" fill="#CCD7E2"/>
<path d="M237.409 20.0246C237.064 18.1326 236.685 16.2405 236.288 14.3758H230.82C230.44 16.2405 230.06 18.1326 229.715 20.0246H228.439C229.784 13.1144 231.216 6.6155 232.907 0.829546H234.201C235.891 6.6155 237.358 13.0321 238.686 20.0246H237.409ZM231.182 12.6482H235.926C235.08 8.72696 234.218 5.18958 233.562 2.85874C232.907 5.18958 232.044 8.72696 231.182 12.6482Z" fill="#CCD7E2"/>
<path d="M248.149 0.829546V20.0246H246.907V12.4289H245.251C244.216 12.4289 243.767 13.1144 243.025 14.8145L240.817 20.0246H239.42L241.87 14.3758C242.56 12.7853 242.905 12.2095 243.405 11.9079C242.077 11.524 240.558 9.96093 240.558 6.50581C240.558 2.66679 242.266 0.829546 245.147 0.829546H248.149ZM245.182 10.7013H246.907V2.55711H245.182C243.077 2.55711 241.818 3.70881 241.818 6.58807C241.818 9.41249 243.043 10.7013 245.182 10.7013Z" fill="#CCD7E2"/>
<path d="M265.435 18.2971V24.0008H264.262V20.0246H255.447V24.0008H254.274V18.2971H255.309C256.223 16.4598 257.241 11.7433 257.241 4.77825V0.829546H263.986V18.2971H265.435ZM256.62 18.2971H262.761V2.55711H258.448V4.80567C258.448 11.7707 257.482 16.4324 256.62 18.2971Z" fill="#CCD7E2"/>
<path d="M271.952 20.3537C268.519 20.3537 266.88 15.9937 266.88 10.4271C266.88 4.86052 268.484 0.500488 271.952 0.500488C275.402 0.500488 277.041 4.86052 277.041 10.4271C277.041 15.9937 275.402 20.3537 271.952 20.3537ZM271.952 18.5713C274.626 18.5713 275.747 14.9517 275.747 10.4271C275.747 5.90253 274.626 2.28289 271.952 2.28289C269.261 2.28289 268.174 5.90253 268.174 10.4271C268.174 14.9517 269.295 18.5713 271.952 18.5713Z" fill="#CCD7E2"/>
<path d="M286.683 2.55711H280.99V8.72696H283.337C286.097 8.72696 287.615 10.3448 287.615 14.3758C287.615 18.4068 286.114 20.0246 283.302 20.0246H279.748V0.829546H286.683V2.55711ZM280.99 18.2971H283.233C285.32 18.2971 286.373 17.3373 286.373 14.4032C286.373 11.4143 285.338 10.4545 283.268 10.4545H280.99V18.2971Z" fill="#CCD7E2"/>
<path d="M297.921 20.0246C297.576 18.1326 297.197 16.2405 296.8 14.3758H291.332C290.952 16.2405 290.573 18.1326 290.228 20.0246H288.951C290.297 13.1144 291.728 6.6155 293.419 0.829546H294.713C296.403 6.6155 297.87 13.0321 299.198 20.0246H297.921ZM291.694 12.6482H296.438C295.593 8.72696 294.73 5.18958 294.075 2.85874C293.419 5.18958 292.556 8.72696 291.694 12.6482Z" fill="#CCD7E2"/>
<path d="M301.295 20.0246V0.829546H304.003C306.798 0.829546 308.678 2.06352 308.678 5.71058C308.678 8.12368 307.936 9.43992 307.074 10.0432C308.212 10.619 309.144 12.0175 309.144 14.7323C309.144 18.7632 307.281 20.0246 304.469 20.0246H301.295ZM302.52 9.46734H305.038C306.712 9.46734 307.436 8.23337 307.436 5.90253C307.436 3.16038 306.022 2.55711 304.02 2.55711H302.52V9.46734ZM302.52 18.2971H304.4C306.505 18.2971 307.902 17.6938 307.902 14.7049C307.902 12.1821 306.884 11.0578 305.004 11.0578H302.52V18.2971Z" fill="#CCD7E2"/>
<path d="M319.069 20.0246L315.205 11.1126C314.567 11.7982 313.859 12.4563 313.066 13.087V20.0246H311.824V0.829546H313.066V11.0852C316.292 8.31563 317.965 5.32668 318.534 0.829546H319.776C319.311 4.50404 318.189 7.43814 316.154 10.0158L320.553 20.0246H319.069Z" fill="#CCD7E2"/>
<path d="M330.199 20.0246C329.854 18.1326 329.474 16.2405 329.078 14.3758H323.609C323.23 16.2405 322.85 18.1326 322.505 20.0246H321.229C322.574 13.1144 324.006 6.6155 325.697 0.829546H326.99C328.681 6.6155 330.147 13.0321 331.476 20.0246H330.199ZM323.972 12.6482H328.715C327.87 8.72696 327.008 5.18958 326.352 2.85874C325.697 5.18958 324.834 8.72696 323.972 12.6482Z" fill="#CCD7E2"/>
<path d="M332.865 18.9552C332.865 18.2148 333.158 17.6664 333.693 17.6664C334.211 17.6664 334.504 18.2148 334.504 18.9552C334.504 19.6956 334.211 20.244 333.693 20.244C333.158 20.244 332.865 19.6956 332.865 18.9552Z" fill="#CCD7E2"/>
<path d="M7.95421 25.3293H9.19626V44.5244H7.95421V35.5027H1.43346V44.5244H0.191406V25.3293H1.43346V33.8025H7.95421V25.3293Z" fill="#CCD7E2"/>
<path d="M19.5781 44.5244H12.5398V25.3293H19.5781V27.0568H13.7818V33.8025H18.75V35.5301H13.7818V42.7968H19.5781V44.5244Z" fill="#CCD7E2"/>
<path d="M33.9052 25.3293V44.5244H32.6631V36.9286H31.007C29.972 36.9286 29.5235 37.6141 28.7817 39.3143L26.5736 44.5244H25.1763L27.6259 38.8755C28.3159 37.2851 28.6609 36.7092 29.1612 36.4076C27.8329 36.0237 26.3149 34.4606 26.3149 31.0055C26.3149 27.1665 28.0227 25.3293 30.9035 25.3293H33.9052ZM30.938 35.201H32.6631V27.0568H30.938C28.8335 27.0568 27.5742 28.2085 27.5742 31.0878C27.5742 33.9122 28.799 35.201 30.938 35.201Z" fill="#CCD7E2"/>
<path d="M37.2534 44.5244V25.3293H39.9618C42.7564 25.3293 44.6367 26.5632 44.6367 30.2103C44.6367 32.6234 43.8949 33.9396 43.0324 34.5429C44.1709 35.1188 45.1025 36.5173 45.1025 39.232C45.1025 43.263 43.2394 44.5244 40.4275 44.5244H37.2534ZM38.4782 33.9671H40.9968C42.6701 33.9671 43.3946 32.7331 43.3946 30.4023C43.3946 27.6601 41.9801 27.0568 39.979 27.0568H38.4782V33.9671ZM38.4782 42.7968H40.3585C42.4631 42.7968 43.8604 42.1935 43.8604 39.2046C43.8604 36.6818 42.8426 35.5575 40.9623 35.5575H38.4782V42.7968Z" fill="#CCD7E2"/>
<path d="M56.3042 25.3293V44.5244H55.0794V27.0568H50.2492V28.8941C50.2492 40.0821 49.5074 44.8534 47.2476 44.8534C46.8853 44.8534 46.5748 44.7986 46.2126 44.6066L46.3851 43.0162C46.5921 43.0984 46.8163 43.1533 47.0578 43.1533C48.5069 43.1533 49.0589 38.6836 49.0589 28.757V25.3293H56.3042Z" fill="#CCD7E2"/>
<path d="M67.0251 25.3293V44.5244H65.7831V36.9286H64.127C63.0919 36.9286 62.6434 37.6141 61.9016 39.3143L59.6936 44.5244H58.2963L60.7459 38.8755C61.4359 37.2851 61.7809 36.7092 62.2812 36.4076C60.9529 36.0237 59.4348 34.4606 59.4348 31.0055C59.4348 27.1665 61.1426 25.3293 64.0235 25.3293H67.0251ZM64.058 35.201H65.7831V27.0568H64.058C61.9534 27.0568 60.6941 28.2085 60.6941 31.0878C60.6941 33.9122 61.9189 35.201 64.058 35.201Z" fill="#CCD7E2"/>
<path d="M77.4116 44.5244H70.3734V25.3293H77.4116V27.0568H71.6154V33.8025H76.5836V35.5301H71.6154V42.7968H77.4116V44.5244Z" fill="#CCD7E2"/>
<path d="M87.4096 25.3293V27.0568H83.7352V44.5244H82.4932V27.0568H78.8188V25.3293H87.4096Z" fill="#CCD7E2"/>
<path d="M88.4686 35.1462C88.4686 29.3602 90.1937 25.0002 93.8508 25.0002C94.8686 25.0002 95.8864 25.3567 96.8007 25.96L96.4902 27.6601C95.6794 27.1939 94.8859 26.7826 93.8681 26.7826C90.9355 26.7826 89.7624 30.5119 89.7624 35.1462C89.7624 39.8627 91.0907 43.071 93.9543 43.071C95.0929 43.071 95.9209 42.5774 96.6282 42.0838L96.887 43.784C96.1797 44.3598 95.0929 44.8534 93.9198 44.8534C90.349 44.8534 88.4686 40.987 88.4686 35.1462Z" fill="#CCD7E2"/>
<path d="M106.732 25.3293V44.5244H105.49V36.9286H103.834C102.799 36.9286 102.35 37.6141 101.609 39.3143L99.4004 44.5244H98.0031L100.453 38.8755C101.143 37.2851 101.488 36.7092 101.988 36.4076C100.66 36.0237 99.1417 34.4606 99.1417 31.0055C99.1417 27.1665 100.849 25.3293 103.73 25.3293H106.732ZM103.765 35.201H105.49V27.0568H103.765C101.66 27.0568 100.401 28.2085 100.401 31.0878C100.401 33.9122 101.626 35.201 103.765 35.201Z" fill="#CCD7E2"/>
<path d="M122.948 25.3293V44.5244H121.724V27.0568H116.893V28.8941C116.893 40.0821 116.152 44.8534 113.892 44.8534C113.53 44.8534 113.219 44.7986 112.857 44.6066L113.029 43.0162C113.236 43.0984 113.461 43.1533 113.702 43.1533C115.151 43.1533 115.703 38.6836 115.703 28.757V25.3293H122.948Z" fill="#CCD7E2"/>
<path d="M133.342 44.5244H126.303V25.3293H133.342V27.0568H127.545V33.8025H132.514V35.5301H127.545V42.7968H133.342V44.5244Z" fill="#CCD7E2"/>
<path d="M143.202 44.5244L139.337 35.6124C138.699 36.2979 137.992 36.956 137.198 37.5867V44.5244H135.956V25.3293H137.198V35.5849C140.424 32.8154 142.097 29.8264 142.667 25.3293H143.909C143.443 29.0038 142.322 31.9379 140.286 34.5155L144.685 44.5244H143.202Z" fill="#CCD7E2"/>
<path d="M154.331 44.5244C153.986 42.6323 153.607 40.7402 153.21 38.8755H147.742C147.362 40.7402 146.983 42.6323 146.638 44.5244H145.361C146.707 37.6141 148.138 31.1152 149.829 25.3293H151.123C152.813 31.1152 154.28 37.5319 155.608 44.5244H154.331ZM148.104 37.148H152.848C152.003 33.2267 151.14 29.6893 150.485 27.3585C149.829 29.6893 148.966 33.2267 148.104 37.148Z" fill="#CCD7E2"/>
<path d="M160.637 25.3293C163.553 25.3293 165.433 27.1939 165.433 31.4717C165.433 35.7495 163.553 37.5867 160.637 37.5867H158.947V44.5244H157.705V25.3293H160.637ZM160.62 35.8591C162.742 35.8591 164.157 34.8445 164.157 31.4717C164.157 28.0988 162.742 27.0568 160.62 27.0568H158.947V35.8591H160.62Z" fill="#CCD7E2"/>
<path d="M167.326 35.1462C167.326 29.3602 169.052 25.0002 172.709 25.0002C173.726 25.0002 174.744 25.3567 175.659 25.96L175.348 27.6601C174.537 27.1939 173.744 26.7826 172.726 26.7826C169.793 26.7826 168.62 30.5119 168.62 35.1462C168.62 39.8627 169.949 43.071 172.812 43.071C173.951 43.071 174.779 42.5774 175.486 42.0838L175.745 43.784C175.037 44.3598 173.951 44.8534 172.778 44.8534C169.207 44.8534 167.326 40.987 167.326 35.1462Z" fill="#CCD7E2"/>
<path d="M185.607 25.3293V27.0568H181.933V44.5244H180.691V27.0568H177.016V25.3293H185.607Z" fill="#CCD7E2"/>
<path d="M187.759 44.5244V25.3293H190.467C193.262 25.3293 195.142 26.5632 195.142 30.2103C195.142 32.6234 194.4 33.9396 193.538 34.5429C194.676 35.1188 195.608 36.5173 195.608 39.232C195.608 43.263 193.745 44.5244 190.933 44.5244H187.759ZM188.984 33.9671H191.502C193.176 33.9671 193.9 32.7331 193.9 30.4023C193.9 27.6601 192.485 27.0568 190.484 27.0568H188.984V33.9671ZM188.984 42.7968H190.864C192.969 42.7968 194.366 42.1935 194.366 39.2046C194.366 36.6818 193.348 35.5575 191.468 35.5575H188.984V42.7968Z" fill="#CCD7E2"/>
<path d="M205.326 44.5244H198.288V25.3293H205.326V27.0568H199.53V33.8025H204.498V35.5301H199.53V42.7968H205.326V44.5244Z" fill="#CCD7E2"/>
<path d="M215.704 25.3293H216.946V44.5244H215.704V35.5027H209.183V44.5244H207.941V25.3293H209.183V33.8025H215.704V25.3293Z" fill="#CCD7E2"/>
<path d="M228.052 25.3293H229.294V44.5244H228.052V35.5027H221.531V44.5244H220.289V25.3293H221.531V33.8025H228.052V25.3293Z" fill="#CCD7E2"/>
<path d="M232.637 25.3293H233.88V32.8428H236.277C239.055 32.8428 240.573 34.6252 240.573 38.6836C240.573 42.742 239.055 44.5244 236.26 44.5244H232.637V25.3293ZM242.522 25.3293H243.764V44.5244H242.522V25.3293ZM233.88 42.7968H236.191C238.261 42.7968 239.331 41.6999 239.331 38.711C239.331 35.6672 238.278 34.5703 236.208 34.5703H233.88V42.7968Z" fill="#CCD7E2"/>
<path d="M259.098 25.3293V44.5244H257.925V31.7459C257.925 30.649 257.959 29.6619 257.976 28.8118C256.872 32.8702 255.492 36.9834 253.647 41.5903H252.577C250.731 36.9834 249.334 32.8154 248.213 28.7844C248.264 29.6345 248.282 30.649 248.282 31.7459V44.5244H247.109V25.3293H248.402C249.644 30.1555 251.214 34.7623 253.129 39.6433C255.027 34.7623 256.579 30.1555 257.804 25.3293H259.098Z" fill="#CCD7E2"/>
<path d="M266.164 35.1462C266.164 29.3602 267.889 25.0002 271.546 25.0002C272.564 25.0002 273.582 25.3567 274.496 25.96L274.186 27.6601C273.375 27.1939 272.581 26.7826 271.564 26.7826C268.631 26.7826 267.458 30.5119 267.458 35.1462C267.458 39.8627 268.786 43.071 271.65 43.071C272.788 43.071 273.616 42.5774 274.324 42.0838L274.582 43.784C273.875 44.3598 272.788 44.8534 271.615 44.8534C268.044 44.8534 266.164 40.987 266.164 35.1462Z" fill="#CCD7E2"/>
<path d="M279.994 25.3293C282.909 25.3293 284.79 27.1939 284.79 31.4717C284.79 35.7495 282.909 37.5867 279.994 37.5867H278.303V44.5244H277.061V25.3293H279.994ZM279.977 35.8591C282.099 35.8591 283.513 34.8445 283.513 31.4717C283.513 28.0988 282.099 27.0568 279.977 27.0568H278.303V35.8591H279.977Z" fill="#CCD7E2"/>
<path d="M294.342 44.5244H287.304V25.3293H294.342V27.0568H288.546V33.8025H293.514V35.5301H288.546V42.7968H294.342V44.5244Z" fill="#CCD7E2"/>
<path d="M306.548 42.7968V48.5005H305.375V44.5244H296.56V48.5005H295.387V42.7968H296.422C297.336 40.9596 298.354 36.243 298.354 29.278V25.3293H305.099V42.7968H306.548ZM297.733 42.7968H303.874V27.0568H299.562V29.3054C299.562 36.2705 298.596 40.9321 297.733 42.7968Z" fill="#CCD7E2"/>
<path d="M307.994 35.1462C307.994 29.3602 309.719 25.0002 313.376 25.0002C314.394 25.0002 315.411 25.3567 316.326 25.96L316.015 27.6601C315.204 27.1939 314.411 26.7826 313.393 26.7826C310.46 26.7826 309.287 30.5119 309.287 35.1462C309.287 39.8627 310.616 43.071 313.479 43.071C314.618 43.071 315.446 42.5774 316.153 42.0838L316.412 43.784C315.705 44.3598 314.618 44.8534 313.445 44.8534C309.874 44.8534 307.994 40.987 307.994 35.1462Z" fill="#CCD7E2"/>
<path d="M326.274 25.3293V27.0568H322.6V44.5244H321.358V27.0568H317.683V25.3293H326.274Z" fill="#CCD7E2"/>
<path d="M328.426 44.5244V25.3293H331.134C333.929 25.3293 335.809 26.5632 335.809 30.2103C335.809 32.6234 335.067 33.9396 334.205 34.5429C335.343 35.1188 336.275 36.5173 336.275 39.232C336.275 43.263 334.412 44.5244 331.6 44.5244H328.426ZM329.651 33.9671H332.169C333.843 33.9671 334.567 32.7331 334.567 30.4023C334.567 27.6601 333.153 27.0568 331.152 27.0568H329.651V33.9671ZM329.651 42.7968H331.531C333.636 42.7968 335.033 42.1935 335.033 39.2046C335.033 36.6818 334.015 35.5575 332.135 35.5575H329.651V42.7968Z" fill="#CCD7E2"/>
<path d="M343.406 44.8534C339.973 44.8534 338.334 40.4934 338.334 34.9268C338.334 29.3602 339.938 25.0002 343.406 25.0002C346.856 25.0002 348.495 29.3602 348.495 34.9268C348.495 40.4934 346.856 44.8534 343.406 44.8534ZM343.406 43.071C346.079 43.071 347.201 39.4514 347.201 34.9268C347.201 30.4023 346.079 26.7826 343.406 26.7826C340.714 26.7826 339.628 30.4023 339.628 34.9268C339.628 39.4514 340.749 43.071 343.406 43.071Z" fill="#CCD7E2"/>
<path d="M363.191 25.3293V44.5244H362.018V31.7459C362.018 30.649 362.053 29.6619 362.07 28.8118C360.966 32.8702 359.586 36.9834 357.74 41.5903H356.671C354.825 36.9834 353.428 32.8154 352.306 28.7844C352.358 29.6345 352.375 30.649 352.375 31.7459V44.5244H351.202V25.3293H352.496C353.738 30.1555 355.308 34.7623 357.223 39.6433C359.12 34.7623 360.673 30.1555 361.898 25.3293H363.191Z" fill="#CCD7E2"/>
</svg>
