<svg width="164" height="26" viewBox="0 0 164 26" fill="none" xmlns="http://www.w3.org/2000/svg">
<g clip-path="url(#clip0_1235_257)">
<path d="M0 0.582031V25.0384H6.16108V15.671H18.3525V25.0384H24.5136V0.582031H18.3525V9.94945H6.16108V0.582031H0Z" fill="white"/>
<path d="M36.6365 0.582031L28.7324 25.0384H35.2802L37.0378 19.4323H45.9766L47.7346 25.0384H54.282L46.3779 0.582031H36.6365ZM41.5072 5.77069L44.1275 13.8775H38.887L41.5072 5.77069Z" fill="white"/>
<path d="M58.498 0.578125V25.0345H78.0925L78.0928 19.3126H64.6591V0.578125H58.498Z" fill="white"/>
<path d="M82.4414 0.578125H103.194V6.2999H82.4414V0.578125Z" fill="white"/>
<path d="M82.4414 9.94531H103.194V15.6671H82.4414V9.94531Z" fill="#30EA03"/>
<path d="M82.4414 19.3125H103.194V25.0343H82.4414V19.3125Z" fill="white"/>
<path d="M120.936 0C113.537 0 107.539 5.73462 107.539 12.8085C107.539 19.8823 113.537 25.6167 120.936 25.6167C128.335 25.6167 134.334 19.8824 134.334 12.8085C134.334 5.73462 128.336 0 120.936 0ZM120.936 5.50365C124.937 5.50365 128.18 8.77415 128.18 12.8085C128.18 16.8428 124.937 20.1131 120.936 20.1131C116.935 20.1131 113.692 16.8428 113.692 12.8085C113.692 8.77415 116.935 5.50365 120.936 5.50365Z" fill="white"/>
<path d="M138.691 0.578125V25.0345H144.853V9.71551L157.044 25.0345H163.205V0.578125H157.045V15.8965L144.853 0.578125H138.691Z" fill="white"/>
</g>
<defs>
<clipPath id="clip0_1235_257">
<rect width="163.208" height="25.6167" fill="white"/>
</clipPath>
</defs>
</svg>
