<svg width="174" height="22" viewBox="0 0 174 22" fill="none" xmlns="http://www.w3.org/2000/svg">
  <path d="M104.746 2.48634H105.012C106.541 2.48634 107.895 2.85163 109.157 3.49973C110.419 4.13605 111.322 5.14944 112.04 6.43385C112.758 7.71827 113.024 9.08516 113.024 10.7349C113.024 13.1152 112.307 15.0359 110.778 16.6031C109.25 18.0643 107.27 18.8891 104.746 18.8891V21.458H100.879V18.8891H100.613C99.0844 18.8891 97.6372 18.5238 96.4678 17.8757C95.2058 17.2394 94.3027 16.226 93.5848 15.0359C92.867 13.8457 92.5891 12.3846 92.5891 10.8174C92.5891 9.26192 92.948 7.78897 93.5848 6.59882C94.3027 5.31441 95.2058 4.39529 96.4678 3.6647C97.7298 2.93412 99.0729 2.56883 100.52 2.56883H100.879V0H104.746V2.48634ZM100.694 5.86824C99.3392 5.86824 98.355 6.3278 97.5446 7.15265C96.8267 7.9775 96.3752 9.16765 96.3752 10.7231C96.3752 12.1843 96.7341 13.2919 97.5446 14.1168C98.2624 14.9416 99.3392 15.4012 100.694 15.4012H100.879V5.86824H100.694ZM104.746 5.86824V15.4012H105.012C106.367 15.4012 107.351 14.9416 108.069 14.1168C108.787 13.2919 109.238 12.1018 109.238 10.7231C109.238 9.16765 108.88 8.07177 108.162 7.15265C107.444 6.3278 106.367 5.86824 105.012 5.86824H104.746ZM117.169 5.77397L116.903 12.0075C116.811 13.834 116.637 15.2126 116.278 16.0375C115.919 16.8623 115.467 17.2276 114.75 17.3219H114.298V20.5271H115.653C117.181 20.5271 118.35 19.9732 119.161 18.7831C119.971 17.6872 120.423 15.9432 120.597 13.4687L120.863 8.88484H124.278V20.4328H128.145V5.77397H117.169ZM137.697 20.7981C135.532 20.7981 133.83 20.1618 132.476 18.7831C131.121 17.4044 130.496 15.6722 130.496 13.4687V13.1034C130.496 11.6422 130.762 10.2635 131.306 9.16765C131.85 7.9775 132.661 7.15265 133.645 6.51634C134.629 5.88002 135.81 5.59721 137.153 5.59721C139.133 5.59721 140.661 6.23353 141.831 7.51794C143 8.80235 143.544 10.6288 143.544 12.9266V14.5763H134.363C134.456 15.4954 134.907 16.3203 135.532 16.8623C136.158 17.4162 136.968 17.6872 137.871 17.6872C139.399 17.6872 140.476 17.1334 141.379 16.0375L143.266 18.241C142.722 19.0659 141.912 19.7022 140.928 20.1618C139.944 20.527 138.867 20.7981 137.697 20.7981ZM137.246 8.70809C136.435 8.70809 135.891 8.97911 135.359 9.53294C134.907 10.0868 134.548 10.8174 134.456 11.819H139.851V11.5479C139.851 10.6288 139.585 9.9925 139.133 9.53294C138.682 8.89662 138.056 8.70809 137.246 8.70809ZM154.613 20.5271H159.742L154.613 12.8323L159.383 5.86824H154.52L151.371 11.3594H150.017V5.86824H146.057V20.6213H149.924V15.2126H151.452L154.613 20.5271ZM167.036 17.5929C166.133 17.5929 165.415 17.2276 164.964 16.5795C164.512 15.9432 164.246 14.8356 164.246 13.2801V12.9148C164.246 11.4537 164.512 10.346 164.964 9.70969C165.415 9.07338 166.133 8.6963 167.036 8.6963C167.754 8.6963 168.391 8.96733 168.831 9.42689C169.282 9.88645 169.549 10.5228 169.549 11.2533H173.15C173.15 9.50937 172.605 8.14247 171.529 7.03481C170.452 6.02142 169.005 5.47938 167.21 5.47938C165.138 5.47938 163.517 6.11569 162.347 7.49438C161.178 8.87306 160.541 10.6052 160.541 12.9031V13.1741C160.541 15.5544 161.166 17.3926 162.347 18.6652C163.517 20.0439 165.138 20.6802 167.21 20.6802C168.287 20.6802 169.282 20.4917 170.267 20.0439C171.17 19.5844 171.888 18.948 172.432 18.1232C172.976 17.2983 173.242 16.3792 173.242 15.3776H169.641C169.641 16.0139 169.375 16.5678 168.924 16.933C168.298 17.4162 167.754 17.5929 167.036 17.5929ZM90.343 21.4462H87.0085V19.4312C85.8391 20.9866 83.7666 22 81.8794 22C79.5406 22 77.6534 20.9866 76.3914 19.4312C75.222 17.97 74.5041 16.0375 74.5041 13.8457C74.5041 11.7365 75.0483 9.9925 76.3914 8.35458C77.9197 6.52812 79.8069 5.70327 81.972 5.70327C84.0445 5.70327 85.8391 6.62239 87.0085 8.35458V6.24531H90.343V21.4462ZM82.6088 9.26192C79.9111 9.26192 78.1049 11.2769 78.1049 13.9282C78.1049 16.4028 80.0848 18.3235 82.5162 18.3235C85.1212 18.3235 86.9274 16.4028 86.9274 13.7397C86.9274 11.2769 85.2139 9.26192 82.6088 9.26192ZM23.2942 21.9057C18.524 21.9057 15.3748 18.7006 15.3748 13.8457C15.3748 8.99089 18.6166 5.69148 23.2942 5.69148C28.0644 5.69148 31.2136 8.99089 31.2136 13.8457C31.2136 18.7006 28.0644 21.9057 23.2942 21.9057ZM23.2942 9.26192C20.5039 9.26192 18.8829 11.0059 18.8829 13.8457C18.8829 16.6856 20.5965 18.4296 23.2942 18.4296C26.0845 18.4296 27.7054 16.6856 27.7054 13.8457C27.6939 10.9116 26.0845 9.26192 23.2942 9.26192ZM0.242188 0.0942692H4.10927C5.9965 0.0942692 7.89531 3.37132e-07 9.68992 0.919122C11.4035 1.83824 12.6655 3.75897 12.6655 5.6797C12.6655 7.3294 11.855 8.97911 10.3267 9.70969C12.6655 10.4403 13.9275 12.4553 13.9275 14.8356C13.9275 16.9448 13.0244 18.6888 11.3224 19.9614C9.60887 21.2458 7.45534 21.3401 5.47549 21.3401H0.253765L0.242188 0.0942692ZM4.93132 8.24853C5.74179 8.24853 6.81855 8.24853 7.53639 7.97751C8.25423 7.61221 8.70578 6.88163 8.70578 6.05677C8.70578 5.23192 8.16161 4.50134 7.35114 4.13605C6.72592 3.77076 5.73021 3.94751 4.82711 3.94751H4.10927V8.24853H4.93132ZM5.82283 17.5929C6.99222 17.5929 7.98794 17.4987 9.0647 16.8623C9.78254 16.4028 10.0604 15.6722 10.0604 14.7531C10.0604 13.7397 9.60887 13.1034 8.62473 12.5495C7.72164 12.09 6.83013 12.09 5.83441 12.09H4.12085V17.5929H5.82283ZM66.3184 21.4462H69.9192V9.43867H74.0642V6.23353H62.3587V9.43867H66.411V21.4344H66.3184V21.4462ZM62.8913 14.9416C62.706 13.1976 61.8956 11.7365 60.5525 10.7231C59.0242 9.53294 57.0444 9.43867 55.1571 9.43867H53.8951V6.23353H50.2943V21.4462H53.8951H55.1571C57.0444 21.3519 59.0242 21.2576 60.5525 20.1618C61.9072 19.1484 62.7987 17.6872 62.8913 16.0375V15.9432C62.8913 15.7547 62.8913 15.6722 62.8913 15.4837C62.8913 15.2126 62.8913 15.1184 62.8913 14.9416ZM58.3064 17.1334C57.3106 17.7697 56.4191 17.7697 55.3308 17.7697H53.8025V12.8206H55.3308C56.4076 12.8206 57.4033 12.8206 58.3064 13.5512C58.9316 14.0107 59.2095 14.5645 59.2095 15.2951C59.1979 16.1318 58.9316 16.7681 58.3064 17.1334ZM36.2501 6.23353V14.1168C36.2501 15.3069 36.4353 17.7815 33.7261 17.7815H31.2947V21.3519H33.8997C39.3877 21.3519 39.7467 16.1318 39.7467 14.1168V9.35618H44.2506V21.3519H47.8513V6.23353H36.2501Z" fill="#011F68" />
</svg>