<svg width="241" height="30" viewBox="0 0 241 30" fill="none" xmlns="http://www.w3.org/2000/svg">
  <path d="M145.035 3.39047H145.404C147.525 3.39047 149.405 3.88859 151.157 4.77236C152.908 5.64006 154.162 7.02196 155.158 8.77343C156.154 10.5249 156.524 12.3889 156.524 14.6385C156.524 17.8843 155.528 20.5035 153.407 22.6406C151.285 24.6331 148.538 25.7579 145.035 25.7579V29.2608H139.668V25.7579H139.298C137.177 25.7579 135.169 25.2598 133.546 24.376C131.794 23.5083 130.541 22.1264 129.545 20.5035C128.548 18.8806 128.163 16.8881 128.163 14.7509C128.163 12.6299 128.661 10.6213 129.545 8.99839C130.541 7.24692 131.794 5.99357 133.546 4.99732C135.297 4.00107 137.161 3.50295 139.17 3.50295H139.668V0H145.035V3.39047ZM139.411 8.00214C137.531 8.00214 136.165 8.62882 135.04 9.75361C134.044 10.8784 133.417 12.5013 133.417 14.6224C133.417 16.6149 133.915 18.1253 135.04 19.2501C136.036 20.3749 137.531 21.0016 139.411 21.0016H139.668V8.00214H139.411ZM145.035 8.00214V21.0016H145.404C147.284 21.0016 148.65 20.3749 149.646 19.2501C150.643 18.1253 151.269 16.5024 151.269 14.6224C151.269 12.5013 150.771 11.007 149.775 9.75361C148.779 8.62882 147.284 8.00214 145.404 8.00214H145.035ZM162.276 7.87359L161.907 16.3739C161.778 18.8645 161.537 20.7445 161.039 21.8693C160.541 22.9941 159.914 23.4922 158.918 23.6208H158.291V27.9914H160.171C162.292 27.9914 163.915 27.2362 165.04 25.6133C166.165 24.1189 166.792 21.7408 167.033 18.3664L167.402 12.1157H172.142V27.8629H177.509V7.87359H162.276ZM190.766 28.361C187.761 28.361 185.399 27.4933 183.519 25.6133C181.639 23.7333 180.771 21.3712 180.771 18.3664V17.8682C180.771 15.8757 181.141 13.9957 181.896 12.5013C182.651 10.8784 183.776 9.75362 185.142 8.88591C186.508 8.01821 188.147 7.63257 190.011 7.63257C192.758 7.63257 194.879 8.50027 196.502 10.2517C198.125 12.0032 198.881 14.4938 198.881 17.6272V19.8768H186.138C186.267 21.1302 186.893 22.255 187.761 22.9941C188.629 23.7493 189.754 24.1189 191.007 24.1189C193.128 24.1189 194.622 23.3637 195.876 21.8693L198.495 24.8741C197.74 25.9989 196.615 26.8666 195.249 27.4933C193.883 27.9914 192.389 28.361 190.766 28.361ZM190.139 11.8747C189.014 11.8747 188.259 12.2442 187.52 12.9995C186.893 13.7547 186.395 14.7509 186.267 16.1168H193.755V15.7472C193.755 14.4938 193.385 13.6261 192.758 12.9995C192.132 12.1318 191.264 11.8747 190.139 11.8747ZM214.242 27.9914H221.36L214.242 17.4987L220.862 8.00214H214.114L209.743 15.4901H207.863V8.00214H202.367V28.12H207.734V20.7445H209.855L214.242 27.9914ZM231.484 23.9904C230.23 23.9904 229.234 23.4922 228.607 22.6085C227.981 21.7408 227.611 20.2303 227.611 18.1093V17.6111C227.611 15.6186 227.981 14.1082 228.607 13.2405C229.234 12.3728 230.23 11.8586 231.484 11.8586C232.48 11.8586 233.364 12.2282 233.974 12.8548C234.601 13.4815 234.971 14.3492 234.971 15.3455H239.968C239.968 12.9673 239.213 11.1034 237.718 9.59293C236.224 8.21103 234.215 7.47188 231.725 7.47188C228.848 7.47188 226.599 8.33958 224.976 10.2196C223.353 12.0996 222.469 14.4617 222.469 17.5951V17.9646C222.469 21.2105 223.337 23.7172 224.976 25.4526C226.599 27.3326 228.848 28.2003 231.725 28.2003C233.219 28.2003 234.601 27.9432 235.967 27.3326C237.22 26.7059 238.216 25.8382 238.972 24.7134C239.727 23.5886 240.096 22.3353 240.096 20.9695H235.099C235.099 21.8372 234.729 22.5924 234.103 23.0905C233.235 23.7493 232.48 23.9904 231.484 23.9904ZM125.046 29.2448H120.418V26.4971C118.795 28.6181 115.919 30 113.299 30C110.054 30 107.434 28.6181 105.683 26.4971C104.06 24.5046 103.064 21.8693 103.064 18.8806C103.064 16.0043 103.819 13.6261 105.683 11.3926C107.804 8.90198 110.423 7.77718 113.428 7.77718C116.304 7.77718 118.795 9.03053 120.418 11.3926V8.51634H125.046V29.2448ZM114.312 12.6299C110.568 12.6299 108.061 15.3776 108.061 18.993C108.061 22.3674 110.809 24.9866 114.183 24.9866C117.799 24.9866 120.305 22.3674 120.305 18.7359C120.305 15.3776 117.927 12.6299 114.312 12.6299ZM31.9925 29.8714C25.3723 29.8714 21.0016 25.5008 21.0016 18.8806C21.0016 12.2603 25.5008 7.76111 31.9925 7.76111C38.6127 7.76111 42.9834 12.2603 42.9834 18.8806C42.9834 25.5008 38.6127 29.8714 31.9925 29.8714ZM31.9925 12.6299C28.12 12.6299 25.8704 15.008 25.8704 18.8806C25.8704 22.7531 28.2485 25.1312 31.9925 25.1312C35.865 25.1312 38.1146 22.7531 38.1146 18.8806C38.0985 14.8795 35.865 12.6299 31.9925 12.6299ZM0 0.128549H5.3669C7.98607 0.128549 10.6213 4.59725e-07 13.1119 1.25335C15.4901 2.5067 17.2416 5.12587 17.2416 7.74504C17.2416 9.99464 16.1168 12.2442 13.9957 13.2405C17.2416 14.2367 18.993 16.9845 18.993 20.2303C18.993 23.1066 17.7397 25.4847 15.3776 27.2201C12.9995 28.9716 10.0107 29.1002 7.26299 29.1002H0.0160671L0 0.128549ZM6.50777 11.248C7.63256 11.248 9.12694 11.248 10.1232 10.8784C11.1194 10.3803 11.7461 9.38404 11.7461 8.25924C11.7461 7.13444 10.9909 6.13819 9.86609 5.64007C8.99839 5.14194 7.61649 5.38297 6.36315 5.38297H5.3669V11.248H6.50777ZM7.74504 23.9904C9.36797 23.9904 10.7499 23.8618 12.2442 22.9941C13.2405 22.3674 13.6261 21.3712 13.6261 20.1178C13.6261 18.7359 12.9995 17.8682 11.6336 17.113C10.3803 16.4863 9.14301 16.4863 7.76111 16.4863H5.38297V23.9904H7.74504ZM91.7032 29.2448H96.7006V12.8709H102.453V8.50027H86.2078V12.8709H91.8318V29.2287H91.7032V29.2448ZM86.947 20.3749C86.6899 17.9968 85.5651 16.0043 83.7011 14.6224C81.5801 12.9995 78.8323 12.8709 76.2132 12.8709H74.4617V8.50027H69.4644V29.2448H74.4617H76.2132C78.8323 29.1162 81.5801 28.9877 83.7011 27.4933C85.5811 26.1114 86.8184 24.1189 86.947 21.8693V21.7408C86.947 21.4837 86.947 21.3712 86.947 21.1141C86.947 20.7445 86.947 20.616 86.947 20.3749ZM80.5838 23.3637C79.2019 24.2314 77.9646 24.2314 76.4542 24.2314H74.3331V17.4826H76.4542C77.9486 17.4826 79.3305 17.4826 80.5838 18.4788C81.4515 19.1055 81.8372 19.8607 81.8372 20.857C81.8211 21.9979 81.4515 22.8656 80.5838 23.3637ZM49.9732 8.50027V19.2501C49.9732 20.8731 50.2303 24.2475 46.4703 24.2475H43.0959V29.1162H46.7113C54.3278 29.1162 54.8259 21.9979 54.8259 19.2501V12.7584H61.0766V29.1162H66.0739V8.50027H49.9732Z" fill="#0D1D7C" />
</svg>