<svg width="576" height="72" viewBox="0 0 576 72" fill="none" xmlns="http://www.w3.org/2000/svg">
  <path d="M347.944 8.13712H348.83C353.919 8.13712 358.429 9.33262 362.631 11.4537C366.833 13.5362 369.84 16.8527 372.23 21.0562C374.62 25.2598 375.506 29.7333 375.506 35.1323C375.506 42.9223 373.116 49.2084 368.028 54.3374C362.939 59.1194 356.347 61.819 347.944 61.819V70.226H335.068V61.819H334.182C329.093 61.819 324.275 60.6235 320.381 58.5024C316.179 56.4199 313.172 53.1034 310.782 49.2084C308.392 45.3133 307.467 40.5313 307.467 35.4022C307.467 30.3117 308.662 25.4912 310.782 21.5961C313.172 17.3926 316.179 14.3846 320.381 11.9936C324.583 9.60257 329.055 8.40707 333.873 8.40707H335.068V0H347.944V8.13712ZM334.452 19.2051C329.941 19.2051 326.665 20.7092 323.966 23.4087C321.576 26.1082 320.073 30.0032 320.073 35.0937C320.073 39.8757 321.268 43.5008 323.966 46.2003C326.356 48.8998 329.941 50.4039 334.452 50.4039H335.068V19.2051H334.452ZM347.944 19.2051V50.4039H348.83C353.341 50.4039 356.617 48.8998 359.007 46.2003C361.397 43.5008 362.901 39.6058 362.901 35.0937C362.901 30.0032 361.706 26.4167 359.316 23.4087C356.926 20.7092 353.341 19.2051 348.83 19.2051H347.944ZM389.307 18.8966L388.42 39.2973C388.112 45.2748 387.534 49.7868 386.339 52.4863C385.144 55.1859 383.64 56.3814 381.25 56.6899H379.747V67.1794H384.257C389.345 67.1794 393.239 65.3669 395.937 61.4719C398.636 57.8854 400.139 52.1778 400.717 44.0793L401.604 29.0777H412.976V66.8709H425.851V18.8966H389.307ZM457.654 68.0664C450.446 68.0664 444.779 65.9839 440.269 61.4719C435.758 56.9598 433.677 51.2908 433.677 44.0793V42.8838C433.677 38.1018 434.563 33.5897 436.375 30.0032C438.187 26.1082 440.886 23.4087 444.162 21.3262C447.439 19.2437 451.371 18.3182 455.843 18.3182C462.434 18.3182 467.523 20.4006 471.416 24.6042C475.31 28.8077 477.122 34.7852 477.122 42.3053V47.7043H446.552C446.861 50.7124 448.364 53.4119 450.446 55.1859C452.527 56.9984 455.226 57.8854 458.233 57.8854C463.321 57.8854 466.906 56.0728 469.913 52.4863L476.196 59.6979C474.385 62.3974 471.686 64.4799 468.41 65.9839C465.133 67.1794 461.548 68.0664 457.654 68.0664ZM456.151 28.4992C453.453 28.4992 451.641 29.3862 449.867 31.1987C448.364 33.0112 447.169 35.4022 446.861 38.6802H464.824V37.7932C464.824 34.7852 463.938 32.7027 462.434 31.1987C460.931 29.1162 458.849 28.4992 456.151 28.4992ZM513.975 67.1794H531.052L513.975 41.9968L529.857 19.2051H513.666L503.181 37.1762H498.671V19.2051H485.487V67.4879H498.362V49.7868H503.451L513.975 67.1794ZM555.338 57.5769C552.331 57.5769 549.941 56.3814 548.437 54.2603C546.934 52.1778 546.047 48.5528 546.047 43.4622V42.2667C546.047 37.4847 546.934 33.8597 548.437 31.7772C549.941 29.6947 552.331 28.4606 555.338 28.4606C557.728 28.4606 559.848 29.3476 561.313 30.8516C562.816 32.3556 563.703 34.4381 563.703 36.8291H575.692C575.692 31.1216 573.88 26.6481 570.295 23.023C566.71 19.7065 561.891 17.9325 555.916 17.9325C549.016 17.9325 543.619 20.015 539.725 24.5271C535.832 29.0391 533.712 34.7081 533.712 42.2282V43.1152C533.712 50.9052 535.793 56.9213 539.725 61.0862C543.619 65.5983 549.016 67.6808 555.916 67.6808C559.501 67.6808 562.816 67.0637 566.093 65.5983C569.1 64.0943 571.49 62.0118 573.302 59.3123C575.113 56.6127 576 53.6047 576 50.3267H564.011C564.011 52.4092 563.125 54.2217 561.621 55.4172C559.54 56.9984 557.728 57.5769 555.338 57.5769ZM299.989 70.1875H288.887V63.5929C284.993 68.6834 278.093 72 271.809 72C264.022 72 257.739 68.6834 253.537 63.5929C249.644 58.8109 247.254 52.4863 247.254 45.3133C247.254 38.4103 249.065 32.7027 253.537 27.3423C258.626 21.3648 264.909 18.6652 272.118 18.6652C279.018 18.6652 284.993 21.6733 288.887 27.3423V20.4392H299.989V70.1875ZM274.238 30.3117C265.256 30.3117 259.242 36.9063 259.242 45.5833C259.242 53.6818 265.834 59.9679 273.93 59.9679C282.603 59.9679 288.617 53.6818 288.617 44.9663C288.617 36.9063 282.912 30.3117 274.238 30.3117ZM76.7512 71.6915C60.869 71.6915 50.3836 61.2019 50.3836 45.3133C50.3836 29.4247 61.1773 18.6267 76.7512 18.6267C92.6334 18.6267 103.119 29.4247 103.119 45.3133C103.119 61.2019 92.6334 71.6915 76.7512 71.6915ZM76.7512 30.3117C67.4608 30.3117 62.064 36.0193 62.064 45.3133C62.064 54.6074 67.7692 60.3149 76.7512 60.3149C86.0415 60.3149 91.4383 54.6074 91.4383 45.3133C91.3998 35.7108 86.0415 30.3117 76.7512 30.3117ZM0 0.308517H12.8754C19.1589 0.308517 25.4809 1.10334e-06 31.456 3.00804C37.1613 6.01607 41.3631 12.3021 41.3631 18.5881C41.3631 23.9871 38.6647 29.3862 33.5762 31.7772C41.3631 34.1682 45.565 40.7627 45.565 48.5528C45.565 55.4558 42.5581 61.1634 36.8914 65.3283C31.1862 69.5319 24.0161 69.8404 17.4242 69.8404H0.0385455L0 0.308517ZM15.6124 26.9952C18.3108 26.9952 21.8959 26.9952 24.2859 26.1082C26.6759 24.9127 28.1794 22.5217 28.1794 19.8222C28.1794 17.1227 26.3675 14.7317 23.6691 13.5362C21.5875 12.3407 18.2722 12.9191 15.2654 12.9191H12.8754V26.9952H15.6124ZM18.5806 57.5769C22.4741 57.5769 25.7893 57.2683 29.3744 55.1859C31.7644 53.6818 32.6896 51.2908 32.6896 48.2828C32.6896 44.9663 31.1862 42.8838 27.9095 41.0712C24.9027 39.5672 21.9344 39.5672 18.6192 39.5672H12.9139V57.5769H18.5806ZM219.999 70.1875H231.988V30.8902H245.789V20.4006H206.816V30.8902H220.308V70.1489H219.999V70.1875ZM208.589 48.8998C207.972 43.1923 205.274 38.4103 200.802 35.0937C195.714 31.1987 189.122 30.8902 182.838 30.8902H178.636V20.4006H166.648V70.1875H178.636H182.838C189.122 69.8789 195.714 69.5704 200.802 65.9839C205.312 62.6674 208.281 57.8854 208.589 52.4863V52.1778C208.589 51.5608 208.589 51.2908 208.589 50.6738C208.589 49.7868 208.589 49.4783 208.589 48.8998ZM193.323 56.0728C190.008 58.1553 187.04 58.1553 183.416 58.1553H178.328V41.9582H183.416C187.001 41.9582 190.317 41.9582 193.323 44.3492C195.405 45.8532 196.33 47.6658 196.33 50.0568C196.292 52.7948 195.405 54.8773 193.323 56.0728ZM119.888 20.4006V46.2003C119.888 50.0953 120.504 58.1939 111.484 58.1939H103.389V69.879H112.062C130.334 69.879 131.529 52.7948 131.529 46.2003V30.6202H146.525V69.879H158.514V20.4006H119.888Z" fill="white" />
</svg>