<svg width="64" height="64" fill="none" xmlns="http://www.w3.org/2000/svg"><rect x="1" y="1" width="62" height="62" rx="7" stroke="#000" stroke-width="2"/><rect x="1" y="1" width="62" height="62" rx="7" stroke="url(#a)" stroke-width="2"/><path d="M26.082 15.27c-2.992 0-5.702.453-7.71 1.209-1.004.378-1.837.826-2.448 1.369-.61.543-1.014 1.214-1.014 1.959l.002.054-.002.011v5.057l.002.054-.002.014v5.057c0 .02 0 .038.002.058v.001c-.002.003-.002.006-.002.007v5.06c0 .019 0 .038.002.057v.001c-.002.002-.002.005-.002.007v5.06c0 .702.362 1.34.916 1.864.553.524 1.306.963 2.222 1.338 1.832.75 4.32 1.23 7.127 1.32a.532.532 0 0 0 .552-.518.533.533 0 0 0-.517-.552c-2.703-.085-5.09-.56-6.754-1.24-.833-.341-1.482-.733-1.895-1.125-.413-.392-.581-.748-.581-1.087v-3.122c.537.463 1.239.86 2.072 1.2 1.833.75 4.316 1.23 7.123 1.318v.002a.534.534 0 0 0 .407-.9.53.53 0 0 0-.372-.17c-2.703-.085-5.09-.56-6.754-1.24-.832-.34-1.482-.733-1.895-1.125-.413-.392-.58-.747-.58-1.087v-3.12c.535.463 1.233.86 2.067 1.2 1.833.75 4.32 1.23 7.127 1.318v-.001a.532.532 0 0 0 .552-.517.537.537 0 0 0-.517-.552c-2.703-.086-5.09-.56-6.754-1.24-.832-.342-1.481-.734-1.895-1.126-.413-.392-.58-.751-.58-1.09v-3.119c.604.522 1.417.96 2.391 1.327 2.009.756 4.72 1.204 7.71 1.204 2.992 0 5.7-.448 7.71-1.204.977-.368 1.786-.807 2.393-1.33v.647l-.002.001a.536.536 0 1 0 1.07 0v-7.773c0-.744-.408-1.414-1.019-1.958-.61-.543-1.44-.992-2.444-1.37-2.009-.755-4.718-1.209-7.709-1.209h.001Zm0 1.07c2.882 0 5.489.445 7.33 1.137.92.347 1.646.759 2.112 1.174.466.414.66.795.66 1.156 0 .36-.194.743-.66 1.157-.466.415-1.192.826-2.113 1.172-1.84.692-4.447 1.138-7.329 1.138-2.882 0-5.49-.445-7.33-1.138-.921-.346-1.647-.757-2.113-1.172-.466-.414-.66-.796-.66-1.157s.194-.742.66-1.156c.466-.415 1.192-.827 2.112-1.174 1.841-.692 4.449-1.136 7.331-1.136Zm10.102 5.468v3.122c0 .361-.194.746-.66 1.16-.466.416-1.192.823-2.113 1.17-1.84.691-4.447 1.136-7.329 1.136-2.882 0-5.49-.445-7.33-1.136-.921-.347-1.647-.755-2.113-1.17-.466-.414-.66-.799-.66-1.16v-3.12c.606.522 1.418.957 2.393 1.323 2.008.756 4.719 1.21 7.71 1.21 2.991 0 5.7-.454 7.709-1.21.977-.367 1.787-.802 2.393-1.325Zm1.784 7.35c-2.991 0-5.7.448-7.709 1.204-1.004.378-1.837.831-2.448 1.374-.611.542-1.015 1.214-1.015 1.958l.002.054c-.002.005-.002.009-.002.013v5.057l.002.055v-.001c-.002.004-.002.008-.002.013v5.056c0 .745.404 1.415 1.015 1.96.61.542 1.444.995 2.448 1.373 2.009.755 4.718 1.204 7.71 1.204 2.99 0 5.697-.449 7.705-1.204 1.004-.378 1.837-.831 2.447-1.374.611-.542 1.015-1.214 1.015-1.959V33.694l-.002-.001-.001-.053c-.019-.723-.416-1.375-1.013-1.905-.61-.542-1.443-.995-2.447-1.373-2.009-.756-4.715-1.205-7.706-1.205h.001Zm0 1.07c2.882 0 5.49.444 7.331 1.137.92.347 1.647.753 2.112 1.168.466.414.655.8.655 1.161s-.189.742-.655 1.157c-.465.415-1.191.822-2.112 1.169-1.84.691-4.449 1.14-7.33 1.14-2.883 0-5.494-.447-7.335-1.14-.92-.347-1.646-.755-2.112-1.17-.466-.414-.656-.795-.656-1.156 0-.36.19-.747.656-1.162.466-.414 1.192-.82 2.112-1.167 1.841-.692 4.452-1.138 7.334-1.138Zm-10.102 5.468c.605.521 1.418.96 2.393 1.327 2.009.755 4.718 1.207 7.71 1.207 2.99 0 5.697-.452 7.705-1.207.974-.367 1.787-.806 2.392-1.327v3.122c0 .36-.189.743-.655 1.158-.466.415-1.192.825-2.112 1.172-1.84.691-4.449 1.137-7.33 1.137-2.883 0-5.494-.444-7.335-1.137-.92-.347-1.646-.758-2.112-1.172-.466-.415-.656-.797-.656-1.158v-3.122Zm0 5.128c.605.521 1.418.956 2.393 1.322 2.009.756 4.718 1.21 7.71 1.21 2.99 0 5.697-.454 7.705-1.21.974-.366 1.787-.8 2.392-1.322v3.12c0 .36-.189.742-.655 1.157-.466.415-1.192.825-2.112 1.172-1.84.691-4.449 1.137-7.33 1.137-2.883 0-5.494-.444-7.335-1.137-.92-.347-1.646-.757-2.112-1.172-.466-.415-.656-.797-.656-1.158v-3.12Z" fill="#000"/><path d="M26.082 15.27c-2.992 0-5.702.453-7.71 1.209-1.004.378-1.837.826-2.448 1.369-.61.543-1.014 1.214-1.014 1.959l.002.054-.002.011v5.057l.002.054-.002.014v5.057c0 .02 0 .038.002.058v.001c-.002.003-.002.006-.002.007v5.06c0 .019 0 .038.002.057v.001c-.002.002-.002.005-.002.007v5.06c0 .702.362 1.34.916 1.864.553.524 1.306.963 2.222 1.338 1.832.75 4.32 1.23 7.127 1.32a.532.532 0 0 0 .552-.518.533.533 0 0 0-.517-.552c-2.703-.085-5.09-.56-6.754-1.24-.833-.341-1.482-.733-1.895-1.125-.413-.392-.581-.748-.581-1.087v-3.122c.537.463 1.239.86 2.072 1.2 1.833.75 4.316 1.23 7.123 1.318v.002a.534.534 0 0 0 .407-.9.53.53 0 0 0-.372-.17c-2.703-.085-5.09-.56-6.754-1.24-.832-.34-1.482-.733-1.895-1.125-.413-.392-.58-.747-.58-1.087v-3.12c.535.463 1.233.86 2.067 1.2 1.833.75 4.32 1.23 7.127 1.318v-.001a.532.532 0 0 0 .552-.517.537.537 0 0 0-.517-.552c-2.703-.086-5.09-.56-6.754-1.24-.832-.342-1.481-.734-1.895-1.126-.413-.392-.58-.751-.58-1.09v-3.119c.604.522 1.417.96 2.391 1.327 2.009.756 4.72 1.204 7.71 1.204 2.992 0 5.7-.448 7.71-1.204.977-.368 1.786-.807 2.393-1.33v.647l-.002.001a.536.536 0 1 0 1.07 0v-7.773c0-.744-.408-1.414-1.019-1.958-.61-.543-1.44-.992-2.444-1.37-2.009-.755-4.718-1.209-7.709-1.209h.001Zm0 1.07c2.882 0 5.489.445 7.33 1.137.92.347 1.646.759 2.112 1.174.466.414.66.795.66 1.156 0 .36-.194.743-.66 1.157-.466.415-1.192.826-2.113 1.172-1.84.692-4.447 1.138-7.329 1.138-2.882 0-5.49-.445-7.33-1.138-.921-.346-1.647-.757-2.113-1.172-.466-.414-.66-.796-.66-1.157s.194-.742.66-1.156c.466-.415 1.192-.827 2.112-1.174 1.841-.692 4.449-1.136 7.331-1.136Zm10.102 5.468v3.122c0 .361-.194.746-.66 1.16-.466.416-1.192.823-2.113 1.17-1.84.691-4.447 1.136-7.329 1.136-2.882 0-5.49-.445-7.33-1.136-.921-.347-1.647-.755-2.113-1.17-.466-.414-.66-.799-.66-1.16v-3.12c.606.522 1.418.957 2.393 1.323 2.008.756 4.719 1.21 7.71 1.21 2.991 0 5.7-.454 7.709-1.21.977-.367 1.787-.802 2.393-1.325Zm1.784 7.35c-2.991 0-5.7.448-7.709 1.204-1.004.378-1.837.831-2.448 1.374-.611.542-1.015 1.214-1.015 1.958l.002.054c-.002.005-.002.009-.002.013v5.057l.002.055v-.001c-.002.004-.002.008-.002.013v5.056c0 .745.404 1.415 1.015 1.96.61.542 1.444.995 2.448 1.373 2.009.755 4.718 1.204 7.71 1.204 2.99 0 5.697-.449 7.705-1.204 1.004-.378 1.837-.831 2.447-1.374.611-.542 1.015-1.214 1.015-1.959V33.694l-.002-.001-.001-.053c-.019-.723-.416-1.375-1.013-1.905-.61-.542-1.443-.995-2.447-1.373-2.009-.756-4.715-1.205-7.706-1.205h.001Zm0 1.07c2.882 0 5.49.444 7.331 1.137.92.347 1.647.753 2.112 1.168.466.414.655.8.655 1.161s-.189.742-.655 1.157c-.465.415-1.191.822-2.112 1.169-1.84.691-4.449 1.14-7.33 1.14-2.883 0-5.494-.447-7.335-1.14-.92-.347-1.646-.755-2.112-1.17-.466-.414-.656-.795-.656-1.156 0-.36.19-.747.656-1.162.466-.414 1.192-.82 2.112-1.167 1.841-.692 4.452-1.138 7.334-1.138Zm-10.102 5.468c.605.521 1.418.96 2.393 1.327 2.009.755 4.718 1.207 7.71 1.207 2.99 0 5.697-.452 7.705-1.207.974-.367 1.787-.806 2.392-1.327v3.122c0 .36-.189.743-.655 1.158-.466.415-1.192.825-2.112 1.172-1.84.691-4.449 1.137-7.33 1.137-2.883 0-5.494-.444-7.335-1.137-.92-.347-1.646-.758-2.112-1.172-.466-.415-.656-.797-.656-1.158v-3.122Zm0 5.128c.605.521 1.418.956 2.393 1.322 2.009.756 4.718 1.21 7.71 1.21 2.99 0 5.697-.454 7.705-1.21.974-.366 1.787-.8 2.392-1.322v3.12c0 .36-.189.742-.655 1.157-.466.415-1.192.825-2.112 1.172-1.84.691-4.449 1.137-7.33 1.137-2.883 0-5.494-.444-7.335-1.137-.92-.347-1.646-.757-2.112-1.172-.466-.415-.656-.797-.656-1.158v-3.12Z" fill="url(#b)"/><path d="M26.082 15.27c-2.992 0-5.702.453-7.71 1.209-1.004.378-1.837.826-2.448 1.369-.61.543-1.014 1.214-1.014 1.959l.002.054-.002.011v5.057l.002.054-.002.014v5.057c0 .02 0 .038.002.058v.001c-.002.003-.002.006-.002.007v5.06c0 .019 0 .038.002.057v.001c-.002.002-.002.005-.002.007v5.06c0 .702.362 1.34.916 1.864.553.524 1.306.963 2.222 1.338 1.832.75 4.32 1.23 7.127 1.32a.532.532 0 0 0 .552-.518.533.533 0 0 0-.517-.552c-2.703-.085-5.09-.56-6.754-1.24-.833-.341-1.482-.733-1.895-1.125-.413-.392-.581-.748-.581-1.087v-3.122c.537.463 1.239.86 2.072 1.2 1.833.75 4.316 1.23 7.123 1.318v.002a.534.534 0 0 0 .407-.9.53.53 0 0 0-.372-.17c-2.703-.085-5.09-.56-6.754-1.24-.832-.34-1.482-.733-1.895-1.125-.413-.392-.58-.747-.58-1.087v-3.12c.535.463 1.233.86 2.067 1.2 1.833.75 4.32 1.23 7.127 1.318v-.001a.532.532 0 0 0 .552-.517.537.537 0 0 0-.517-.552c-2.703-.086-5.09-.56-6.754-1.24-.832-.342-1.481-.734-1.895-1.126-.413-.392-.58-.751-.58-1.09v-3.119c.604.522 1.417.96 2.391 1.327 2.009.756 4.72 1.204 7.71 1.204 2.992 0 5.7-.448 7.71-1.204.977-.368 1.786-.807 2.393-1.33v.647l-.002.001a.536.536 0 1 0 1.07 0v-7.773c0-.744-.408-1.414-1.019-1.958-.61-.543-1.44-.992-2.444-1.37-2.009-.755-4.718-1.209-7.709-1.209h.001Zm0 1.07c2.882 0 5.489.445 7.33 1.137.92.347 1.646.759 2.112 1.174.466.414.66.795.66 1.156 0 .36-.194.743-.66 1.157-.466.415-1.192.826-2.113 1.172-1.84.692-4.447 1.138-7.329 1.138-2.882 0-5.49-.445-7.33-1.138-.921-.346-1.647-.757-2.113-1.172-.466-.414-.66-.796-.66-1.157s.194-.742.66-1.156c.466-.415 1.192-.827 2.112-1.174 1.841-.692 4.449-1.136 7.331-1.136Zm10.102 5.468v3.122c0 .361-.194.746-.66 1.16-.466.416-1.192.823-2.113 1.17-1.84.691-4.447 1.136-7.329 1.136-2.882 0-5.49-.445-7.33-1.136-.921-.347-1.647-.755-2.113-1.17-.466-.414-.66-.799-.66-1.16v-3.12c.606.522 1.418.957 2.393 1.323 2.008.756 4.719 1.21 7.71 1.21 2.991 0 5.7-.454 7.709-1.21.977-.367 1.787-.802 2.393-1.325Zm1.784 7.35c-2.991 0-5.7.448-7.709 1.204-1.004.378-1.837.831-2.448 1.374-.611.542-1.015 1.214-1.015 1.958l.002.054c-.002.005-.002.009-.002.013v5.057l.002.055v-.001c-.002.004-.002.008-.002.013v5.056c0 .745.404 1.415 1.015 1.96.61.542 1.444.995 2.448 1.373 2.009.755 4.718 1.204 7.71 1.204 2.99 0 5.697-.449 7.705-1.204 1.004-.378 1.837-.831 2.447-1.374.611-.542 1.015-1.214 1.015-1.959V33.694l-.002-.001-.001-.053c-.019-.723-.416-1.375-1.013-1.905-.61-.542-1.443-.995-2.447-1.373-2.009-.756-4.715-1.205-7.706-1.205h.001Zm0 1.07c2.882 0 5.49.444 7.331 1.137.92.347 1.647.753 2.112 1.168.466.414.655.8.655 1.161s-.189.742-.655 1.157c-.465.415-1.191.822-2.112 1.169-1.84.691-4.449 1.14-7.33 1.14-2.883 0-5.494-.447-7.335-1.14-.92-.347-1.646-.755-2.112-1.17-.466-.414-.656-.795-.656-1.156 0-.36.19-.747.656-1.162.466-.414 1.192-.82 2.112-1.167 1.841-.692 4.452-1.138 7.334-1.138Zm-10.102 5.468c.605.521 1.418.96 2.393 1.327 2.009.755 4.718 1.207 7.71 1.207 2.99 0 5.697-.452 7.705-1.207.974-.367 1.787-.806 2.392-1.327v3.122c0 .36-.189.743-.655 1.158-.466.415-1.192.825-2.112 1.172-1.84.691-4.449 1.137-7.33 1.137-2.883 0-5.494-.444-7.335-1.137-.92-.347-1.646-.758-2.112-1.172-.466-.415-.656-.797-.656-1.158v-3.122Zm0 5.128c.605.521 1.418.956 2.393 1.322 2.009.756 4.718 1.21 7.71 1.21 2.99 0 5.697-.454 7.705-1.21.974-.366 1.787-.8 2.392-1.322v3.12c0 .36-.189.742-.655 1.157-.466.415-1.192.825-2.112 1.172-1.84.691-4.449 1.137-7.33 1.137-2.883 0-5.494-.444-7.335-1.137-.92-.347-1.646-.757-2.112-1.172-.466-.415-.656-.797-.656-1.158v-3.12Z" stroke="#000"/><path d="M26.082 15.27c-2.992 0-5.702.453-7.71 1.209-1.004.378-1.837.826-2.448 1.369-.61.543-1.014 1.214-1.014 1.959l.002.054-.002.011v5.057l.002.054-.002.014v5.057c0 .02 0 .038.002.058v.001c-.002.003-.002.006-.002.007v5.06c0 .019 0 .038.002.057v.001c-.002.002-.002.005-.002.007v5.06c0 .702.362 1.34.916 1.864.553.524 1.306.963 2.222 1.338 1.832.75 4.32 1.23 7.127 1.32a.532.532 0 0 0 .552-.518.533.533 0 0 0-.517-.552c-2.703-.085-5.09-.56-6.754-1.24-.833-.341-1.482-.733-1.895-1.125-.413-.392-.581-.748-.581-1.087v-3.122c.537.463 1.239.86 2.072 1.2 1.833.75 4.316 1.23 7.123 1.318v.002a.534.534 0 0 0 .407-.9.53.53 0 0 0-.372-.17c-2.703-.085-5.09-.56-6.754-1.24-.832-.34-1.482-.733-1.895-1.125-.413-.392-.58-.747-.58-1.087v-3.12c.535.463 1.233.86 2.067 1.2 1.833.75 4.32 1.23 7.127 1.318v-.001a.532.532 0 0 0 .552-.517.537.537 0 0 0-.517-.552c-2.703-.086-5.09-.56-6.754-1.24-.832-.342-1.481-.734-1.895-1.126-.413-.392-.58-.751-.58-1.09v-3.119c.604.522 1.417.96 2.391 1.327 2.009.756 4.72 1.204 7.71 1.204 2.992 0 5.7-.448 7.71-1.204.977-.368 1.786-.807 2.393-1.33v.647l-.002.001a.536.536 0 1 0 1.07 0v-7.773c0-.744-.408-1.414-1.019-1.958-.61-.543-1.44-.992-2.444-1.37-2.009-.755-4.718-1.209-7.709-1.209h.001Zm0 1.07c2.882 0 5.489.445 7.33 1.137.92.347 1.646.759 2.112 1.174.466.414.66.795.66 1.156 0 .36-.194.743-.66 1.157-.466.415-1.192.826-2.113 1.172-1.84.692-4.447 1.138-7.329 1.138-2.882 0-5.49-.445-7.33-1.138-.921-.346-1.647-.757-2.113-1.172-.466-.414-.66-.796-.66-1.157s.194-.742.66-1.156c.466-.415 1.192-.827 2.112-1.174 1.841-.692 4.449-1.136 7.331-1.136Zm10.102 5.468v3.122c0 .361-.194.746-.66 1.16-.466.416-1.192.823-2.113 1.17-1.84.691-4.447 1.136-7.329 1.136-2.882 0-5.49-.445-7.33-1.136-.921-.347-1.647-.755-2.113-1.17-.466-.414-.66-.799-.66-1.16v-3.12c.606.522 1.418.957 2.393 1.323 2.008.756 4.719 1.21 7.71 1.21 2.991 0 5.7-.454 7.709-1.21.977-.367 1.787-.802 2.393-1.325Zm1.784 7.35c-2.991 0-5.7.448-7.709 1.204-1.004.378-1.837.831-2.448 1.374-.611.542-1.015 1.214-1.015 1.958l.002.054c-.002.005-.002.009-.002.013v5.057l.002.055v-.001c-.002.004-.002.008-.002.013v5.056c0 .745.404 1.415 1.015 1.96.61.542 1.444.995 2.448 1.373 2.009.755 4.718 1.204 7.71 1.204 2.99 0 5.697-.449 7.705-1.204 1.004-.378 1.837-.831 2.447-1.374.611-.542 1.015-1.214 1.015-1.959V33.694l-.002-.001-.001-.053c-.019-.723-.416-1.375-1.013-1.905-.61-.542-1.443-.995-2.447-1.373-2.009-.756-4.715-1.205-7.706-1.205h.001Zm0 1.07c2.882 0 5.49.444 7.331 1.137.92.347 1.647.753 2.112 1.168.466.414.655.8.655 1.161s-.189.742-.655 1.157c-.465.415-1.191.822-2.112 1.169-1.84.691-4.449 1.14-7.33 1.14-2.883 0-5.494-.447-7.335-1.14-.92-.347-1.646-.755-2.112-1.17-.466-.414-.656-.795-.656-1.156 0-.36.19-.747.656-1.162.466-.414 1.192-.82 2.112-1.167 1.841-.692 4.452-1.138 7.334-1.138Zm-10.102 5.468c.605.521 1.418.96 2.393 1.327 2.009.755 4.718 1.207 7.71 1.207 2.99 0 5.697-.452 7.705-1.207.974-.367 1.787-.806 2.392-1.327v3.122c0 .36-.189.743-.655 1.158-.466.415-1.192.825-2.112 1.172-1.84.691-4.449 1.137-7.33 1.137-2.883 0-5.494-.444-7.335-1.137-.92-.347-1.646-.758-2.112-1.172-.466-.415-.656-.797-.656-1.158v-3.122Zm0 5.128c.605.521 1.418.956 2.393 1.322 2.009.756 4.718 1.21 7.71 1.21 2.99 0 5.697-.454 7.705-1.21.974-.366 1.787-.8 2.392-1.322v3.12c0 .36-.189.742-.655 1.157-.466.415-1.192.825-2.112 1.172-1.84.691-4.449 1.137-7.33 1.137-2.883 0-5.494-.444-7.335-1.137-.92-.347-1.646-.757-2.112-1.172-.466-.415-.656-.797-.656-1.158v-3.12Z" stroke="url(#c)"/><defs><linearGradient id="a" x1="43.821" y1="66.731" x2="-14.168" y2="39.838" gradientUnits="userSpaceOnUse"><stop stop-color="#F9A825"/><stop offset="1" stop-color="#FF3D00"/></linearGradient><linearGradient id="b" x1="38.345" y1="49.895" x2="7.671" y2="35.235" gradientUnits="userSpaceOnUse"><stop stop-color="#F9A825"/><stop offset="1" stop-color="#FF3D00"/></linearGradient><linearGradient id="c" x1="38.345" y1="49.895" x2="7.671" y2="35.235" gradientUnits="userSpaceOnUse"><stop stop-color="#F9A825"/><stop offset="1" stop-color="#FF3D00"/></linearGradient></defs></svg>