<svg width="64" height="64" fill="none" xmlns="http://www.w3.org/2000/svg"><rect x="1" y="1" width="62" height="62" rx="7" stroke="#000" stroke-width="2"/><rect x="1" y="1" width="62" height="62" rx="7" stroke="url(#a)" stroke-width="2"/><path d="M48.085 46.87h-.405V31.92a1.212 1.212 0 1 0-2.424 0v14.95h-4.04v-10.1c0-1.56-1.27-2.83-2.83-2.83H25.457a2.833 2.833 0 0 0-2.828 2.83v10.1h-4.041V31.92a1.212 1.212 0 1 0-2.424 0v14.95h-.405a1.212 1.212 0 1 0 0 2.425h32.323a1.212 1.212 0 1 0 0-2.424h.003Zm-9.294-10.1v10.1h-5.656V36.367h5.253c.223 0 .404.182.404.405l-.001-.002Zm-13.736 0c0-.223.181-.405.404-.405h5.253v10.504h-5.656V36.768l-.002.001Zm-8.18-8.485h10.39c1.296.998 2.898 1.616 4.656 1.616 1.76 0 3.36-.618 4.656-1.616h10.39a2.014 2.014 0 0 0 1.91-2.661l-2.136-6.426a4.466 4.466 0 0 0-4.218-3.034h-5.946c-1.295-.999-2.898-1.617-4.656-1.617-1.759 0-3.36.618-4.656 1.617H21.32a4.47 4.47 0 0 0-4.222 3.043l-2.131 6.412a2.032 2.032 0 0 0 .274 1.828c.377.524.988.836 1.635.836v.002Zm27.57-8.314 1.96 5.89h-7.763c.591-1.089.958-2.314.958-3.637s-.367-2.549-.958-3.636h3.882c.867 0 1.64.56 1.921 1.383Zm-7.27 2.253a5.26 5.26 0 0 1-5.252 5.253 5.26 5.26 0 0 1-5.253-5.253 5.26 5.26 0 0 1 5.253-5.253 5.26 5.26 0 0 1 5.253 5.253ZM19.398 19.98a2.04 2.04 0 0 1 1.923-1.394h3.883c-.59 1.088-.957 2.314-.957 3.637s.366 2.548.957 3.636h-7.76l1.954-5.879Zm9.697 2.243c0-.67.542-1.212 1.212-1.212h.405v-.405a1.212 1.212 0 1 1 2.424 0v.405h.404a1.212 1.212 0 1 1 0 2.424h-.404v.404a1.212 1.212 0 1 1-2.424 0v-.404h-.405c-.67 0-1.212-.543-1.212-1.212Z" fill="#000"/><path d="M48.085 46.87h-.405V31.92a1.212 1.212 0 1 0-2.424 0v14.95h-4.04v-10.1c0-1.56-1.27-2.83-2.83-2.83H25.457a2.833 2.833 0 0 0-2.828 2.83v10.1h-4.041V31.92a1.212 1.212 0 1 0-2.424 0v14.95h-.405a1.212 1.212 0 1 0 0 2.425h32.323a1.212 1.212 0 1 0 0-2.424h.003Zm-9.294-10.1v10.1h-5.656V36.367h5.253c.223 0 .404.182.404.405l-.001-.002Zm-13.736 0c0-.223.181-.405.404-.405h5.253v10.504h-5.656V36.768l-.002.001Zm-8.18-8.485h10.39c1.296.998 2.898 1.616 4.656 1.616 1.76 0 3.36-.618 4.656-1.616h10.39a2.014 2.014 0 0 0 1.91-2.661l-2.136-6.426a4.466 4.466 0 0 0-4.218-3.034h-5.946c-1.295-.999-2.898-1.617-4.656-1.617-1.759 0-3.36.618-4.656 1.617H21.32a4.47 4.47 0 0 0-4.222 3.043l-2.131 6.412a2.032 2.032 0 0 0 .274 1.828c.377.524.988.836 1.635.836v.002Zm27.57-8.314 1.96 5.89h-7.763c.591-1.089.958-2.314.958-3.637s-.367-2.549-.958-3.636h3.882c.867 0 1.64.56 1.921 1.383Zm-7.27 2.253a5.26 5.26 0 0 1-5.252 5.253 5.26 5.26 0 0 1-5.253-5.253 5.26 5.26 0 0 1 5.253-5.253 5.26 5.26 0 0 1 5.253 5.253ZM19.398 19.98a2.04 2.04 0 0 1 1.923-1.394h3.883c-.59 1.088-.957 2.314-.957 3.637s.366 2.548.957 3.636h-7.76l1.954-5.879Zm9.697 2.243c0-.67.542-1.212 1.212-1.212h.405v-.405a1.212 1.212 0 1 1 2.424 0v.405h.404a1.212 1.212 0 1 1 0 2.424h-.404v.404a1.212 1.212 0 1 1-2.424 0v-.404h-.405c-.67 0-1.212-.543-1.212-1.212Z" fill="url(#b)"/><defs><linearGradient id="a" x1="43.821" y1="66.731" x2="-14.168" y2="39.838" gradientUnits="userSpaceOnUse"><stop stop-color="#F9A825"/><stop offset="1" stop-color="#FF3D00"/></linearGradient><linearGradient id="b" x1="38.339" y1="50.778" x2="6.854" y2="36.178" gradientUnits="userSpaceOnUse"><stop stop-color="#F9A825"/><stop offset="1" stop-color="#FF3D00"/></linearGradient></defs></svg>