<svg width="144" height="144" fill="none" xmlns="http://www.w3.org/2000/svg"><path d="M137.202 76.096c-.108 1.404-.507 2.475-1.195 3.214-.678.75-1.624 1.078-2.836.984-1.213-.094-2.102-.564-2.667-1.41-.556-.835-.78-1.954-.672-3.358l.105-1.355-3.797-.294.129-1.659 11.166.863-.128 1.66-.105 1.355Zm-5.931-.49c-.07.904.046 1.608.35 2.113.314.506.875.79 1.683.852.808.063 1.401-.132 1.778-.585.388-.451.617-1.129.687-2.033l.102-1.324-4.498-.348-.102 1.325Zm-2.792 13.142a10.425 10.425 0 0 1-1.028-.312l1.263-5.291c-1.656-.23-2.673.448-3.052 2.035a5.928 5.928 0 0 0-.06 2.387l-1.339-.04c-.177-.864-.146-1.8.094-2.806.3-1.256.902-2.17 1.806-2.744.913-.56 2.017-.687 3.314-.377 1.225.292 2.135.866 2.731 1.72.607.859.776 1.853.506 2.984-.24 1.006-.751 1.723-1.533 2.15-.785.439-1.685.536-2.702.294Zm.337-1.549c.059.026.141.05.245.075.56.134 1.058.094 1.493-.12.443-.202.732-.588.868-1.159.144-.601.062-1.13-.246-1.588-.3-.444-.783-.785-1.451-1.02l-.909 3.812Zm.207 9.656-1.225-.47 1.296-3.376-6.348-2.436.579-1.51 7.573 2.907-.579 1.51-1.296 3.375Zm-5.164 1.24a22.626 22.626 0 0 1-1.59-.959 83.033 83.033 0 0 1 1.789 3.267 60.7 60.7 0 0 1 1.443 3.165l-.739 1.328-7.088-3.944.747-1.343 4.166 2.319c.513.285.926.54 1.241.764-.951-2.043-2.105-4.235-3.462-6.578l.731-1.314 7.088 3.944-.747 1.343-3.579-1.992Zm-4.641 13.848-.834-1.043c.623-.355 1.123-.779 1.499-1.27.468-.609.624-1.242.469-1.899-.153-.641-.585-1.235-1.296-1.78-.745-.572-1.445-.833-2.1-.785-.656.048-1.24.407-1.753 1.075-.37.483-.625 1.06-.765 1.733l-1.216-.57c.127-.709.451-1.402.97-2.079.792-1.033 1.701-1.613 2.727-1.74 1.027-.113 2.065.234 3.115 1.039 1.032.792 1.646 1.7 1.842 2.724.189 1.033-.093 2.04-.846 3.021-.532.694-1.136 1.219-1.812 1.574Zm-5.277 5.867-.928-.928 1.708-1.708-4.808-4.808 1.154-1.154 4.808 4.808 1.709-1.709.928.928-2.863 2.863-1.708 1.708Zm-4.457 3.874c-1.01.752-2.012 1.039-3.008.863-.995-.177-1.866-.765-2.611-1.766-.796-1.07-1.159-2.13-1.089-3.179.061-1.043.593-1.937 1.594-2.682a4.08 4.08 0 0 1 1.487-.708l-1.863-2.503 1.297-.965 6.305 8.471a7.118 7.118 0 0 1-2.112 2.469Zm.233-2.287-3.038-4.081c-.534.104-.976.287-1.327.548-1.309.975-1.365 2.266-.168 3.875.503.676 1.063 1.097 1.679 1.264.607.173 1.232.02 1.873-.457.394-.293.721-.676.981-1.149Zm-12.361.008c.898-.469 1.692-.632 2.381-.487.69.145 1.203.539 1.539 1.181.371.709.4 1.386.087 2.031-.312.645-.889 1.188-1.73 1.628a7.71 7.71 0 0 1-1.585.63l.311.595c.534 1.021 1.354 1.242 2.46.664a5.603 5.603 0 0 0 1.715-1.348l.884 1c-.519.62-1.222 1.162-2.11 1.627-.964.504-1.818.644-2.562.419-.743-.225-1.353-.791-1.827-1.698l-2.129-4.069c.539-.836 1.394-1.56 2.566-2.173Zm-.784 2.161.972 1.858c.513-.124.987-.3 1.421-.527 1.021-.534 1.324-1.198.909-1.992-.396-.756-1.09-.875-2.082-.356-.577.302-.983.641-1.22 1.017ZM85.52 125.79l-1.093-3.244 1.319-.445.674 2.001 4.625-1.559 1.531-.516 2.591 7.687-1.531.516-2.172-6.443-3.275 1.104 2.172 6.443-1.531.517-2.172-6.444-1.138.383Zm-2.335 3.175a22.769 22.769 0 0 1-.236-1.842 82.477 82.477 0 0 1-1.45 3.431c-.401.854-.93 1.886-1.587 3.095l-1.5.245-1.306-8.006 1.516-.247.768 4.705c.094.579.151 1.062.171 1.448 1.012-2.013 2.015-4.279 3.01-6.797l1.484-.242 1.305 8.006-1.516.247-.659-4.043Zm-8.782-2.937 1.664-.013-1.47 2.267c-.263.461-.549.794-.857.999 1.08.386 1.625 1.124 1.633 2.212.008.938-.302 1.613-.928 2.023-.637.421-1.563.636-2.78.645l-2.463.019-.063-8.111 1.616-.013.022 2.864 1.008-.008c.331-.002.587-.063.767-.182.17-.118.35-.333.54-.644l1.311-2.058Zm-3.595 6.86.88-.007c.693-.005 1.21-.116 1.55-.332.329-.216.491-.564.487-1.044-.003-.512-.172-.873-.504-1.084-.332-.2-.856-.297-1.57-.292l-.864.007.021 2.752Zm-13.638-.393-1.582-.333 1.672-7.938 1.581.333-.553 2.63a7.495 7.495 0 0 1 1.648.168c1.19.25 1.987.658 2.392 1.223.393.562.486 1.34.277 2.331l-.55 2.615-1.597-.337.544-2.583c.12-.574.081-1.007-.119-1.3-.213-.285-.632-.493-1.258-.625-.627-.132-1.167-.18-1.621-.145l-.834 3.961Zm-9.576-6.674c.109-.289.254-.617.437-.981l5.093 1.911c.434-1.614-.112-2.708-1.64-3.281a5.928 5.928 0 0 0-2.361-.356l.206-1.324c.88-.069 1.804.079 2.773.442 1.209.454 2.041 1.165 2.498 2.134.443.975.43 2.086-.038 3.335-.442 1.178-1.125 2.01-2.047 2.496-.927.495-1.934.539-3.023.13-.969-.363-1.617-.96-1.944-1.789-.336-.832-.321-1.738.046-2.717Zm1.494.527a1.598 1.598 0 0 0-.105.234c-.202.539-.224 1.038-.066 1.496.145.464.492.8 1.041 1.006.58.217 1.115.202 1.607-.047.479-.242.876-.679 1.193-1.312l-3.67-1.377Zm-5.609-8.09.268 3.985a24.608 24.608 0 0 1 1.673-.118l1.183-2.144 1.415.781-3.918 7.103-1.415-.781 1.978-3.586c-1.142.04-2.085.214-2.828.523-.743.309-1.399.812-1.966 1.51l-1.401-.773c.772-1.157 2.044-1.917 3.816-2.28l-.374-5.085 1.569.865Zm-4.342-3.204c.804.617 1.286 1.268 1.444 1.955.16.687.018 1.318-.424 1.893-.486.635-1.088.946-1.805.934-.717-.012-1.452-.307-2.205-.885a7.744 7.744 0 0 1-1.238-1.172l-.41.533c-.7.914-.556 1.751.434 2.511a5.59 5.59 0 0 0 1.944.987l-.535 1.223c-.78-.209-1.568-.618-2.364-1.229-.863-.662-1.35-1.378-1.458-2.147-.109-.769.148-1.56.772-2.373l2.795-3.643c.984.137 2 .608 3.05 1.413Zm-2.29.199-1.276 1.663c.328.413.687.769 1.076 1.068.914.701 1.644.696 2.19-.015.519-.677.334-1.356-.554-2.038-.517-.396-.995-.622-1.436-.678ZM6.182 66.01c.13-1.402.545-2.467 1.244-3.194.69-.74 1.64-1.053 2.851-.94 1.211.111 2.093.595 2.646 1.45.543.843.75 1.965.62 3.367l-.127 1.355 3.792.352-.154 1.656-11.152-1.035.154-1.656.126-1.355Zm5.923.582c.084-.903-.022-1.609-.317-2.118-.306-.51-.863-.803-1.67-.878-.807-.075-1.403.11-1.787.557-.395.445-.635 1.12-.718 2.022l-.123 1.323 4.493.417.122-1.323Zm2.977-13.052c.3.077.64.186 1.023.327l-1.343 5.272c1.652.255 2.68-.407 3.082-1.989.193-.754.225-1.55.096-2.386l1.339.06c.164.868.119 1.803-.137 2.805-.318 1.251-.934 2.156-1.847 2.716-.921.547-2.028.656-3.32.327-1.22-.31-2.121-.898-2.704-1.762-.594-.867-.748-1.864-.46-2.99.255-1.003.777-1.712 1.565-2.128.791-.426 1.693-.51 2.706-.252Zm-.36 1.543a1.617 1.617 0 0 0-.244-.078c-.558-.143-1.056-.11-1.495.098-.446.194-.74.576-.886 1.144-.152.6-.078 1.13.222 1.593.293.448.771.796 1.435 1.042l.968-3.799Zm-.084-9.623 1.218.49-1.346 3.355 6.311 2.532-.601 1.5-7.53-3.02.602-1.5 1.346-3.356Zm5.036-.91c.63.36 1.156.685 1.58.976A82.8 82.8 0 0 1 19.5 42.24a63.07 63.07 0 0 1-1.408-3.181l.754-1.32 7.044 4.022-.761 1.334-4.14-2.364c-.51-.291-.921-.55-1.233-.778.928 2.053 2.058 4.259 3.39 6.616l-.747 1.306-7.044-4.023.762-1.334 3.557 2.032Zm4.953-14.016.818 1.055c-.628.347-1.133.763-1.517 1.248-.476.603-.642 1.233-.496 1.892.143.644.567 1.244 1.27 1.8.736.582 1.432.853 2.088.815.656-.04 1.245-.389 1.768-1.05.377-.477.64-1.05.79-1.721l1.208.588c-.138.707-.471 1.395-1 2.064-.808 1.021-1.725 1.588-2.752 1.7-1.029.098-2.062-.264-3.1-1.084-1.02-.807-1.621-1.724-1.802-2.75-.174-1.036.122-2.039.89-3.01.542-.686 1.154-1.201 1.835-1.547ZM30 24.718l.915.94-1.733 1.684 4.738 4.878-1.17 1.137-4.739-4.878-1.733 1.684-.914-.941 2.904-2.82L30 24.717Zm4.409-3.748c1.02-.736 2.027-1.01 3.02-.818.993.19 1.854.792 2.585 1.804.78 1.081 1.128 2.146 1.043 3.194-.077 1.042-.621 1.928-1.633 2.659a4.085 4.085 0 0 1-1.498.686l1.826 2.53-1.31.946-6.18-8.563a7.112 7.112 0 0 1 2.147-2.438Zm-.266 2.284 2.978 4.125c.535-.097.98-.273 1.334-.53 1.324-.954 1.398-2.245.225-3.87-.493-.684-1.047-1.113-1.66-1.289-.605-.182-1.232-.039-1.88.43a3.52 3.52 0 0 0-.997 1.134Zm12.199.224c-.903.46-1.699.613-2.387.46-.688-.152-1.196-.551-1.526-1.197-.362-.713-.384-1.39-.064-2.032.32-.642.903-1.178 1.749-1.608a7.742 7.742 0 0 1 1.591-.613l-.305-.599c-.522-1.026-1.34-1.257-2.452-.69a5.6 5.6 0 0 0-1.73 1.328l-.872-1.01c.525-.614 1.234-1.148 2.128-1.603.97-.494 1.825-.624 2.566-.39.74.232 1.344.805 1.808 1.718l2.083 4.092c-.547.83-1.41 1.544-2.59 2.144Zm.807-2.152-.95-1.868a6.21 6.21 0 0 0-1.428.51c-1.027.523-1.337 1.184-.93 1.982.387.76 1.08.887 2.078.38.58-.296.99-.63 1.23-1.004ZM58.258 17.2l1.057 3.257-1.324.43-.652-2.01-4.642 1.507-1.537.499-2.504-7.716 1.537-.499 2.1 6.468 3.286-1.067-2.099-6.467 1.537-.5 2.1 6.468 1.14-.37Zm2.204-3.15c.108.718.18 1.333.214 1.845a82.812 82.812 0 0 1 1.49-3.413c.41-.85.952-1.875 1.622-3.077l1.503-.228 1.213 8.021-1.518.23-.714-4.714a13.73 13.73 0 0 1-.154-1.45c-1.035 2.002-2.064 4.256-3.087 6.762l-1.487.225-1.214-8.02 1.519-.23.613 4.05Zm9.365 2.972-1.664-.019 1.514-2.239c.272-.455.564-.782.876-.981-1.073-.407-1.603-1.155-1.59-2.243.01-.939.333-1.607.967-2.005.645-.408 1.575-.606 2.79-.592l2.465.029-.094 8.111-1.616-.018.033-2.864-1.008-.012c-.33-.004-.587.052-.77.167-.172.116-.356.327-.551.634l-1.352 2.032Zm3.727-6.789-.88-.01c-.693-.008-1.212.092-1.556.302-.333.21-.502.554-.507 1.034-.006.512.155.877.483 1.094.328.206.85.314 1.564.322l.864.01.032-2.752Zm13.26.537 1.576.358-1.793 7.911-1.576-.357.594-2.621a7.507 7.507 0 0 1-1.646-.193c-1.186-.269-1.977-.689-2.373-1.26-.385-.568-.465-1.346-.242-2.335l.591-2.606 1.592.361-.584 2.575c-.13.572-.097 1.006.099 1.302.208.288.624.502 1.248.644.625.141 1.164.198 1.619.17l.895-3.948Zm9.356 6.717c-.113.288-.262.614-.448.976l-5.072-1.968c-.453 1.609.082 2.709 1.603 3.3.726.28 1.512.408 2.357.382l-.22 1.322c-.882.058-1.805-.1-2.77-.474-1.202-.467-2.027-1.188-2.473-2.162-.432-.98-.406-2.091.076-3.334.455-1.174 1.147-1.998 2.075-2.473.932-.485 1.94-.517 3.024-.096.965.374 1.606.978 1.923 1.81.328.837.302 1.742-.076 2.717Zm-1.49-.543c.034-.056.07-.134.108-.233.209-.537.236-1.036.083-1.496-.14-.466-.483-.805-1.03-1.017-.576-.224-1.112-.215-1.607.028-.48.237-.883.67-1.207 1.3l3.654 1.418Zm5.58 8.165-.21-3.99c-.557.051-1.115.083-1.675.095l-1.214 2.125-1.403-.8 4.023-7.045 1.403.801-2.031 3.557c1.143-.023 2.088-.183 2.836-.481.747-.298 1.41-.792 1.988-1.481l1.389.793c-.789 1.146-2.073 1.887-3.849 2.224l.299 5.09-1.556-.888Zm4.264 3.196c-.797-.625-1.271-1.282-1.422-1.97-.152-.689-.004-1.318.444-1.889.494-.629 1.099-.934 1.816-.914.716.02 1.448.323 2.195.91.478.375.887.77 1.226 1.185l.414-.529c.712-.906.576-1.744-.406-2.515a5.598 5.598 0 0 0-1.933-1.009l.548-1.217c.779.218 1.562.636 2.351 1.255.856.672 1.334 1.393 1.435 2.163.1.77-.166 1.558-.798 2.364l-2.835 3.612c-.982-.147-1.994-.629-3.035-1.446Zm2.293-.173 1.294-1.65a6.2 6.2 0 0 0-1.065-1.079c-.906-.711-1.636-.714-2.189-.01-.527.672-.35 1.353.531 2.045.512.402.988.633 1.429.694Z" fill="#fff"/><circle cx="125" cy="45" r="2" fill="#fff"/><circle cx="17" cy="95" r="2" fill="#fff"/></svg>