<svg width="64" height="64" fill="none" xmlns="http://www.w3.org/2000/svg"><rect x="1" y="1" width="62" height="62" rx="7" stroke="#000" stroke-width="2"/><rect x="1" y="1" width="62" height="62" rx="7" stroke="url(#a)" stroke-width="2"/><path d="M20.8 19.2a1.6 1.6 0 0 0-1.6 1.6v4a1.6 1.6 0 0 1-3.2 0v-4a4.8 4.8 0 0 1 4.8-4.8h4a1.6 1.6 0 0 1 0 3.2h-4Z" fill="#000"/><path d="M20.8 19.2a1.6 1.6 0 0 0-1.6 1.6v4a1.6 1.6 0 0 1-3.2 0v-4a4.8 4.8 0 0 1 4.8-4.8h4a1.6 1.6 0 0 1 0 3.2h-4Z" fill="url(#b)"/><path d="M37.602 17.6a1.6 1.6 0 0 1 1.6-1.6h4a4.8 4.8 0 0 1 4.8 4.8v4a1.6 1.6 0 0 1-3.2 0v-4a1.6 1.6 0 0 0-1.6-1.6h-4a1.6 1.6 0 0 1-1.6-1.6Z" fill="#000"/><path d="M37.602 17.6a1.6 1.6 0 0 1 1.6-1.6h4a4.8 4.8 0 0 1 4.8 4.8v4a1.6 1.6 0 0 1-3.2 0v-4a1.6 1.6 0 0 0-1.6-1.6h-4a1.6 1.6 0 0 1-1.6-1.6Z" fill="url(#c)"/><path d="M17.6 37.598a1.6 1.6 0 0 1 1.6 1.6v4a1.6 1.6 0 0 0 1.6 1.6h4a1.6 1.6 0 0 1 0 3.2h-4a4.8 4.8 0 0 1-4.8-4.8v-4a1.6 1.6 0 0 1 1.6-1.6Z" fill="#000"/><path d="M17.6 37.598a1.6 1.6 0 0 1 1.6 1.6v4a1.6 1.6 0 0 0 1.6 1.6h4a1.6 1.6 0 0 1 0 3.2h-4a4.8 4.8 0 0 1-4.8-4.8v-4a1.6 1.6 0 0 1 1.6-1.6Z" fill="url(#d)"/><path d="M46.402 37.598a1.6 1.6 0 0 1 1.6 1.6v4a4.8 4.8 0 0 1-4.8 4.8h-3.2a1.6 1.6 0 0 1 0-3.2h3.2a1.6 1.6 0 0 0 1.6-1.6v-4a1.6 1.6 0 0 1 1.6-1.6Z" fill="#000"/><path d="M46.402 37.598a1.6 1.6 0 0 1 1.6 1.6v4a4.8 4.8 0 0 1-4.8 4.8h-3.2a1.6 1.6 0 0 1 0-3.2h3.2a1.6 1.6 0 0 0 1.6-1.6v-4a1.6 1.6 0 0 1 1.6-1.6Z" fill="url(#e)"/><path d="M24 25.6a1.6 1.6 0 0 1 1.6-1.6h3.2a1.6 1.6 0 0 1 1.6 1.6v3.2a1.6 1.6 0 0 1-1.6 1.6h-3.2a1.6 1.6 0 0 1-1.6-1.6v-3.2Z" fill="#000"/><path d="M24 25.6a1.6 1.6 0 0 1 1.6-1.6h3.2a1.6 1.6 0 0 1 1.6 1.6v3.2a1.6 1.6 0 0 1-1.6 1.6h-3.2a1.6 1.6 0 0 1-1.6-1.6v-3.2Z" fill="url(#f)"/><path d="M25.6 33.598a1.6 1.6 0 0 0-1.6 1.6v3.2a1.6 1.6 0 0 0 1.6 1.6h3.2a1.6 1.6 0 0 0 1.6-1.6v-3.2a1.6 1.6 0 0 0-1.6-1.6h-3.2Z" fill="#000"/><path d="M25.6 33.598a1.6 1.6 0 0 0-1.6 1.6v3.2a1.6 1.6 0 0 0 1.6 1.6h3.2a1.6 1.6 0 0 0 1.6-1.6v-3.2a1.6 1.6 0 0 0-1.6-1.6h-3.2Z" fill="url(#g)"/><path d="M33.602 25.6a1.6 1.6 0 0 1 1.6-1.6h3.2a1.6 1.6 0 0 1 1.6 1.6v3.2a1.6 1.6 0 0 1-1.6 1.6h-3.2a1.6 1.6 0 0 1-1.6-1.6v-3.2Z" fill="#000"/><path d="M33.602 25.6a1.6 1.6 0 0 1 1.6-1.6h3.2a1.6 1.6 0 0 1 1.6 1.6v3.2a1.6 1.6 0 0 1-1.6 1.6h-3.2a1.6 1.6 0 0 1-1.6-1.6v-3.2Z" fill="url(#h)"/><path d="M35.202 33.598a1.6 1.6 0 0 0-1.6 1.6v3.2a1.6 1.6 0 0 0 1.6 1.6h3.2a1.6 1.6 0 0 0 1.6-1.6v-3.2a1.6 1.6 0 0 0-1.6-1.6h-3.2Z" fill="#000"/><path d="M35.202 33.598a1.6 1.6 0 0 0-1.6 1.6v3.2a1.6 1.6 0 0 0 1.6 1.6h3.2a1.6 1.6 0 0 0 1.6-1.6v-3.2a1.6 1.6 0 0 0-1.6-1.6h-3.2Z" fill="url(#i)"/><defs><linearGradient id="a" x1="43.821" y1="66.731" x2="-14.168" y2="39.838" gradientUnits="userSpaceOnUse"><stop stop-color="#F9A825"/><stop offset="1" stop-color="#FF3D00"/></linearGradient><linearGradient id="b" x1="23.121" y1="26.844" x2="13.698" y2="22.474" gradientUnits="userSpaceOnUse"><stop stop-color="#F9A825"/><stop offset="1" stop-color="#FF3D00"/></linearGradient><linearGradient id="c" x1="44.722" y1="26.844" x2="35.299" y2="22.474" gradientUnits="userSpaceOnUse"><stop stop-color="#F9A825"/><stop offset="1" stop-color="#FF3D00"/></linearGradient><linearGradient id="d" x1="23.121" y1="48.441" x2="13.698" y2="44.071" gradientUnits="userSpaceOnUse"><stop stop-color="#F9A825"/><stop offset="1" stop-color="#FF3D00"/></linearGradient><linearGradient id="e" x1="44.976" y1="48.441" x2="36.043" y2="44.618" gradientUnits="userSpaceOnUse"><stop stop-color="#F9A825"/><stop offset="1" stop-color="#FF3D00"/></linearGradient><linearGradient id="f" x1="28.382" y1="30.673" x2="22.583" y2="27.984" gradientUnits="userSpaceOnUse"><stop stop-color="#F9A825"/><stop offset="1" stop-color="#FF3D00"/></linearGradient><linearGradient id="g" x1="28.382" y1="40.271" x2="22.583" y2="37.581" gradientUnits="userSpaceOnUse"><stop stop-color="#F9A825"/><stop offset="1" stop-color="#FF3D00"/></linearGradient><linearGradient id="h" x1="37.984" y1="30.673" x2="32.185" y2="27.984" gradientUnits="userSpaceOnUse"><stop stop-color="#F9A825"/><stop offset="1" stop-color="#FF3D00"/></linearGradient><linearGradient id="i" x1="37.984" y1="40.271" x2="32.185" y2="37.581" gradientUnits="userSpaceOnUse"><stop stop-color="#F9A825"/><stop offset="1" stop-color="#FF3D00"/></linearGradient></defs></svg>