<svg width="1685" height="141" fill="none" xmlns="http://www.w3.org/2000/svg"><path opacity=".1" d="M149.1 6.925h-26.4v18h10.88c12.8 0 19.84 4.72 19.84 16.48 0 11.76-6.96 16.48-20 16.48h-16.48v-56h32.16v5.04Zm-26.4 45.92h10.4c9.68 0 14.56-2.8 14.56-11.36 0-8.72-4.8-11.52-14.4-11.52H122.7v22.88Zm48.672-13.04c0 3.12-.16 6.24-.24 8.96 8.8-16.08 18.64-30.32 30.96-46.88h5.44v56h-5.76v-40.88c0-2.88.08-5.44.32-7.52-11.84 16.24-21.36 30.96-31.04 48.4h-5.44v-56h5.76v37.92Zm72.301 19.04c-15.92 0-23.52-12.72-23.52-28.96 0-16.24 7.44-28.96 23.52-28.96 16 0 23.6 12.72 23.6 28.96 0 16.24-7.6 28.96-23.6 28.96Zm0-5.2c12.4 0 17.6-10.56 17.6-23.76 0-13.2-5.2-23.76-17.6-23.76-12.48 0-17.52 10.56-17.52 23.76 0 13.2 5.2 23.76 17.52 23.76Zm74.115-51.76v56h-5.68V6.925h-22.4v5.36c0 32.64-3.44 46.56-13.92 46.56-1.68 0-3.12-.16-4.8-.72l.8-4.64c.96.24 2 .4 3.12.4 6.72 0 9.28-13.04 9.28-42v-10h33.6Zm36.198 56.96c-15.92 0-23.52-12.72-23.52-28.96 0-16.24 7.44-28.96 23.52-28.96 16 0 23.6 12.72 23.6 28.96 0 16.24-7.6 28.96-23.6 28.96Zm0-5.2c12.4 0 17.6-10.56 17.6-23.76 0-13.2-5.2-23.76-17.6-23.76-12.48 0-17.52 10.56-17.52 23.76 0 13.2 5.2 23.76 17.52 23.76Zm65.837-51.76v5.04h-23.92v50.96h-5.76v-56h29.68Zm15.689 37.92c0 3.12-.16 6.24-.24 8.96 8.8-16.08 18.64-30.32 30.96-46.88h5.44v56h-5.76v-40.88c0-2.88.08-5.44.32-7.52-11.84 16.24-21.36 30.96-31.04 48.4h-5.44v-56h5.76v37.92Zm81.902-37.92h5.76v56h-5.76v-21.28c-4.32 1.04-9.04 1.52-13.84 1.52-13.04 0-18.4-4.16-18.4-15.28V1.885h5.76v20.72c0 7.36 3.36 10.48 13.44 10.48 4.32 0 9.04-.48 13.04-1.44V1.885Zm53.884 56h-32.64v-56h32.64v5.04h-26.88v19.68h23.04v5.04h-23.04v21.2h26.88v5.04Zm7.684-27.36c0-16.88 8-29.6 24.96-29.6 4.72 0 9.44 1.04 13.68 2.8l-1.44 4.96c-3.76-1.36-7.44-2.56-12.16-2.56-13.6 0-19.04 10.88-19.04 24.4 0 13.76 6.16 23.12 19.44 23.12 5.28 0 9.12-1.44 12.4-2.88l1.2 4.96c-3.28 1.68-8.32 3.12-13.76 3.12-16.56 0-25.28-11.28-25.28-28.32Zm84.136 27.36-17.92-26c-2.96 2-6.24 3.92-9.92 5.76v20.24h-5.76v-56h5.76v29.92c14.96-8.08 22.72-16.8 25.36-29.92h5.76c-2.16 10.72-7.36 19.28-16.8 26.8l20.4 29.2h-6.88Zm21.535-18.08c0 3.12-.16 6.24-.24 8.96 8.8-16.08 18.64-30.32 30.96-46.88h5.44v56h-5.76v-40.88c0-2.88.08-5.44.32-7.52-11.84 16.24-21.36 30.96-31.04 48.4h-5.44v-56h5.76v37.92Zm107.658 18.08c-1.6-5.52-3.36-11.04-5.2-16.48h-25.36c-1.76 5.44-3.52 10.96-5.12 16.48h-5.92c6.24-20.16 12.88-39.12 20.72-56h6c7.84 16.88 14.64 35.6 20.8 56h-5.92Zm-28.88-21.52h22c-3.92-11.44-7.92-21.76-10.96-28.56-3.04 6.8-7.04 17.12-11.04 28.56Zm78.124 21.52-17.92-26c-2.96 2-6.24 3.92-9.92 5.76v20.24h-5.76v-56h5.76v29.92c14.96-8.08 22.72-16.8 25.36-29.92h5.76c-2.16 10.72-7.36 19.28-16.8 26.8l20.4 29.2h-6.88Zm50.015-56v5.04h-17.04v50.96h-5.76V6.925h-17.04v-5.04h39.84Zm15.739 37.92c0 3.12-.16 6.24-.24 8.96 8.8-16.08 18.64-30.32 30.96-46.88h5.44v56h-5.76v-40.88c0-2.88.08-5.44.32-7.52-11.84 16.24-21.36 30.96-31.04 48.4h-5.44v-56h5.76v37.92Zm51.662 18.08v-56h12.56c12.96 0 21.68 3.6 21.68 14.24 0 7.04-3.44 10.88-7.44 12.64 5.28 1.68 9.6 5.76 9.6 13.68 0 11.76-8.64 15.44-21.68 15.44h-14.72Zm5.68-30.8h11.68c7.76 0 11.12-3.6 11.12-10.4 0-8-6.56-9.76-15.84-9.76h-6.96v20.16Zm0 25.76h8.72c9.76 0 16.24-1.76 16.24-10.48 0-7.36-4.72-10.64-13.44-10.64h-11.52v21.12Zm79.149-50.96h5.76v56h-5.76v-26.32h-30.24v26.32h-5.76v-56h5.76v24.72h30.24V1.885Zm57.1 56c-1.6-5.52-3.36-11.04-5.2-16.48h-25.36c-1.76 5.44-3.52 10.96-5.12 16.48h-5.92c6.24-20.16 12.88-39.12 20.72-56h6c7.84 16.88 14.64 35.6 20.8 56h-5.92Zm-28.88-21.52h22c-3.92-11.44-7.92-21.76-10.96-28.56-3.04 6.8-7.04 17.12-11.04 28.56Zm78.69-34.48v56h-5.76v-22.16h-7.68c-4.8 0-6.88 2-10.32 6.96l-10.24 15.2h-6.48l11.36-16.48c3.2-4.64 4.8-6.32 7.12-7.2-6.16-1.12-13.2-5.68-13.2-15.76 0-11.2 7.92-16.56 21.28-16.56h13.92Zm-13.76 28.8h8V6.925h-8c-9.76 0-15.6 3.36-15.6 11.76 0 8.24 5.68 12 15.6 12Zm93.92 22.16v16.64h-5.44v-11.6h-40.88v11.6h-5.44v-16.64h4.8c4.24-5.36 8.96-19.12 8.96-39.44V1.885h31.28v50.96h6.72Zm-40.88 0h28.48V6.925h-20v6.56c0 20.32-4.48 33.92-8.48 39.36Zm71.11 6c-15.92 0-23.52-12.72-23.52-28.96 0-16.24 7.44-28.96 23.52-28.96 16 0 23.6 12.72 23.6 28.96 0 16.24-7.6 28.96-23.6 28.96Zm0-5.2c12.4 0 17.6-10.56 17.6-23.76 0-13.2-5.2-23.76-17.6-23.76-12.48 0-17.52 10.56-17.52 23.76 0 13.2 5.2 23.76 17.52 23.76Zm68.31-46.72h-26.4v18h10.88c12.8 0 19.84 4.72 19.84 16.48 0 11.76-6.96 16.48-20 16.48h-16.48v-56h32.16v5.04Zm-26.4 45.92h10.4c9.68 0 14.56-2.8 14.56-11.36 0-8.72-4.8-11.52-14.4-11.52h-10.56v22.88Zm78.52 5.04c-1.6-5.52-3.36-11.04-5.2-16.48h-25.36c-1.76 5.44-3.52 10.96-5.12 16.48h-5.92c6.24-20.16 12.88-39.12 20.72-56h6c7.84 16.88 14.64 35.6 20.8 56h-5.92Zm-28.88-21.52h22c-3.92-11.44-7.92-21.76-10.96-28.56-3.04 6.8-7.04 17.12-11.04 28.56Zm44.52 21.52v-56h12.56c12.96 0 21.68 3.6 21.68 14.24 0 7.04-3.44 10.88-7.44 12.64 5.28 1.68 9.6 5.76 9.6 13.68 0 11.76-8.64 15.44-21.68 15.44h-14.72Zm5.68-30.8h11.68c7.76 0 11.12-3.6 11.12-10.4 0-8-6.56-9.76-15.84-9.76h-6.96v20.16Zm0 25.76h8.72c9.76 0 16.24-1.76 16.24-10.48 0-7.36-4.72-10.64-13.44-10.64h-11.52v21.12Zm76.75 5.04-17.92-26c-2.96 2-6.24 3.92-9.92 5.76v20.24H1446v-56h5.76v29.92c14.96-8.08 22.72-16.8 25.36-29.92h5.76c-2.16 10.72-7.36 19.28-16.8 26.8l20.4 29.2h-6.88Zm51.62 0c-1.6-5.52-3.36-11.04-5.2-16.48h-25.36c-1.76 5.44-3.52 10.96-5.12 16.48h-5.92c6.24-20.16 12.88-39.12 20.72-56h6c7.84 16.88 14.64 35.6 20.8 56h-5.92Zm-28.88-21.52h22c-3.92-11.44-7.92-21.76-10.96-28.56-3.04 6.8-7.04 17.12-11.04 28.56Zm41.24 18.4c0-2.16 1.36-3.76 3.84-3.76 2.4 0 3.76 1.6 3.76 3.76 0 2.16-1.36 3.76-3.76 3.76-2.48 0-3.84-1.6-3.84-3.76ZM36.807 72.885h5.76v56h-5.76v-26.32H6.567v26.32H.807v-56h5.76v24.72h30.24v-24.72Zm53.906 56h-32.64v-56h32.64v5.04h-26.88v19.68h23.04v5.04h-23.04v21.2h26.88v5.04Zm66.441-56v56h-5.76v-22.16h-7.68c-4.8 0-6.88 2-10.32 6.96l-10.24 15.2h-6.48l11.36-16.48c3.2-4.64 4.8-6.32 7.12-7.2-6.16-1.12-13.2-5.68-13.2-15.76 0-11.2 7.92-16.56 21.28-16.56h13.92Zm-13.76 28.8h8v-23.76h-8c-9.76 0-15.6 3.36-15.6 11.76 0 8.24 5.68 12 15.6 12Zm29.288 27.2v-56h12.56c12.96 0 21.68 3.6 21.68 14.24 0 7.04-3.44 10.88-7.44 12.64 5.28 1.68 9.6 5.76 9.6 13.68 0 11.76-8.64 15.44-21.68 15.44h-14.72Zm5.68-30.8h11.68c7.76 0 11.12-3.6 11.12-10.4 0-8-6.56-9.76-15.84-9.76h-6.96v20.16Zm0 25.76h8.72c9.76 0 16.24-1.76 16.24-10.48 0-7.36-4.72-10.64-13.44-10.64h-11.52v21.12Zm82.668-50.96v56h-5.68v-50.96h-22.4v5.36c0 32.64-3.44 46.56-13.92 46.56-1.68 0-3.12-.16-4.8-.72l.8-4.64c.96.24 2 .4 3.12.4 6.72 0 9.28-13.04 9.28-42v-10h33.6Zm49.718 0v56h-5.76v-22.16h-7.68c-4.8 0-6.88 2-10.32 6.96l-10.24 15.2h-6.48l11.36-16.48c3.2-4.64 4.8-6.32 7.12-7.2-6.16-1.12-13.2-5.68-13.2-15.76 0-11.2 7.92-16.56 21.28-16.56h13.92Zm-13.76 28.8h8v-23.76h-8c-9.76 0-15.6 3.36-15.6 11.76 0 8.24 5.68 12 15.6 12Zm61.928 27.2h-32.64v-56h32.64v5.04h-26.88v19.68h23.04v5.04h-23.04v21.2h26.88v5.04Zm46.365-56v5.04h-17.04v50.96h-5.76v-50.96h-17.04v-5.04h39.84Zm4.912 28.64c0-16.88 8-29.6 24.96-29.6 4.72 0 9.44 1.04 13.68 2.8l-1.44 4.96c-3.76-1.36-7.44-2.56-12.16-2.56-13.6 0-19.04 10.88-19.04 24.4 0 13.76 6.16 23.12 19.44 23.12 5.28 0 9.12-1.44 12.4-2.88l1.2 4.96c-3.28 1.68-8.32 3.12-13.76 3.12-16.56 0-25.28-11.28-25.28-28.32Zm84.696-28.64v56h-5.76v-22.16h-7.68c-4.8 0-6.88 2-10.32 6.96l-10.24 15.2h-6.48l11.36-16.48c3.2-4.64 4.8-6.32 7.12-7.2-6.16-1.12-13.2-5.68-13.2-15.76 0-11.2 7.92-16.56 21.28-16.56h13.92Zm-13.76 28.8h8v-23.76h-8c-9.76 0-15.6 3.36-15.6 11.76 0 8.24 5.68 12 15.6 12Zm88.964-28.8v56h-5.68v-50.96h-22.4v5.36c0 32.64-3.44 46.56-13.921 46.56-1.679 0-3.119-.16-4.799-.72l.8-4.64c.96.24 2 .4 3.12.4 6.72 0 9.28-13.04 9.28-42v-10h33.6Zm48.198 56h-32.64v-56h32.64v5.04h-26.88v19.68h23.04v5.04h-23.04v21.2h26.88v5.04Zm45.725 0-17.92-26c-2.96 2-6.24 3.92-9.92 5.76v20.24h-5.76v-56h5.76v29.92c14.96-8.08 22.72-16.8 25.36-29.92h5.76c-2.16 10.72-7.36 19.28-16.8 26.8l20.4 29.2h-6.88Zm51.615 0c-1.6-5.52-3.36-11.04-5.2-16.48h-25.36c-1.76 5.44-3.52 10.96-5.12 16.48h-5.92c6.24-20.16 12.88-39.12 20.72-56h6c7.84 16.88 14.64 35.6 20.8 56h-5.92Zm-28.88-21.52h22c-3.92-11.44-7.92-21.76-10.96-28.56-3.04 6.8-7.04 17.12-11.04 28.56Zm58.125-34.48c13.52 0 22.24 5.44 22.24 17.92s-8.72 17.84-22.24 17.84h-7.84v20.24h-5.76v-56h13.6Zm-.08 30.72c9.84 0 16.4-2.96 16.4-12.8s-6.56-12.88-16.4-12.88h-7.76v25.68h7.76Zm31.1-2.08c0-16.88 8-29.6 24.96-29.6 4.72 0 9.44 1.04 13.68 2.8l-1.44 4.96c-3.76-1.36-7.44-2.56-12.16-2.56-13.6 0-19.04 10.88-19.04 24.4 0 13.76 6.16 23.12 19.44 23.12 5.28 0 9.12-1.44 12.4-2.88l1.2 4.96c-3.28 1.68-8.32 3.12-13.76 3.12-16.56 0-25.28-11.28-25.28-28.32Zm84.776-28.64v5.04h-17.04v50.96h-5.76v-50.96h-17.04v-5.04h39.84Zm9.979 56v-56h12.56c12.96 0 21.68 3.6 21.68 14.24 0 7.04-3.44 10.88-7.44 12.64 5.28 1.68 9.6 5.76 9.6 13.68 0 11.76-8.64 15.44-21.68 15.44h-14.72Zm5.68-30.8h11.68c7.76 0 11.12-3.6 11.12-10.4 0-8-6.56-9.76-15.84-9.76h-6.96v20.16Zm0 25.76h8.72c9.76 0 16.24-1.76 16.24-10.48 0-7.36-4.72-10.64-13.44-10.64h-11.52v21.12Zm75.788 5.04h-32.64v-56h32.64v5.04h-26.88v19.68h23.04v5.04h-23.04v21.2h26.88v5.04Zm48.121-56h5.76v56h-5.76v-26.32h-30.236v26.32h-5.76v-56h5.76v24.72h30.236v-24.72Zm57.27 0h5.76v56h-5.76v-26.32h-30.24v26.32h-5.76v-56h5.76v24.72h30.24v-24.72Zm21.27 0h5.76v21.92h11.12c12.88 0 19.92 5.2 19.92 17.04s-7.04 17.04-20 17.04h-16.8v-56Zm45.84 0h5.76v56h-5.76v-56Zm-40.08 50.96h10.72c9.6 0 14.56-3.2 14.56-11.92 0-8.88-4.88-12.08-14.48-12.08h-10.8v24Zm116.95-50.96v56h-5.44v-37.28c0-3.2.16-6.08.24-8.56-5.12 11.84-11.52 23.84-20.08 37.28h-4.96c-8.56-13.44-15.04-25.6-20.24-37.36.24 2.48.32 5.44.32 8.64v37.28h-5.44v-56h6c5.76 14.08 13.04 27.52 21.92 41.76 8.8-14.24 16-27.68 21.68-41.76h6Zm32.77 28.64c0-16.88 8-29.6 24.96-29.6 4.72 0 9.44 1.04 13.68 2.8l-1.44 4.96c-3.76-1.36-7.44-2.56-12.16-2.56-13.6 0-19.04 10.88-19.04 24.4 0 13.76 6.16 23.12 19.44 23.12 5.28 0 9.12-1.44 12.4-2.88l1.2 4.96c-3.28 1.68-8.32 3.12-13.76 3.12-16.56 0-25.28-11.28-25.28-28.32Zm64.13-28.64c13.52 0 22.24 5.44 22.24 17.92s-8.72 17.84-22.24 17.84h-7.84v20.24h-5.76v-56h13.6Zm-.08 30.72c9.84 0 16.4-2.96 16.4-12.8s-6.56-12.88-16.4-12.88h-7.76v25.68h7.76Zm66.62 25.28h-32.64v-56h32.64v5.04h-26.88v19.68h23.04v5.04h-23.04v21.2h26.88v5.04Zm56.61-5.04v16.64h-5.44v-11.6h-40.88v11.6h-5.44v-16.64h4.8c4.24-5.36 8.96-19.12 8.96-39.44v-11.52h31.28v50.96h6.72Zm-40.88 0h28.48v-45.92h-20v6.56c0 20.32-4.48 33.92-8.48 39.36Zm47.58-22.32c0-16.88 8-29.6 24.96-29.6 4.72 0 9.44 1.04 13.68 2.8l-1.44 4.96c-3.76-1.36-7.44-2.56-12.16-2.56-13.6 0-19.04 10.88-19.04 24.4 0 13.76 6.16 23.12 19.44 23.12 5.28 0 9.12-1.44 12.4-2.88l1.2 4.96c-3.28 1.68-8.32 3.12-13.76 3.12-16.56 0-25.28-11.28-25.28-28.32Zm84.78-28.64v5.04h-17.04v50.96h-5.76v-50.96h-17.04v-5.04h39.84Zm9.97 56v-56h12.56c12.96 0 21.68 3.6 21.68 14.24 0 7.04-3.44 10.88-7.44 12.64 5.28 1.68 9.6 5.76 9.6 13.68 0 11.76-8.64 15.44-21.68 15.44h-14.72Zm5.68-30.8h11.68c7.76 0 11.12-3.6 11.12-10.4 0-8-6.56-9.76-15.84-9.76h-6.96v20.16Zm0 25.76h8.72c9.76 0 16.24-1.76 16.24-10.48 0-7.36-4.72-10.64-13.44-10.64h-11.52v21.12Zm63.79 6c-15.92 0-23.52-12.72-23.52-28.96 0-16.24 7.44-28.96 23.52-28.96 16 0 23.6 12.72 23.6 28.96 0 16.24-7.6 28.96-23.6 28.96Zm0-5.2c12.4 0 17.6-10.56 17.6-23.76 0-13.2-5.2-23.76-17.6-23.76-12.48 0-17.52 10.56-17.52 23.76 0 13.2 5.2 23.76 17.52 23.76Zm91.76-51.76v56h-5.44v-37.28c0-3.2.16-6.08.24-8.56-5.12 11.84-11.52 23.84-20.08 37.28h-4.96c-8.56-13.44-15.04-25.6-20.24-37.36.24 2.48.32 5.44.32 8.64v37.28h-5.44v-56h6c5.76 14.08 13.04 27.52 21.92 41.76 8.8-14.24 16-27.68 21.68-41.76h6Z" fill="#001F68"/></svg>