<svg width="364" height="49" fill="none" xmlns="http://www.w3.org/2000/svg"><path d="M32.168 2.557h-5.692v6.17h2.346c2.76 0 4.278 1.618 4.278 5.649 0 4.03-1.501 5.649-4.313 5.649h-3.553V.83h6.934v1.727Zm-5.692 15.74h2.242c2.087 0 3.14-.96 3.14-3.894 0-2.989-1.035-3.949-3.105-3.949h-2.277v7.843Zm10.494-4.47c0 1.07-.034 2.14-.05 3.072 1.897-5.512 4.018-10.393 6.675-16.07h1.173v19.196h-1.242V6.012c0-.987.017-1.864.07-2.577-2.554 5.566-4.607 10.612-6.694 16.59h-1.173V.83h1.242v12.997Zm15.592 6.527c-3.433 0-5.072-4.36-5.072-9.927C47.49 4.861 49.094.5 52.562.5c3.45 0 5.089 4.36 5.089 9.927 0 5.567-1.64 9.927-5.09 9.927Zm0-1.783c2.673 0 3.795-3.62 3.795-8.144s-1.122-8.144-3.795-8.144c-2.692 0-3.778 3.62-3.778 8.144 0 4.525 1.12 8.144 3.778 8.144ZM68.543.83v19.195h-1.225V2.557h-4.83v1.837c0 11.188-.742 15.96-3.002 15.96a2.05 2.05 0 0 1-1.034-.247l.172-1.59c.207.082.431.137.673.137 1.449 0 2-4.47 2-14.397V.83h7.246Zm7.806 19.524c-3.433 0-5.072-4.36-5.072-9.927C71.277 4.861 72.88.5 76.349.5c3.45 0 5.089 4.36 5.089 9.927 0 5.567-1.64 9.927-5.09 9.927Zm0-1.783c2.673 0 3.795-3.62 3.795-8.144s-1.122-8.144-3.795-8.144c-2.692 0-3.778 3.62-3.778 8.144 0 4.525 1.121 8.144 3.778 8.144ZM90.545.83v1.727h-5.158v17.468h-1.242V.83h6.4Zm3.383 12.997c0 1.07-.034 2.14-.051 3.072 1.897-5.512 4.02-10.393 6.676-16.07h1.173v19.196h-1.242V6.012c0-.987.017-1.864.069-2.577C98 9 95.947 14.047 93.859 20.025h-1.173V.83h1.242v12.997ZM111.589.83h1.242v19.195h-1.242V12.73c-.931.356-1.949.52-2.984.52-2.812 0-3.968-1.425-3.968-5.237V.83h1.242v7.102c0 2.522.725 3.592 2.898 3.592.932 0 1.95-.165 2.812-.494V.83Zm11.619 19.195h-7.038V.83h7.038v1.727h-5.796v6.746h4.968v1.727h-4.968v7.267h5.796v1.728Zm1.657-9.379C124.865 4.861 126.59.5 130.247.5c1.018 0 2.036.357 2.95.96l-.31 1.7c-.811-.466-1.605-.877-2.622-.877-2.933 0-4.106 3.73-4.106 8.364 0 4.716 1.328 7.924 4.192 7.924 1.138 0 1.966-.493 2.674-.987l.259 1.7c-.708.576-1.795 1.07-2.968 1.07-3.57 0-5.451-3.867-5.451-9.707Zm18.143 9.379-3.864-8.912a19.527 19.527 0 0 1-2.139 1.974v6.938h-1.242V.83h1.242v10.255c3.225-2.77 4.899-5.758 5.468-10.255h1.242c-.466 3.674-1.587 6.608-3.623 9.186l4.399 10.009h-1.483Zm4.643-6.198c0 1.07-.034 2.14-.051 3.072 1.897-5.512 4.019-10.393 6.676-16.07h1.173v19.196h-1.242V6.012c0-.987.017-1.864.069-2.577-2.553 5.566-4.606 10.612-6.694 16.59h-1.173V.83h1.242v12.997Zm23.215 6.198a196.304 196.304 0 0 0-1.121-5.65h-5.469a286.045 286.045 0 0 0-1.104 5.65h-1.276c1.345-6.91 2.777-13.41 4.468-19.195h1.294c1.69 5.785 3.156 12.202 4.485 19.195h-1.277Zm-6.227-7.377h4.744c-.846-3.921-1.708-7.458-2.364-9.79-.655 2.332-1.518 5.869-2.38 9.79Zm16.846 7.377-3.864-8.912a19.527 19.527 0 0 1-2.139 1.974v6.938h-1.242V.83h1.242v10.255c3.226-2.77 4.899-5.758 5.468-10.255h1.242c-.466 3.674-1.587 6.608-3.622 9.186l4.398 10.009h-1.483ZM192.27.83v1.727h-3.675v17.468h-1.242V2.557h-3.674V.83h8.591Zm3.394 12.997c0 1.07-.035 2.14-.052 3.072 1.897-5.512 4.019-10.393 6.676-16.07h1.173v19.196h-1.242V6.012c0-.987.017-1.864.069-2.577-2.553 5.566-4.606 10.612-6.693 16.59h-1.173V.83h1.242v12.997Zm11.14 6.198V.83h2.708c2.795 0 4.675 1.234 4.675 4.88 0 2.414-.742 3.73-1.604 4.333 1.138.576 2.07 1.975 2.07 4.69 0 4.03-1.863 5.292-4.675 5.292h-3.174Zm1.224-10.558h2.519c1.673 0 2.398-1.234 2.398-3.564 0-2.743-1.415-3.346-3.416-3.346h-1.501v6.91Zm0 8.83h1.881c2.104 0 3.502-.603 3.502-3.592 0-2.523-1.018-3.647-2.898-3.647h-2.485v7.24ZM225.095.83h1.242v19.195h-1.242v-9.022h-6.52v9.022h-1.242V.83h1.242v8.473h6.52V.83Zm12.314 19.195a196.304 196.304 0 0 0-1.121-5.65h-5.468c-.38 1.866-.76 3.758-1.105 5.65h-1.276c1.345-6.91 2.777-13.41 4.468-19.195h1.294c1.69 5.785 3.157 12.202 4.485 19.195h-1.277Zm-6.227-7.377h4.744c-.846-3.921-1.708-7.458-2.364-9.79-.655 2.332-1.518 5.869-2.38 9.79ZM248.149.83v19.195h-1.242v-7.596h-1.656c-1.035 0-1.484.685-2.226 2.386l-2.208 5.21h-1.397l2.45-5.65c.69-1.59 1.035-2.165 1.535-2.467-1.328-.384-2.847-1.947-2.847-5.402 0-3.84 1.708-5.676 4.589-5.676h3.002Zm-2.967 9.871h1.725V2.557h-1.725c-2.105 0-3.364 1.152-3.364 4.031 0 2.824 1.225 4.113 3.364 4.113Zm20.253 7.596v5.704h-1.173v-3.976h-8.815V24h-1.173v-5.704h1.035c.914-1.837 1.932-6.554 1.932-13.519V.83h6.745v17.467h1.449Zm-8.815 0h6.141V2.557h-4.313v2.249c0 6.965-.966 11.626-1.828 13.491Zm15.332 2.057c-3.433 0-5.072-4.36-5.072-9.927 0-5.566 1.604-9.927 5.072-9.927 3.45 0 5.089 4.36 5.089 9.927 0 5.567-1.639 9.927-5.089 9.927Zm0-1.783c2.674 0 3.795-3.62 3.795-8.144s-1.121-8.144-3.795-8.144c-2.691 0-3.778 3.62-3.778 8.144 0 4.525 1.121 8.144 3.778 8.144Zm14.731-16.014h-5.693v6.17h2.347c2.76 0 4.278 1.618 4.278 5.649 0 4.03-1.501 5.649-4.313 5.649h-3.554V.83h6.935v1.727Zm-5.693 15.74h2.243c2.087 0 3.14-.96 3.14-3.894 0-2.989-1.035-3.949-3.105-3.949h-2.278v7.843Zm16.931 1.728a196.304 196.304 0 0 0-1.121-5.65h-5.468c-.38 1.866-.759 3.758-1.104 5.65h-1.277c1.346-6.91 2.777-13.41 4.468-19.195h1.294c1.69 5.785 3.157 12.202 4.485 19.195h-1.277Zm-6.227-7.377h4.744c-.845-3.921-1.708-7.458-2.363-9.79-.656 2.332-1.519 5.869-2.381 9.79Zm9.601 7.377V.83h2.708c2.795 0 4.675 1.234 4.675 4.88 0 2.414-.742 3.73-1.604 4.333 1.138.576 2.07 1.975 2.07 4.69 0 4.03-1.863 5.292-4.675 5.292h-3.174Zm1.225-10.558h2.518c1.674 0 2.398-1.234 2.398-3.564 0-2.743-1.414-3.346-3.416-3.346h-1.5v6.91Zm0 8.83h1.88c2.105 0 3.502-.603 3.502-3.592 0-2.523-1.018-3.647-2.898-3.647h-2.484v7.24Zm16.549 1.728-3.864-8.912a19.436 19.436 0 0 1-2.139 1.974v6.938h-1.242V.83h1.242v10.255c3.226-2.77 4.899-5.758 5.468-10.255h1.242c-.465 3.674-1.587 6.608-3.622 9.186l4.399 10.009h-1.484Zm11.13 0a199.783 199.783 0 0 0-1.121-5.65h-5.469a286.045 286.045 0 0 0-1.104 5.65h-1.276c1.345-6.91 2.777-13.41 4.468-19.195h1.293c1.691 5.785 3.157 12.202 4.486 19.195h-1.277Zm-6.227-7.377h4.743c-.845-3.921-1.707-7.458-2.363-9.79-.655 2.332-1.518 5.869-2.38 9.79Zm8.893 6.307c0-.74.293-1.289.828-1.289.518 0 .811.549.811 1.29 0 .74-.293 1.288-.811 1.288-.535 0-.828-.548-.828-1.289ZM7.954 25.33h1.242v19.194H7.954v-9.021h-6.52v9.021H.19V25.33h1.242v8.474h6.521V25.33Zm11.624 19.194H12.54V25.33h7.038v1.728h-5.796v6.746h4.968v1.727h-4.968v7.267h5.796v1.727ZM33.905 25.33v19.194h-1.242V36.93h-1.656c-1.035 0-1.484.685-2.225 2.385l-2.208 5.21h-1.398l2.45-5.648c.69-1.59 1.035-2.167 1.535-2.468-1.328-.384-2.846-1.947-2.846-5.402 0-3.84 1.708-5.677 4.588-5.677h3.002Zm-2.967 9.87h1.725v-8.144h-1.725c-2.104 0-3.364 1.152-3.364 4.03 0 2.825 1.225 4.114 3.364 4.114Zm6.315 9.324V25.33h2.709c2.794 0 4.675 1.234 4.675 4.881 0 2.413-.742 3.73-1.605 4.333 1.139.576 2.07 1.974 2.07 4.689 0 4.031-1.863 5.292-4.674 5.292h-3.175Zm1.225-10.557h2.519c1.673 0 2.398-1.234 2.398-3.565 0-2.742-1.415-3.345-3.416-3.345h-1.5v6.91Zm0 8.83h1.88c2.105 0 3.502-.603 3.502-3.592 0-2.523-1.017-3.648-2.898-3.648h-2.484v7.24ZM56.304 25.33v19.194H55.08V27.057h-4.83v1.837c0 11.188-.742 15.96-3.001 15.96-.363 0-.673-.055-1.035-.247l.172-1.59c.207.081.431.136.673.136 1.449 0 2-4.47 2-14.396v-3.428h7.246Zm10.721 0v19.194h-1.242V36.93h-1.656c-1.035 0-1.484.685-2.225 2.385l-2.208 5.21h-1.398l2.45-5.648c.69-1.59 1.035-2.167 1.535-2.468-1.328-.384-2.846-1.947-2.846-5.402 0-3.84 1.708-5.677 4.588-5.677h3.002Zm-2.967 9.87h1.725v-8.144h-1.725c-2.105 0-3.364 1.152-3.364 4.03 0 2.825 1.225 4.114 3.364 4.114Zm13.354 9.324h-7.039V25.33h7.039v1.728h-5.797v6.746h4.969v1.727h-4.969v7.267h5.797v1.727ZM87.41 25.33v1.727h-3.675v17.467h-1.242V27.057H78.82v-1.728h8.59Zm1.059 9.816C88.469 29.36 90.194 25 93.85 25c1.018 0 2.035.357 2.95.96l-.31 1.7c-.812-.466-1.605-.877-2.623-.877-2.932 0-4.106 3.729-4.106 8.363 0 4.717 1.329 7.925 4.192 7.925 1.139 0 1.967-.494 2.674-.987l.259 1.7c-.707.576-1.794 1.07-2.967 1.07-3.571 0-5.451-3.867-5.451-9.708Zm18.263-9.816v19.194h-1.242V36.93h-1.656c-1.035 0-1.484.685-2.225 2.385l-2.209 5.21h-1.397l2.45-5.648c.69-1.59 1.035-2.167 1.535-2.468-1.328-.384-2.846-1.947-2.846-5.402 0-3.84 1.707-5.677 4.588-5.677h3.002Zm-2.967 9.871h1.725v-8.144h-1.725c-2.105 0-3.364 1.152-3.364 4.03 0 2.825 1.225 4.114 3.364 4.114Zm19.183-9.871v19.194h-1.224V27.057h-4.831v1.837c0 11.188-.741 15.96-3.001 15.96-.362 0-.673-.055-1.035-.247l.172-1.59c.207.081.432.136.673.136 1.449 0 2.001-4.47 2.001-14.396v-3.428h7.245Zm10.394 19.194h-7.039V25.33h7.039v1.728h-5.797v6.746h4.969v1.727h-4.969v7.267h5.797v1.727Zm9.86 0-3.865-8.912a19.355 19.355 0 0 1-2.139 1.975v6.937h-1.242V25.33h1.242v10.256c3.226-2.77 4.899-5.759 5.469-10.256h1.242c-.466 3.675-1.587 6.609-3.623 9.187l4.399 10.008h-1.483Zm11.129 0a196.243 196.243 0 0 0-1.121-5.648h-5.468a277.93 277.93 0 0 0-1.104 5.648h-1.277c1.346-6.91 2.777-13.409 4.468-19.195h1.294c1.69 5.786 3.157 12.203 4.485 19.195h-1.277Zm-6.227-7.376h4.744c-.845-3.921-1.708-7.459-2.363-9.79-.656 2.331-1.519 5.869-2.381 9.79Zm12.533-11.818c2.916 0 4.796 1.864 4.796 6.142 0 4.277-1.88 6.115-4.796 6.115h-1.69v6.937h-1.242V25.33h2.932Zm-.017 10.53c2.122 0 3.537-1.016 3.537-4.388 0-3.373-1.415-4.415-3.537-4.415h-1.673v8.802h1.673Zm6.706-.714c0-5.786 1.726-10.146 5.383-10.146 1.017 0 2.035.357 2.95.96l-.311 1.7c-.811-.466-1.604-.877-2.622-.877-2.933 0-4.106 3.729-4.106 8.363 0 4.717 1.329 7.925 4.192 7.925 1.139 0 1.967-.494 2.674-.987l.259 1.7c-.708.576-1.794 1.07-2.967 1.07-3.571 0-5.452-3.867-5.452-9.708Zm18.281-9.816v1.727h-3.674v17.467h-1.242V27.057h-3.675v-1.728h8.591Zm2.152 19.194V25.33h2.708c2.795 0 4.675 1.234 4.675 4.881 0 2.413-.742 3.73-1.604 4.333 1.138.576 2.07 1.974 2.07 4.689 0 4.031-1.863 5.292-4.675 5.292h-3.174Zm1.225-10.557h2.518c1.674 0 2.398-1.234 2.398-3.565 0-2.742-1.415-3.345-3.416-3.345h-1.5v6.91Zm0 8.83h1.88c2.105 0 3.502-.603 3.502-3.592 0-2.523-1.018-3.648-2.898-3.648h-2.484v7.24Zm16.342 1.727h-7.038V25.33h7.038v1.728h-5.796v6.746h4.968v1.727h-4.968v7.267h5.796v1.727Zm10.378-19.194h1.242v19.194h-1.242v-9.021h-6.521v9.021h-1.242V25.33h1.242v8.474h6.521V25.33Zm12.348 0h1.242v19.194h-1.242v-9.021h-6.521v9.021h-1.242V25.33h1.242v8.474h6.521V25.33Zm4.585 0h1.243v7.513h2.397c2.778 0 4.296 1.782 4.296 5.84 0 4.059-1.518 5.841-4.313 5.841h-3.623V25.33Zm9.885 0h1.242v19.194h-1.242V25.33Zm-8.642 17.467h2.311c2.07 0 3.14-1.097 3.14-4.086 0-3.044-1.053-4.14-3.123-4.14h-2.328v8.226Zm25.218-17.467v19.194h-1.173V31.746c0-1.097.034-2.084.051-2.934-1.104 4.058-2.484 8.171-4.329 12.778h-1.07c-1.846-4.607-3.243-8.775-4.364-12.806.051.85.069 1.865.069 2.962v12.778h-1.173V25.33h1.293c1.242 4.826 2.812 9.433 4.727 14.314 1.898-4.88 3.45-9.488 4.675-14.314h1.294Zm7.066 9.816c0-5.786 1.725-10.146 5.382-10.146 1.018 0 2.036.357 2.95.96l-.31 1.7c-.811-.466-1.605-.877-2.622-.877-2.933 0-4.106 3.729-4.106 8.363 0 4.717 1.328 7.925 4.192 7.925 1.138 0 1.966-.494 2.674-.987l.258 1.7c-.707.576-1.794 1.07-2.967 1.07-3.571 0-5.451-3.867-5.451-9.708Zm13.83-9.816c2.915 0 4.796 1.864 4.796 6.142 0 4.277-1.881 6.115-4.796 6.115h-1.691v6.937h-1.242V25.33h2.933Zm-.017 10.53c2.122 0 3.536-1.016 3.536-4.388 0-3.373-1.414-4.415-3.536-4.415h-1.674v8.802h1.674Zm14.365 8.664h-7.038V25.33h7.038v1.728h-5.796v6.746h4.968v1.727h-4.968v7.267h5.796v1.727Zm12.206-1.727V48.5h-1.173v-3.977h-8.815V48.5h-1.173v-5.704h1.035c.914-1.837 1.932-6.554 1.932-13.519v-3.949h6.745v17.468h1.449Zm-8.815 0h6.141v-15.74h-4.312v2.248c0 6.965-.966 11.627-1.829 13.492Zm10.261-7.651c0-5.786 1.725-10.146 5.382-10.146 1.018 0 2.035.357 2.95.96l-.311 1.7c-.811-.466-1.604-.877-2.622-.877-2.933 0-4.106 3.729-4.106 8.363 0 4.717 1.329 7.925 4.192 7.925 1.139 0 1.967-.494 2.674-.987l.259 1.7c-.707.576-1.794 1.07-2.967 1.07-3.571 0-5.451-3.867-5.451-9.708Zm18.28-9.816v1.727H322.6v17.467h-1.242V27.057h-3.675v-1.728h8.591Zm2.152 19.194V25.33h2.708c2.795 0 4.675 1.234 4.675 4.881 0 2.413-.742 3.73-1.604 4.333 1.138.576 2.07 1.974 2.07 4.689 0 4.031-1.863 5.292-4.675 5.292h-3.174Zm1.225-10.557h2.518c1.674 0 2.398-1.234 2.398-3.565 0-2.742-1.414-3.345-3.415-3.345h-1.501v6.91Zm0 8.83h1.88c2.105 0 3.502-.603 3.502-3.592 0-2.523-1.018-3.648-2.898-3.648h-2.484v7.24Zm13.755 2.056c-3.433 0-5.072-4.36-5.072-9.926 0-5.567 1.604-9.927 5.072-9.927 3.45 0 5.089 4.36 5.089 9.927 0 5.566-1.639 9.926-5.089 9.926Zm0-1.782c2.673 0 3.795-3.62 3.795-8.144 0-4.525-1.122-8.144-3.795-8.144-2.692 0-3.778 3.62-3.778 8.144s1.121 8.144 3.778 8.144Zm19.785-17.741v19.194h-1.173V31.746c0-1.097.035-2.084.052-2.934-1.104 4.058-2.484 8.171-4.33 12.778h-1.069c-1.846-4.607-3.243-8.775-4.365-12.806.052.85.069 1.865.069 2.962v12.778h-1.173V25.33h1.294c1.242 4.826 2.812 9.433 4.727 14.314 1.897-4.88 3.45-9.488 4.675-14.314h1.293Z" fill="#CCD7E2"/></svg>