<svg width="164" height="26" fill="none" xmlns="http://www.w3.org/2000/svg"><g clip-path="url(#a)"><path d="M0 .582v24.456h6.161v-9.367h12.191v9.367h6.162V.582h-6.162v9.367H6.162V.582H0Zm36.636 0-7.904 24.456h6.548l1.758-5.606h8.939l1.758 5.606h6.547L46.378.582h-9.742Zm4.871 5.189 2.62 8.107h-5.24l2.62-8.107ZM58.498.578v24.457h19.595v-5.722H64.659V.578h-6.161Zm23.943 0h20.753V6.3H82.441V.578Z" fill="#fff"/><path d="M82.441 9.945h20.753v5.722H82.441V9.945Z" fill="#30EA03"/><path d="M82.441 19.313h20.753v5.721H82.441v-5.721ZM120.936 0c-7.399 0-13.397 5.735-13.397 12.809 0 7.073 5.998 12.808 13.397 12.808s13.398-5.735 13.398-12.809C134.334 5.736 128.336 0 120.936 0Zm0 5.504c4.001 0 7.244 3.27 7.244 7.305 0 4.034-3.243 7.304-7.244 7.304-4.001 0-7.244-3.27-7.244-7.304 0-4.035 3.243-7.305 7.244-7.305ZM138.691.578v24.457h6.162V9.715l12.191 15.32h6.161V.578h-6.16v15.319L144.853.577h-6.162Z" fill="#fff"/></g><defs><clipPath id="a"><path fill="#fff" d="M0 0h163.208v25.617H0z"/></clipPath></defs></svg>