<svg width="241" height="30" fill="none" xmlns="http://www.w3.org/2000/svg"><path d="M145.035 3.39h.369c2.121 0 4.001.499 5.753 1.382 1.751.868 3.005 2.25 4.001 4.001.996 1.752 1.366 3.616 1.366 5.866 0 3.245-.996 5.864-3.117 8.002-2.122 1.992-4.869 3.117-8.372 3.117v3.503h-5.367v-3.503h-.37c-2.121 0-4.129-.498-5.752-1.382-1.752-.868-3.005-2.25-4.001-3.873-.997-1.622-1.382-3.615-1.382-5.752 0-2.121.498-4.13 1.382-5.753.996-1.751 2.249-3.004 4.001-4a11.161 11.161 0 0 1 5.624-1.495h.498V0h5.367v3.39Zm-5.624 4.612c-1.88 0-3.246.627-4.371 1.752-.996 1.124-1.623 2.747-1.623 4.868 0 1.993.498 3.503 1.623 4.628.996 1.125 2.491 1.752 4.371 1.752h.257v-13h-.257Zm5.624 0v13h.369c1.88 0 3.246-.627 4.242-1.752.997-1.125 1.623-2.748 1.623-4.628 0-2.12-.498-3.615-1.494-4.868-.996-1.125-2.491-1.752-4.371-1.752h-.369Zm17.241-.128-.369 8.5c-.129 2.49-.37 4.37-.868 5.495s-1.125 1.623-2.121 1.752h-.627v4.37h1.88c2.121 0 3.744-.755 4.869-2.378 1.125-1.494 1.752-3.872 1.993-7.247l.369-6.25h4.74v15.747h5.367V7.873h-15.233Zm28.49 20.487c-3.005 0-5.367-.868-7.247-2.748-1.88-1.88-2.748-4.242-2.748-7.247v-.498c0-1.992.37-3.872 1.125-5.367.755-1.623 1.88-2.747 3.246-3.615 1.366-.868 3.005-1.253 4.869-1.253 2.747 0 4.868.867 6.491 2.619 1.623 1.751 2.379 4.242 2.379 7.375v2.25h-12.743a4.775 4.775 0 0 0 1.623 3.117c.868.755 1.993 1.125 3.246 1.125 2.121 0 3.615-.755 4.869-2.25l2.619 3.005c-.755 1.125-1.88 1.993-3.246 2.62-1.366.497-2.86.867-4.483.867Zm-.627-16.486c-1.125 0-1.88.37-2.619 1.124-.627.756-1.125 1.752-1.253 3.118h7.488v-.37c0-1.253-.37-2.12-.997-2.748-.626-.867-1.494-1.124-2.619-1.124Zm24.103 16.116h7.118L214.242 17.5l6.62-9.497h-6.748l-4.371 7.488h-1.88V8.002h-5.496V28.12h5.367v-7.376h2.121l4.387 7.247Zm17.242-4c-1.254 0-2.25-.499-2.877-1.383-.626-.867-.996-2.378-.996-4.499v-.498c0-1.992.37-3.503.996-4.37.627-.868 1.623-1.382 2.877-1.382.996 0 1.88.37 2.49.996.627.627.997 1.494.997 2.49h4.997c0-2.378-.755-4.242-2.25-5.752-1.494-1.382-3.503-2.121-5.993-2.121-2.877 0-5.126.868-6.749 2.748-1.623 1.88-2.507 4.242-2.507 7.375v.37c0 3.245.868 5.752 2.507 7.488 1.623 1.88 3.872 2.747 6.749 2.747 1.494 0 2.876-.257 4.242-.867 1.253-.627 2.249-1.495 3.005-2.62.755-1.124 1.124-2.378 1.124-3.744h-4.997c0 .868-.37 1.623-.996 2.121-.868.66-1.623.9-2.619.9Zm-106.438 5.254h-4.628v-2.748c-1.623 2.121-4.499 3.503-7.119 3.503-3.245 0-5.865-1.382-7.616-3.503-1.623-1.992-2.619-4.628-2.619-7.616 0-2.877.755-5.255 2.619-7.488 2.121-2.491 4.74-3.616 7.745-3.616 2.876 0 5.367 1.254 6.99 3.616V8.516h4.628v20.729ZM114.312 12.63c-3.744 0-6.251 2.748-6.251 6.363 0 3.374 2.748 5.994 6.122 5.994 3.616 0 6.122-2.62 6.122-6.251 0-3.358-2.378-6.106-5.993-6.106Zm-82.32 17.24c-6.62 0-10.99-4.37-10.99-10.99S25.5 7.76 31.992 7.76c6.62 0 10.991 4.5 10.991 11.12 0 6.62-4.37 10.99-10.99 10.99Zm0-17.241c-3.872 0-6.122 2.378-6.122 6.25 0 3.873 2.378 6.251 6.122 6.251 3.873 0 6.123-2.378 6.123-6.25-.017-4.002-2.25-6.251-6.123-6.251ZM0 .129h5.367c2.62 0 5.254-.129 7.745 1.124 2.378 1.254 4.13 3.873 4.13 6.492 0 2.25-1.125 4.5-3.246 5.496 3.246.996 4.997 3.744 4.997 6.99 0 2.876-1.253 5.254-3.615 6.99-2.379 1.75-5.367 1.88-8.115 1.88H.016L0 .128Zm6.508 11.119c1.125 0 2.619 0 3.615-.37a2.91 2.91 0 0 0 1.623-2.619c0-1.125-.755-2.12-1.88-2.619-.868-.498-2.25-.257-3.503-.257h-.996v5.865h1.14ZM7.745 23.99c1.623 0 3.005-.128 4.5-.996.996-.627 1.381-1.623 1.381-2.876 0-1.382-.627-2.25-1.992-3.005-1.254-.627-2.491-.627-3.873-.627H5.383v7.504h2.362Zm83.958 5.255h4.998V12.87h5.752V8.5H86.208v4.37h5.624v16.358h-.129v.016Zm-4.756-8.87c-.257-2.378-1.382-4.37-3.246-5.753-2.12-1.623-4.869-1.751-7.488-1.751h-1.751V8.5h-4.998v20.744h6.749c2.62-.129 5.367-.257 7.488-1.752 1.88-1.382 3.117-3.374 3.246-5.624v-1.495Zm-6.363 2.989c-1.382.867-2.62.867-4.13.867h-2.12v-6.748h2.12c1.495 0 2.877 0 4.13.996.867.627 1.253 1.382 1.253 2.378-.016 1.14-.386 2.009-1.253 2.507ZM49.974 8.5v10.75c0 1.623.256 4.997-3.504 4.997h-3.374v4.87h3.615c7.617 0 8.115-7.12 8.115-9.867v-6.492h6.25v16.358h4.998V8.5h-16.1Z" fill="#0D1D7C"/></svg>