<svg width="174" height="22" fill="none" xmlns="http://www.w3.org/2000/svg"><path d="M104.746 2.486h.266c1.529 0 2.883.366 4.145 1.014 1.262.636 2.165 1.65 2.883 2.934.718 1.284.984 2.651.984 4.3 0 2.381-.717 4.302-2.246 5.87-1.528 1.46-3.508 2.285-6.032 2.285v2.569h-3.867v-2.569h-.266c-1.529 0-2.976-.365-4.145-1.013-1.262-.637-2.165-1.65-2.883-2.84s-.996-2.651-.996-4.219c0-1.555.359-3.028.996-4.218.718-1.285 1.62-2.204 2.883-2.934a7.936 7.936 0 0 1 4.052-1.096h.359V0h3.867v2.486Zm-4.052 3.382c-1.355 0-2.339.46-3.15 1.285-.717.825-1.169 2.015-1.169 3.57 0 1.461.36 2.569 1.17 3.394.717.825 1.794 1.284 3.149 1.284h.185V5.868h-.185Zm4.052 0v9.533h.266c1.355 0 2.339-.46 3.057-1.284.718-.825 1.169-2.015 1.169-3.394 0-1.555-.358-2.651-1.076-3.57-.718-.825-1.795-1.285-3.15-1.285h-.266Zm12.423-.094-.266 6.234c-.092 1.826-.266 3.205-.625 4.03-.359.824-.811 1.19-1.528 1.284h-.452v3.205h1.355c1.528 0 2.697-.554 3.508-1.744.81-1.096 1.262-2.84 1.436-5.314l.266-4.584h3.415v11.548h3.867V5.774h-10.976Zm20.528 15.024c-2.165 0-3.867-.636-5.221-2.015-1.355-1.379-1.98-3.11-1.98-5.314v-.366c0-1.46.266-2.84.81-3.935.544-1.19 1.355-2.015 2.339-2.652.984-.636 2.165-.919 3.508-.919 1.98 0 3.508.637 4.678 1.92 1.169 1.285 1.713 3.112 1.713 5.41v1.65h-9.181a3.524 3.524 0 0 0 1.169 2.285c.626.554 1.436.825 2.339.825 1.528 0 2.605-.554 3.508-1.65l1.887 2.204c-.544.825-1.354 1.461-2.338 1.92-.984.366-2.061.637-3.231.637Zm-.451-12.09c-.811 0-1.355.271-1.887.825-.452.554-.811 1.284-.903 2.286h5.395v-.271c0-.92-.266-1.556-.718-2.015-.451-.636-1.077-.825-1.887-.825Zm17.367 11.82h5.129l-5.129-7.696 4.77-6.964h-4.863l-3.149 5.491h-1.354V5.87h-3.96v14.75h3.867v-5.408h1.528l3.161 5.314Zm12.423-2.935c-.903 0-1.621-.365-2.072-1.014-.452-.636-.718-1.743-.718-3.299v-.365c0-1.461.266-2.569.718-3.205.451-.637 1.169-1.014 2.072-1.014.718 0 1.355.271 1.795.73.451.46.718 1.097.718 1.827h3.601c0-1.744-.545-3.11-1.621-4.218-1.077-1.014-2.524-1.556-4.319-1.556-2.072 0-3.693.637-4.863 2.015-1.169 1.38-1.806 3.111-1.806 5.41v.27c0 2.38.625 4.219 1.806 5.491 1.17 1.379 2.791 2.015 4.863 2.015 1.077 0 2.072-.188 3.057-.636a5.554 5.554 0 0 0 2.165-1.92 4.89 4.89 0 0 0 .81-2.746h-3.601c0 .636-.266 1.19-.717 1.555-.626.483-1.17.66-1.888.66Zm-76.693 3.853h-3.335v-2.015C85.84 20.987 83.767 22 81.88 22c-2.338 0-4.226-1.013-5.488-2.569-1.169-1.461-1.887-3.393-1.887-5.585 0-2.11.544-3.854 1.887-5.491 1.529-1.827 3.416-2.652 5.581-2.652 2.073 0 3.867.92 5.037 2.652v-2.11h3.334v15.201ZM82.609 9.262c-2.698 0-4.504 2.015-4.504 4.666 0 2.475 1.98 4.395 4.411 4.395 2.605 0 4.411-1.92 4.411-4.583 0-2.463-1.713-4.478-4.318-4.478ZM23.294 21.906c-4.77 0-7.92-3.205-7.92-8.06s3.243-8.155 7.92-8.155c4.77 0 7.92 3.3 7.92 8.155 0 4.855-3.15 8.06-7.92 8.06Zm0-12.644c-2.79 0-4.411 1.744-4.411 4.584s1.713 4.584 4.411 4.584c2.79 0 4.411-1.744 4.411-4.584-.011-2.934-1.62-4.584-4.41-4.584ZM.242.094H4.11C5.997.094 7.895 0 9.69.92c1.714.92 2.976 2.84 2.976 4.76 0 1.65-.81 3.3-2.338 4.03 2.338.731 3.6 2.746 3.6 5.127 0 2.109-.903 3.853-2.605 5.125-1.713 1.285-3.867 1.38-5.847 1.38H.254L.242.093Zm4.69 8.155c.81 0 1.887 0 2.604-.271a2.138 2.138 0 0 0 1.17-1.921c0-.825-.544-1.556-1.355-1.921-.625-.365-1.62-.188-2.524-.188H4.11v4.3h.822Zm.89 9.344c1.17 0 2.166-.094 3.243-.73.718-.46.995-1.19.995-2.11 0-1.013-.451-1.65-1.435-2.204-.903-.459-1.795-.459-2.79-.459H4.12v5.503h1.702Zm60.496 3.853h3.601V9.44h4.145V6.234H62.36v3.205h4.052v11.995h-.093v.012Zm-3.427-6.504c-.185-1.744-.995-3.206-2.338-4.219-1.529-1.19-3.509-1.284-5.396-1.284h-1.262V6.234h-3.6v15.212h4.862c1.887-.094 3.867-.188 5.396-1.284 1.354-1.014 2.246-2.475 2.338-4.124v-1.096Zm-4.585 2.191c-.995.637-1.887.637-2.975.637h-1.529v-4.95h1.529c1.077 0 2.072 0 2.975.731.626.46.904 1.014.904 1.744-.012.837-.278 1.473-.904 1.838ZM36.25 6.233v7.884c0 1.19.185 3.665-2.524 3.665h-2.431v3.57H33.9c5.488 0 5.847-5.22 5.847-7.235v-4.76h4.504v11.995h3.6V6.234h-11.6Z" fill="#011F68"/></svg>