<svg width="576" height="72" fill="none" xmlns="http://www.w3.org/2000/svg"><path d="M347.944 8.137h.886c5.089 0 9.599 1.196 13.801 3.317 4.202 2.082 7.209 5.399 9.599 9.602 2.39 4.204 3.276 8.677 3.276 14.076 0 7.79-2.39 14.076-7.478 19.205-5.089 4.782-11.681 7.482-20.084 7.482v8.407h-12.876v-8.407h-.886c-5.089 0-9.907-1.196-13.801-3.317-4.202-2.082-7.209-5.399-9.599-9.294-2.39-3.895-3.315-8.677-3.315-13.806 0-5.09 1.195-9.91 3.315-13.806 2.39-4.203 5.397-7.211 9.599-9.602s8.674-3.587 13.492-3.587h1.195V0h12.876v8.137Zm-13.492 11.068c-4.511 0-7.787 1.504-10.486 4.204-2.39 2.7-3.893 6.594-3.893 11.685 0 4.782 1.195 8.407 3.893 11.106 2.39 2.7 5.975 4.204 10.486 4.204h.616V19.205h-.616Zm13.492 0v31.199h.886c4.511 0 7.787-1.504 10.177-4.204 2.39-2.7 3.894-6.594 3.894-11.106 0-5.09-1.195-8.677-3.585-11.685-2.39-2.7-5.975-4.204-10.486-4.204h-.886Zm41.363-.308-.887 20.4c-.308 5.978-.886 10.49-2.081 13.19-1.195 2.699-2.699 3.894-5.089 4.203h-1.503v10.49h4.51c5.088 0 8.982-1.813 11.68-5.708 2.699-3.587 4.202-9.294 4.78-17.393l.887-15.001h11.372V66.87h12.875V18.897h-36.544Zm68.347 49.17c-7.208 0-12.875-2.083-17.385-6.595-4.511-4.512-6.592-10.181-6.592-17.393v-1.195c0-4.782.886-9.294 2.698-12.88 1.812-3.896 4.511-6.595 7.787-8.678 3.277-2.082 7.209-3.008 11.681-3.008 6.591 0 11.68 2.083 15.573 6.286 3.894 4.204 5.706 10.181 5.706 17.701v5.4h-30.57c.309 3.007 1.812 5.707 3.894 7.48 2.081 1.813 4.78 2.7 7.787 2.7 5.088 0 8.673-1.812 11.68-5.399l6.283 7.212c-1.811 2.7-4.51 4.782-7.786 6.286-3.277 1.195-6.862 2.082-10.756 2.082Zm-1.503-39.568c-2.698 0-4.51.887-6.284 2.7-1.503 1.812-2.698 4.203-3.006 7.481h17.963v-.887c0-3.008-.886-5.09-2.39-6.594-1.503-2.083-3.585-2.7-6.283-2.7Zm57.824 38.68h17.077l-17.077-25.182 15.882-22.792h-16.191l-10.485 17.971h-4.51v-17.97h-13.184v48.282h12.875V49.787h5.089l10.524 17.392Zm41.363-9.602c-3.007 0-5.397-1.196-6.901-3.317-1.503-2.082-2.39-5.707-2.39-10.798v-1.195c0-4.782.887-8.407 2.39-10.49 1.504-2.082 3.894-3.316 6.901-3.316 2.39 0 4.51.887 5.975 2.39 1.503 1.505 2.39 3.587 2.39 5.978h11.989c0-5.707-1.812-10.18-5.397-13.806-3.585-3.317-8.404-5.09-14.379-5.09-6.9 0-12.297 2.082-16.191 6.594-3.893 4.512-6.013 10.181-6.013 17.701v.887c0 7.79 2.081 13.806 6.013 17.971 3.894 4.512 9.291 6.595 16.191 6.595 3.585 0 6.9-.617 10.177-2.083 3.007-1.504 5.397-3.586 7.209-6.286 1.811-2.7 2.698-5.707 2.698-8.985h-11.989c0 2.082-.886 3.895-2.39 5.09-2.081 1.581-3.893 2.16-6.283 2.16Zm-255.349 12.61h-11.102v-6.594C284.993 68.683 278.093 72 271.809 72c-7.787 0-14.07-3.317-18.272-8.407-3.893-4.782-6.283-11.107-6.283-18.28 0-6.903 1.811-12.61 6.283-17.97 5.089-5.978 11.372-8.678 18.581-8.678 6.9 0 12.875 3.008 16.769 8.677V20.44h11.102v49.748Zm-25.751-39.875c-8.982 0-14.996 6.594-14.996 15.271 0 8.099 6.592 14.385 14.688 14.385 8.673 0 14.687-6.286 14.687-15.002 0-8.06-5.705-14.654-14.379-14.654ZM76.751 71.692c-15.882 0-26.367-10.49-26.367-26.379 0-15.888 10.793-26.686 26.367-26.686 15.882 0 26.368 10.798 26.368 26.686 0 15.889-10.486 26.379-26.368 26.379Zm0-41.38c-9.29 0-14.687 5.707-14.687 15.001s5.705 15.002 14.687 15.002c9.29 0 14.687-5.708 14.687-15.002-.038-9.602-5.397-15.001-14.687-15.001ZM0 .309h12.875C19.16.309 25.481 0 31.456 3.008c5.705 3.008 9.907 9.294 9.907 15.58 0 5.4-2.698 10.798-7.787 13.19 7.787 2.39 11.989 8.985 11.989 16.775 0 6.903-3.007 12.61-8.674 16.775-5.705 4.204-12.875 4.512-19.467 4.512H.04L0 .31Zm15.612 26.686c2.699 0 6.284 0 8.674-.887a6.982 6.982 0 0 0 3.893-6.286c0-2.7-1.811-5.09-4.51-6.286-2.082-1.195-5.397-.617-8.404-.617h-2.39v14.076h2.737Zm2.969 30.582c3.893 0 7.208-.309 10.793-2.391 2.39-1.504 3.316-3.895 3.316-6.903 0-3.317-1.504-5.4-4.78-7.212-3.007-1.504-5.976-1.504-9.29-1.504h-5.706v18.01h5.667Zm201.418 12.61h11.989V30.89h13.801V20.4h-38.973v10.49h13.492v39.26h-.309v.038ZM208.589 48.9c-.617-5.708-3.315-10.49-7.787-13.806-5.088-3.895-11.68-4.204-17.964-4.204h-4.202V20.4h-11.988v49.788h16.19c6.284-.31 12.876-.618 17.964-4.204 4.51-3.317 7.479-8.099 7.787-13.498V48.9Zm-15.266 7.173c-3.315 2.082-6.283 2.082-9.907 2.082h-5.088V41.958h5.088c3.585 0 6.901 0 9.907 2.391 2.082 1.504 3.007 3.317 3.007 5.708-.038 2.738-.925 4.82-3.007 6.016ZM119.888 20.4v25.8c0 3.894.616 11.993-8.404 11.993h-8.095v11.685h8.673c18.272 0 19.467-17.084 19.467-23.679V30.62h14.996v39.26h11.989V20.401h-38.626Z" fill="#fff"/></svg>